{"glyphs":{"0":{"ha":744,"x_min":0,"x_max":0,"o":"m 415 -14 b 879 369 631 -14 763 126 b 982 758 956 528 982 643 b 729 986 982 913 894 986 b 250 589 483 986 367 831 b 147 239 175 435 147 322 b 415 -14 147 49 249 -14 z m 165 310 b 188 406 169 339 178 371 l 197 406 b 175 310 188 371 179 339 z m 178 239 b 278 575 178 326 211 439 b 367 736 310 642 339 693 b 463 856 397 786 429 825 b 729 956 536 924 621 956 b 897 907 804 956 861 939 b 938 849 915 892 928 872 b 951 758 946 824 951 793 b 851 383 953 640 924 528 b 664 110 790 256 731 168 b 551 40 628 79 592 56 b 415 17 510 25 465 17 b 239 64 335 17 276 32 b 178 239 197 100 178 157 z m 203 244 b 404 42 200 90 274 42 b 643 135 500 42 585 74 b 408 60 621 133 549 60 b 228 203 285 60 228 110 b 317 304 228 261 261 304 b 382 269 363 304 378 269 b 424 407 385 311 400 360 b 286 332 418 407 369 332 b 226 381 225 332 229 381 b 203 244 211 331 203 293 z m 206 457 b 225 507 211 474 218 489 l 235 507 b 215 457 228 489 221 474 z m 246 554 b 260 585 250 564 254 575 b 322 703 281 628 301 667 l 333 703 b 268 581 311 665 290 625 l 256 554 z m 286 532 b 485 658 293 532 358 658 b 524 647 501 658 518 653 b 597 750 554 699 583 742 b 357 661 515 718 429 683 b 286 532 340 633 315 586 z m 304 10 l 307 18 b 415 7 339 10 375 7 b 488 13 440 7 464 8 l 483 3 b 415 -3 461 -1 439 -3 b 304 10 374 -3 336 1 z m 399 729 b 882 886 525 797 756 868 b 817 918 861 906 833 913 b 586 842 797 906 644 842 b 564 856 572 842 564 846 b 732 931 567 893 732 928 b 500 846 639 931 564 900 b 399 729 465 818 432 781 z m 401 819 b 485 900 428 851 454 878 l 501 900 b 414 819 469 878 442 851 z m 410 251 b 457 201 410 222 429 201 b 526 251 481 201 501 217 b 633 456 554 292 589 357 b 719 717 710 624 719 683 b 672 767 719 747 701 767 b 603 717 649 767 628 751 b 496 513 575 676 540 611 b 410 251 419 344 410 285 z m 431 317 b 444 361 433 329 439 344 l 454 361 b 440 317 449 344 443 329 z m 440 251 b 524 500 440 281 450 338 b 672 736 621 714 654 736 b 689 717 682 736 689 732 b 606 468 689 688 679 631 b 457 232 508 254 475 232 b 440 251 449 232 440 236 z m 519 10 l 524 21 l 550 29 l 546 18 z m 542 222 b 724 297 549 221 646 297 b 757 271 761 297 753 271 b 840 425 792 332 810 361 b 682 332 835 426 771 332 b 638 390 635 332 640 390 b 542 222 597 304 582 275 z m 583 394 b 615 464 593 415 604 438 b 631 499 621 476 626 488 l 642 499 b 624 460 636 486 631 474 b 593 394 613 436 603 414 z m 642 525 l 667 588 l 678 588 l 653 525 z m 692 664 b 700 706 697 682 699 696 l 710 706 b 703 664 708 694 707 681 z m 703 786 b 744 672 761 779 753 714 b 879 781 749 672 792 781 b 918 739 913 781 914 739 b 900 849 924 792 913 833 b 703 786 874 831 761 794 z m 939 872 l 949 872 b 964 828 956 860 960 844 l 954 828 b 939 872 950 844 946 858 z "},"1":{"ha":389,"x_min":0,"x_max":0,"o":"m 31 0 l 331 0 l 774 972 l 582 972 l 300 761 l 354 711 z m 78 31 l 392 718 l 349 758 l 592 942 l 726 942 l 311 31 z m 121 57 l 288 57 b 169 108 288 86 169 53 b 358 304 169 172 272 304 b 392 278 396 304 388 278 l 451 403 b 315 331 446 403 375 331 b 274 390 264 331 276 390 z m 139 213 l 197 339 l 208 339 l 150 213 z m 163 11 l 168 21 l 290 21 l 285 11 z m 236 425 l 254 464 l 265 464 l 247 425 z m 321 611 l 347 669 l 358 669 l 332 611 z m 347 549 b 540 686 354 550 433 686 b 575 675 568 686 572 675 l 618 769 b 419 701 551 742 479 717 z m 408 761 l 419 751 b 644 833 474 782 597 824 l 661 865 b 606 853 640 858 621 853 b 590 863 596 853 590 857 b 611 913 590 883 606 901 z m 450 860 l 504 900 l 521 900 l 467 860 z "},"2":{"ha":692,"x_min":0,"x_max":0,"o":"m 11 0 l 671 0 l 794 272 l 406 272 b 572 329 429 293 472 300 b 958 767 822 403 950 568 b 706 986 964 925 853 986 b 268 578 499 986 347 872 l 551 578 b 650 736 585 685 614 736 b 675 708 668 736 675 725 b 624 589 675 685 653 618 b 400 513 574 542 483 535 b 97 224 222 461 151 347 b 11 0 64 149 24 40 z m 54 31 b 125 211 72 81 100 156 b 408 483 189 353 261 440 b 471 497 429 489 450 493 b 644 567 538 513 601 525 b 706 708 679 601 706 671 b 693 749 706 725 701 738 b 650 767 686 757 672 767 b 606 751 635 767 619 761 b 574 713 594 742 583 729 b 529 610 558 689 544 657 l 308 610 b 368 751 325 664 346 710 b 460 869 394 799 425 839 b 706 956 525 928 606 956 b 886 897 788 956 850 935 b 928 768 915 867 929 824 b 564 357 918 557 771 418 b 386 294 532 347 418 321 b 353 242 369 281 358 264 l 747 242 l 651 31 z m 101 57 l 617 57 b 478 74 607 71 529 74 l 215 74 b 146 115 158 74 146 85 b 292 288 146 199 214 288 b 336 278 325 288 333 276 b 508 368 353 310 393 338 b 599 392 538 375 569 383 b 585 394 597 393 592 394 b 292 333 511 394 367 333 b 265 378 243 333 268 378 b 101 57 206 317 158 244 z m 104 213 b 107 219 104 214 106 217 b 139 285 117 242 128 264 l 149 285 l 115 215 b 114 213 115 214 114 213 z m 243 419 l 268 439 l 274 431 b 250 413 265 425 257 419 z m 278 11 l 282 21 l 333 21 l 329 11 z m 308 667 b 335 729 317 689 325 710 l 344 729 b 318 667 335 710 326 689 z m 349 642 l 390 642 b 490 675 422 654 472 675 b 518 664 511 675 518 664 b 558 744 529 700 546 728 b 358 667 485 713 431 689 z m 357 589 l 361 599 l 515 599 l 513 589 z m 376 11 l 381 21 l 606 21 l 601 11 z m 379 808 b 464 900 406 846 433 876 l 479 900 b 390 808 446 876 417 846 z m 386 729 b 856 886 511 800 729 868 b 796 918 835 904 814 913 b 565 842 776 906 624 843 b 544 853 554 842 544 844 b 711 931 544 892 711 928 b 479 846 618 931 543 900 b 386 729 444 818 419 781 z m 481 519 b 543 535 501 524 524 529 l 549 528 b 485 511 529 521 507 515 z m 622 365 l 664 382 l 669 374 l 628 357 z m 661 624 b 686 706 675 653 685 686 l 696 706 b 671 624 694 686 686 654 z m 685 785 b 726 671 743 778 735 713 b 863 779 731 671 769 778 b 900 742 896 779 896 742 b 882 849 906 794 894 833 b 685 785 856 831 743 796 z m 919 868 l 931 868 b 946 822 938 854 942 839 l 935 822 b 919 868 931 839 926 854 z "},"3":{"ha":624,"x_min":0,"x_max":0,"o":"m 278 -14 b 744 353 581 -14 744 129 b 676 497 744 413 728 456 b 922 803 817 565 922 663 b 658 986 922 922 849 986 b 428 947 571 986 468 963 l 301 668 b 526 699 372 686 450 699 b 585 668 572 699 586 683 b 378 600 582 622 518 600 l 289 600 l 185 375 l 361 376 b 469 333 428 376 471 372 b 342 271 468 292 422 271 b 143 307 258 271 208 282 l 19 42 b 278 -14 93 11 182 -14 z m 61 58 l 158 269 b 342 240 215 250 267 240 b 500 332 449 240 499 276 b 361 407 503 394 444 408 l 233 406 l 308 569 l 378 569 b 615 665 544 569 611 603 b 526 729 618 694 597 729 b 354 711 469 729 410 722 l 450 922 b 658 956 494 938 582 956 b 892 803 838 956 892 908 b 615 503 892 661 778 572 b 714 353 682 471 714 421 b 278 17 714 143 569 17 b 61 58 199 17 128 33 z m 93 74 b 286 40 133 56 219 40 b 619 157 392 40 524 61 b 297 58 583 151 514 58 b 139 121 181 58 139 82 b 217 225 139 142 163 186 l 171 236 z m 161 10 l 165 19 b 278 7 201 11 240 7 b 438 22 336 7 390 13 l 433 13 b 278 -3 386 3 335 -3 b 161 10 239 -3 199 3 z m 225 436 l 238 464 l 249 464 l 235 436 z m 249 485 l 279 553 l 290 553 l 260 485 z m 267 386 l 269 396 l 361 397 l 397 397 l 393 388 l 361 388 z m 378 811 l 418 900 l 429 900 l 389 811 z m 400 749 b 844 872 517 796 719 857 b 774 914 828 890 804 906 b 510 828 739 886 572 828 b 485 839 494 828 485 831 b 669 929 485 890 669 924 b 469 897 608 929 542 917 z m 424 703 l 428 714 b 526 719 461 717 493 719 l 540 719 l 536 710 l 526 710 b 424 703 492 710 457 707 z m 431 225 b 646 296 499 218 579 296 b 678 281 668 296 672 289 b 686 340 681 285 686 313 b 679 390 686 356 685 372 b 578 335 675 390 649 335 b 525 369 542 335 531 369 b 528 328 528 358 528 340 b 431 225 526 290 504 249 z m 479 319 b 481 333 481 324 481 329 b 479 347 481 339 481 343 l 490 347 b 492 333 492 343 492 338 b 490 319 492 329 492 324 z m 574 754 b 650 672 622 744 650 722 b 649 656 650 667 649 656 b 819 771 667 678 724 771 b 856 739 857 771 853 739 b 858 836 864 760 867 810 b 574 754 824 814 657 768 z m 592 647 b 596 667 594 653 596 660 b 593 681 596 672 596 676 l 606 681 b 607 667 607 676 607 671 b 603 647 607 660 606 653 z m 685 463 l 699 463 b 714 442 704 456 710 449 l 703 442 b 685 463 697 449 692 456 z m 890 872 l 901 872 b 913 815 908 854 911 836 l 901 815 b 890 872 900 836 897 854 z "},"4":{"ha":700,"x_min":0,"x_max":0,"o":"m 350 0 l 650 0 l 1093 972 l 793 972 l 563 465 l 479 464 l 761 972 l 461 972 l 97 240 l 460 240 z m 125 272 l 186 394 l 196 394 l 136 272 z m 147 271 l 481 942 l 708 942 l 426 432 l 582 435 l 813 942 l 1046 942 l 631 31 l 397 31 l 507 271 z m 197 301 l 494 301 b 525 240 532 301 551 300 l 443 57 l 607 57 b 492 107 607 90 492 49 b 676 304 492 171 589 304 b 710 278 714 304 706 278 l 785 442 b 524 318 772 442 713 318 l 357 318 b 229 371 217 318 233 371 z m 231 251 l 238 261 l 375 261 l 369 251 z m 268 558 l 289 599 l 299 599 l 278 558 z m 311 549 b 504 686 318 549 403 686 b 535 675 532 686 532 675 l 586 769 b 389 701 518 742 450 717 z m 342 706 l 369 761 l 379 761 l 351 706 z m 397 251 l 403 261 l 450 261 l 444 251 z m 404 832 l 446 917 l 457 917 l 414 832 z m 411 107 l 464 224 l 475 224 l 422 107 z m 417 11 l 419 21 l 614 21 l 608 11 z m 417 758 b 614 829 469 785 565 819 l 658 904 b 488 846 608 863 486 804 b 600 915 489 886 599 911 l 493 915 z m 479 508 l 507 558 l 518 558 l 490 508 z m 657 644 l 715 774 l 725 774 l 667 644 z m 713 656 b 879 758 722 656 793 758 b 913 717 918 758 908 717 l 975 851 b 772 781 911 825 840 797 z m 761 876 l 782 921 l 793 921 l 772 876 z m 797 840 b 997 908 867 871 944 894 l 1000 915 l 832 915 z "},"5":{"ha":625,"x_min":0,"x_max":0,"o":"m 274 -14 b 767 433 593 -14 769 217 b 543 611 765 558 690 606 l 581 700 l 882 700 l 1006 972 l 433 972 l 176 394 l 365 394 b 467 340 442 394 467 381 b 338 271 467 294 418 271 b 142 307 254 271 207 282 l 18 42 b 274 -14 79 8 181 -14 z m 60 56 l 157 268 b 338 240 210 250 258 240 b 499 343 415 240 499 263 b 365 425 499 419 450 425 l 224 425 l 453 942 l 958 942 l 863 731 l 561 731 l 496 582 l 542 581 b 736 433 639 578 735 556 b 274 17 739 232 574 17 b 60 56 197 17 115 33 z m 96 76 b 289 42 164 49 218 42 b 563 135 393 42 503 79 b 290 60 539 135 456 60 b 150 135 186 60 150 79 b 200 229 150 168 179 214 l 172 238 z m 165 7 l 169 15 b 222 10 186 13 204 11 l 218 0 b 165 7 200 1 182 4 z m 224 474 l 254 544 l 265 544 l 235 474 z m 249 -3 l 254 7 l 274 7 b 432 28 332 7 383 14 l 428 18 b 274 -3 382 4 329 -3 z m 267 406 l 272 415 l 365 415 l 393 415 l 388 406 l 365 406 z m 274 217 b 382 200 274 211 326 200 b 633 304 518 200 553 304 b 671 276 671 304 668 276 b 708 435 694 322 708 389 b 582 332 703 435 675 332 b 511 383 536 332 528 383 b 525 329 524 361 525 342 b 356 213 525 261 472 213 b 274 217 331 213 310 214 z m 313 571 b 506 683 319 571 386 679 l 532 740 b 371 690 469 721 418 703 z m 321 693 l 344 744 l 356 744 l 332 693 z m 372 807 l 424 922 l 435 922 l 383 807 z m 394 749 b 903 894 568 815 797 879 l 913 915 l 788 915 b 490 822 732 881 551 822 b 469 832 476 822 469 825 b 661 917 469 883 661 913 l 472 915 b 394 749 472 915 432 819 z m 531 635 l 551 685 l 563 685 l 542 635 z m 593 757 l 842 757 l 883 847 b 593 757 807 807 675 775 z m 613 711 l 617 721 l 675 721 l 671 711 z m 706 711 l 710 721 l 851 721 l 847 711 z "},"6":{"ha":690,"x_min":0,"x_max":0,"o":"m 415 -14 b 811 292 590 -14 700 47 b 865 500 843 363 864 438 b 724 656 865 589 826 656 b 561 574 675 656 613 626 l 568 589 b 747 713 600 658 660 713 b 907 668 817 713 878 688 l 1022 926 b 771 986 972 957 879 986 b 232 553 468 986 349 839 b 153 214 186 440 153 329 b 415 -14 153 65 243 -14 z m 172 310 b 185 375 175 332 179 353 l 194 375 b 182 310 189 353 185 332 z m 183 214 b 261 542 183 310 207 411 b 771 956 371 813 478 956 b 982 913 843 956 922 940 l 893 711 b 747 743 856 728 804 743 b 518 542 629 743 551 656 l 560 539 b 724 625 600 589 671 625 b 833 490 810 625 839 572 b 783 304 831 429 810 363 b 415 17 700 121 617 17 b 183 214 275 17 183 74 z m 207 454 b 221 494 211 468 217 481 l 231 494 b 217 454 226 481 221 468 z m 213 244 b 415 42 204 90 285 42 b 653 135 511 42 592 74 b 419 60 631 133 560 60 b 236 203 296 60 232 110 b 314 304 238 261 267 304 b 372 269 360 304 368 269 b 421 407 382 315 399 360 b 299 332 413 407 376 332 b 240 381 238 332 243 381 b 213 244 224 331 214 293 z m 274 624 b 371 794 304 689 335 746 l 382 794 b 283 624 346 747 315 690 z m 281 514 b 461 640 288 514 346 640 b 510 601 511 640 506 601 b 614 733 528 647 558 696 b 342 647 515 701 394 661 b 281 514 329 622 296 553 z m 306 11 l 310 19 b 353 11 322 15 338 13 l 349 1 b 306 11 333 4 319 7 z m 382 -1 l 386 8 b 415 7 396 7 406 7 b 549 25 465 7 510 11 l 546 14 b 415 -3 507 1 464 -3 b 382 -1 404 -3 393 -3 z m 382 715 b 943 896 536 781 757 850 b 860 919 894 911 878 915 b 557 815 832 908 624 815 b 538 828 544 815 538 819 b 768 931 538 881 722 922 b 743 932 761 932 753 932 b 382 715 599 932 464 854 z m 397 242 b 411 204 397 224 404 211 b 447 190 417 199 429 190 b 547 304 492 190 518 236 b 576 486 583 394 600 451 b 526 510 571 494 556 510 l 493 510 l 454 415 b 397 242 404 293 397 260 z m 404 835 b 478 899 426 860 451 881 l 494 899 b 417 835 467 881 440 860 z m 408 253 b 418 290 410 263 413 275 l 428 290 b 418 253 424 275 419 263 z m 428 242 b 483 404 428 260 444 310 l 514 479 l 526 479 b 518 315 578 479 556 407 b 447 221 490 247 469 221 b 428 242 435 221 428 228 z m 526 308 b 528 311 528 310 528 310 l 544 353 l 554 353 b 538 308 549 338 542 324 z m 536 222 b 703 304 543 221 626 304 b 740 278 740 304 736 278 b 799 425 767 332 778 361 b 660 332 793 426 746 332 b 607 390 613 332 610 390 b 536 222 589 324 569 275 z m 551 372 b 568 451 561 403 569 431 l 578 451 b 561 372 579 431 572 403 z m 572 636 b 599 669 581 647 589 658 l 611 669 b 583 636 601 660 592 649 z m 728 769 b 878 750 788 775 822 769 l 915 831 b 728 769 851 808 796 789 z m 733 724 l 738 733 l 747 733 b 871 710 793 733 838 722 l 867 701 b 747 724 835 714 792 724 z m 813 606 l 824 606 b 846 564 833 593 840 579 l 836 564 b 813 606 831 581 824 594 z "},"7":{"ha":551,"x_min":0,"x_max":0,"o":"m 49 0 l 363 0 l 978 972 l 428 972 l 304 700 l 492 700 z m 104 31 l 547 731 l 351 731 l 447 942 l 922 942 l 779 717 l 346 31 z m 154 57 l 321 57 b 246 74 322 68 292 74 b 210 101 215 74 207 79 b 417 286 221 160 350 286 b 458 258 454 286 456 258 l 572 438 b 381 317 564 438 474 317 b 354 369 340 317 358 369 z m 183 11 l 193 21 l 333 21 l 326 11 z m 196 213 l 269 329 l 281 329 l 207 213 z m 293 365 l 364 478 l 376 478 l 304 365 z m 356 786 l 406 897 l 415 897 l 365 786 z m 364 711 l 371 721 l 483 721 l 476 711 z m 392 758 l 414 758 b 858 885 575 811 747 861 l 875 915 l 799 915 b 463 832 731 874 463 796 b 672 917 463 883 672 913 l 465 915 z m 401 100 l 425 138 l 438 138 l 414 100 z m 436 593 l 485 671 l 496 671 l 447 593 z m 510 618 b 694 721 519 618 608 721 b 719 679 733 721 715 679 l 806 814 b 589 743 736 788 661 760 z "},"8":{"ha":685,"x_min":0,"x_max":0,"o":"m 401 -14 b 800 338 742 -14 800 243 b 733 494 800 415 778 457 b 960 788 914 529 960 679 b 700 986 960 919 863 986 b 325 639 410 986 325 764 b 369 517 325 589 342 549 b 99 196 149 471 99 307 b 401 -14 99 50 221 -14 z m 125 308 b 142 349 131 322 135 336 l 153 349 b 136 308 146 336 140 322 z m 128 196 b 433 497 128 313 179 471 b 354 639 382 535 354 575 b 700 957 354 758 429 957 b 931 788 853 957 931 904 b 672 507 931 674 883 529 b 771 338 731 475 771 417 b 401 15 771 246 718 15 b 128 196 228 15 128 68 z m 158 218 b 404 42 157 85 231 42 b 664 135 536 42 601 85 b 408 60 632 135 561 60 b 185 203 242 60 185 110 b 281 304 185 261 225 304 b 346 269 326 304 342 269 b 404 407 356 318 378 369 b 261 332 390 407 331 332 b 226 381 203 332 229 381 b 158 218 197 358 160 288 z m 286 6 l 292 14 b 401 6 324 8 361 6 b 543 24 456 6 503 13 l 539 13 b 401 -4 500 1 454 -4 b 286 6 360 -4 321 -1 z m 343 708 b 353 747 344 721 349 733 l 363 747 b 353 708 358 733 354 721 z m 368 228 b 419 174 368 196 389 174 b 515 281 460 174 481 206 b 549 396 528 308 549 365 b 500 446 549 426 529 446 b 399 333 457 446 431 404 b 368 228 392 317 368 261 z m 378 231 b 382 254 378 238 379 246 l 392 254 b 388 231 389 244 388 238 z m 385 818 b 456 900 403 849 426 876 l 472 900 b 397 818 440 876 415 849 z m 386 603 b 531 676 421 657 479 692 b 563 747 538 701 543 717 b 386 689 492 714 443 704 b 386 603 382 678 379 636 z m 399 228 b 426 321 399 247 411 286 b 500 415 460 396 479 415 b 518 396 513 415 518 408 b 488 293 518 374 501 324 b 419 204 453 217 439 204 b 399 228 407 204 399 211 z m 399 743 b 863 890 522 799 742 868 b 803 918 847 903 822 913 b 532 832 782 904 589 832 b 515 843 522 832 515 833 b 718 931 517 885 718 928 b 399 743 583 931 471 888 z m 482 256 l 497 289 b 511 322 501 299 507 310 l 521 322 b 506 285 517 308 511 296 b 492 256 501 274 496 264 z m 517 222 b 696 303 524 221 601 303 b 738 276 735 303 732 276 b 731 404 749 328 746 368 b 632 332 726 404 733 332 b 578 375 583 332 583 375 b 517 222 569 328 551 271 z m 518 344 b 528 383 522 358 526 372 l 538 383 b 528 344 536 372 532 358 z m 532 588 b 583 533 532 556 553 533 b 679 640 624 533 644 565 b 713 756 692 668 713 725 b 664 806 713 786 693 806 b 563 693 621 806 594 764 b 532 588 556 676 532 621 z m 542 586 l 542 588 b 547 622 542 596 544 608 l 557 622 b 551 588 554 608 551 596 l 551 586 z m 563 588 b 590 681 563 607 575 646 b 664 775 624 756 643 775 b 682 756 676 775 682 768 b 651 653 682 733 665 683 b 583 564 617 576 603 564 b 563 588 571 564 563 571 z m 663 651 b 692 743 674 678 688 718 l 701 743 b 672 651 697 718 685 678 z m 718 672 b 867 783 722 672 781 783 b 901 744 900 783 897 744 b 890 854 911 794 903 839 b 731 793 849 831 754 800 b 718 672 747 771 736 717 z m 749 450 l 761 450 b 776 417 767 439 772 428 l 765 417 b 749 450 761 428 756 439 z m 922 871 l 933 871 b 947 828 939 857 944 843 l 938 828 b 922 871 935 843 929 858 z "},"9":{"ha":707,"x_min":0,"x_max":0,"o":"m 317 -14 b 856 419 619 -14 739 133 b 935 758 901 532 935 643 b 672 986 935 907 844 986 b 276 681 497 986 388 925 b 364 317 199 511 188 317 b 526 399 413 317 475 346 l 519 383 b 340 260 488 314 428 260 b 181 304 271 260 210 285 l 65 46 b 317 -14 115 15 208 -14 z m 106 60 l 194 261 b 340 229 232 244 283 229 b 469 271 389 229 432 243 b 563 431 501 294 556 354 l 519 432 b 364 347 479 382 417 347 b 272 388 319 347 290 361 b 256 506 256 415 250 456 b 304 668 261 556 278 611 b 468 900 357 783 408 857 b 672 956 522 939 583 956 b 847 904 750 956 810 939 b 904 758 885 872 904 824 b 826 431 904 663 881 561 b 636 118 763 274 706 181 b 503 43 597 85 553 60 b 317 17 450 25 389 17 b 176 35 269 17 221 22 b 106 60 150 42 126 50 z m 147 76 b 340 42 214 49 267 42 b 614 135 444 42 554 79 b 342 60 590 135 507 60 b 201 132 240 60 201 81 b 238 214 201 164 221 196 l 211 222 z m 213 6 l 217 15 b 322 7 249 10 283 7 b 374 8 342 7 354 7 l 369 -1 b 315 -3 351 -3 333 -3 b 213 6 282 -3 247 0 z m 233 490 l 243 490 b 247 422 242 465 243 443 l 238 422 b 233 490 233 443 232 465 z m 267 631 b 286 676 272 646 279 661 l 307 721 l 318 721 b 294 672 310 706 303 689 b 276 631 288 658 282 644 z m 283 532 b 464 658 289 532 339 658 b 503 647 481 658 497 653 b 553 750 515 683 531 719 b 333 667 471 714 406 689 b 283 532 317 639 296 582 z m 321 332 l 325 340 b 363 336 336 338 349 336 b 463 369 394 336 431 349 l 458 357 b 363 328 428 339 393 328 b 321 332 347 328 333 329 z m 365 733 b 826 886 492 797 704 868 b 768 917 813 900 789 911 b 542 842 749 904 600 843 b 517 857 525 842 517 846 b 685 931 515 903 685 928 b 471 864 592 931 535 918 b 365 733 436 836 393 782 z m 371 206 b 393 200 375 203 386 200 b 685 304 521 200 583 304 b 721 278 725 304 717 278 b 800 447 754 336 785 399 b 629 332 793 447 728 332 b 592 390 579 332 594 390 b 371 206 533 254 460 211 z m 374 833 b 435 900 393 860 414 882 l 450 900 b 386 833 428 883 407 861 z m 414 3 l 418 11 b 488 26 443 15 465 19 l 483 17 b 414 3 461 11 439 6 z m 474 300 b 515 353 488 313 503 331 l 525 353 b 486 300 514 332 500 314 z m 511 488 b 561 463 517 478 532 463 l 594 463 l 633 557 b 690 731 685 681 690 713 b 676 768 690 749 683 761 b 640 782 671 774 658 782 b 540 668 596 782 569 736 b 511 488 504 578 488 521 z m 513 517 b 515 556 511 528 513 542 l 524 556 b 521 517 521 540 519 528 z m 561 493 b 569 657 510 493 532 565 b 640 751 597 725 618 751 b 660 731 653 751 660 744 b 604 568 660 713 643 663 l 574 493 z m 621 581 l 650 654 l 660 654 b 631 581 651 633 643 608 z m 660 682 b 669 717 664 696 668 707 l 679 717 b 669 682 678 707 674 696 z m 683 790 b 713 683 721 775 722 743 b 839 786 736 724 776 786 b 879 753 875 786 875 753 b 854 849 882 794 869 833 b 683 790 831 832 744 804 z m 889 869 l 900 869 b 918 822 908 856 914 839 l 908 822 b 889 869 904 839 897 856 z "}," ":{"ha":181,"x_min":0,"x_max":0,"o":""}," ":{"ha":181,"x_min":0,"x_max":0,"o":""},"A":{"ha":732,"x_min":0,"x_max":0,"o":"m -54 0 l 265 0 l 340 125 l 507 125 l 468 0 l 774 0 l 1001 972 l 590 972 z m 6 31 l 611 943 l 963 943 l 747 31 l 511 31 l 551 161 l 324 161 l 246 31 z m 54 57 l 219 57 b 122 97 213 79 122 54 b 422 294 122 194 279 294 l 571 294 b 611 265 607 294 617 288 l 604 239 b 743 304 610 239 667 304 b 778 278 776 304 774 278 l 824 476 b 690 332 815 476 769 332 b 649 390 650 332 651 390 l 638 342 b 599 315 632 318 622 315 l 408 315 b 396 342 386 315 385 324 l 457 440 b 283 318 450 440 365 318 b 263 369 240 318 263 367 z m 57 11 l 64 21 l 226 21 l 219 11 z m 158 300 l 268 465 l 282 465 l 171 300 z m 338 571 l 349 586 l 361 586 l 350 571 z m 361 525 b 538 644 375 525 456 644 b 571 619 568 644 567 619 l 647 740 b 465 678 594 714 514 686 z m 376 628 l 458 751 l 471 751 l 389 628 z m 413 138 l 418 147 l 514 147 l 510 138 z m 435 346 l 607 346 l 682 615 l 733 788 l 708 788 z m 488 406 l 522 463 l 532 463 l 497 406 z m 493 378 l 597 549 l 669 674 l 579 378 z m 500 61 l 511 97 l 521 97 l 510 61 z m 510 829 l 571 922 l 583 922 l 522 829 z m 511 742 b 913 867 649 806 803 844 l 922 910 b 617 842 836 875 617 808 b 817 917 617 869 747 899 l 626 917 z m 549 57 l 726 57 b 651 74 719 68 693 69 b 589 119 604 79 589 90 b 581 169 589 147 593 169 z m 561 11 l 564 21 l 732 21 l 729 11 z m 613 439 l 636 522 l 644 522 l 621 439 z m 650 569 l 658 599 l 667 599 l 658 569 z m 717 633 b 844 725 722 633 758 725 b 874 683 876 725 871 683 l 904 815 b 753 765 863 792 797 771 z m 943 814 l 957 872 l 968 872 l 954 814 z "},"Á":{"ha":732,"x_min":0,"x_max":0,"o":"m -54 0 l 265 0 l 340 125 l 507 125 l 468 0 l 774 0 l 1001 972 l 590 972 z m 7 32 l 611 943 l 963 943 l 749 32 l 513 32 l 551 161 l 324 161 l 247 32 z m 54 57 l 219 57 b 122 97 213 79 122 54 b 422 294 122 194 279 294 l 571 294 b 611 265 607 294 617 288 l 604 239 b 743 304 610 239 667 304 b 778 278 776 304 774 278 l 824 476 b 690 332 815 476 769 332 b 649 390 650 332 651 390 l 638 342 b 599 315 632 318 622 315 l 408 315 b 396 342 386 315 385 324 l 457 440 b 283 318 450 440 365 318 b 263 369 240 318 263 367 z m 57 11 l 64 21 l 226 21 l 219 11 z m 158 300 l 268 465 l 282 465 l 171 300 z m 338 571 l 349 586 l 361 586 l 350 571 z m 361 525 b 538 644 375 525 456 644 b 571 619 568 644 567 619 l 647 740 b 465 678 594 714 514 686 z m 376 628 l 458 751 l 471 751 l 389 628 z m 413 138 l 418 147 l 514 147 l 510 138 z m 435 346 l 607 346 l 682 615 l 733 788 l 708 788 z m 488 406 l 522 463 l 532 463 l 497 406 z m 493 378 l 597 549 l 669 674 l 579 378 z m 500 61 l 511 97 l 521 97 l 510 61 z m 510 829 l 571 922 l 583 922 l 522 829 z m 511 742 b 913 867 649 806 803 844 l 922 910 b 617 842 836 875 617 808 b 817 917 617 869 747 899 l 626 917 z m 549 57 l 726 57 b 651 74 719 68 693 69 b 589 119 604 79 589 90 b 581 169 589 147 593 169 z m 561 11 l 564 21 l 732 21 l 729 11 z m 613 439 l 636 522 l 644 522 l 621 439 z m 650 569 l 658 599 l 667 599 l 658 569 z m 717 633 b 844 725 722 633 758 725 b 874 683 876 725 871 683 l 904 815 b 753 765 863 792 797 771 z m 758 996 l 821 996 l 950 1113 l 840 1113 z m 811 1025 l 856 1086 l 882 1086 l 815 1025 z m 943 814 l 957 872 l 968 872 l 954 814 z "},"Â":{"ha":732,"x_min":0,"x_max":0,"o":"m -54 0 l 265 0 l 340 125 l 507 125 l 468 0 l 774 0 l 1001 972 l 590 972 z m 7 32 l 611 943 l 963 943 l 749 32 l 513 32 l 551 161 l 324 161 l 247 32 z m 54 57 l 219 57 b 122 97 213 79 122 54 b 422 294 122 194 279 294 l 571 294 b 611 265 607 294 617 288 l 604 239 b 743 304 610 239 667 304 b 778 278 776 304 774 278 l 824 476 b 690 332 815 476 769 332 b 649 390 650 332 651 390 l 638 342 b 599 315 632 318 622 315 l 408 315 b 396 342 386 315 385 324 l 457 440 b 283 318 450 440 365 318 b 263 369 240 318 263 367 z m 57 11 l 64 21 l 226 21 l 219 11 z m 158 300 l 268 465 l 282 465 l 171 300 z m 338 571 l 349 586 l 361 586 l 350 571 z m 361 525 b 538 644 375 525 456 644 b 571 619 568 644 567 619 l 647 740 b 465 678 594 714 514 686 z m 376 628 l 458 751 l 471 751 l 389 628 z m 413 138 l 418 147 l 514 147 l 510 138 z m 435 346 l 607 346 l 682 615 l 733 788 l 708 788 z m 488 406 l 522 463 l 532 463 l 497 406 z m 493 378 l 597 549 l 669 674 l 579 378 z m 500 61 l 511 97 l 521 97 l 510 61 z m 510 829 l 571 922 l 583 922 l 522 829 z m 511 742 b 913 867 649 806 803 844 l 922 910 b 617 842 836 875 617 808 b 817 917 617 869 747 899 l 626 917 z m 549 57 l 726 57 b 651 74 719 68 693 69 b 589 119 604 79 589 90 b 581 169 589 147 593 169 z m 561 11 l 564 21 l 732 21 l 729 11 z m 613 439 l 636 522 l 644 522 l 621 439 z m 650 569 l 658 599 l 667 599 l 658 569 z m 651 1014 l 772 1014 l 842 1094 l 871 1014 l 961 1014 l 882 1131 l 814 1131 z m 717 633 b 844 725 722 633 758 725 b 874 683 876 725 871 683 l 904 815 b 753 765 863 792 797 771 z m 731 1038 b 804 1094 754 1057 785 1085 l 810 1094 l 753 1038 z m 879 1063 l 894 1064 b 914 1038 901 1054 908 1046 l 892 1038 z m 943 814 l 957 872 l 968 872 l 954 814 z "},"Ä":{"ha":732,"x_min":0,"x_max":0,"o":"m -54 0 l 265 0 l 340 125 l 507 125 l 468 0 l 774 0 l 1001 972 l 590 972 z m 7 32 l 611 943 l 963 943 l 749 32 l 513 32 l 551 161 l 324 161 l 247 32 z m 54 57 l 219 57 b 122 97 213 79 122 54 b 422 294 122 194 279 294 l 571 294 b 611 265 607 294 617 288 l 604 239 b 743 304 610 239 667 304 b 778 278 776 304 774 278 l 824 476 b 690 332 815 476 769 332 b 649 390 650 332 651 390 l 638 342 b 599 315 632 318 622 315 l 408 315 b 396 342 386 315 385 324 l 457 440 b 283 318 450 440 365 318 b 263 369 240 318 263 367 z m 57 11 l 64 21 l 226 21 l 219 11 z m 158 300 l 268 465 l 282 465 l 171 300 z m 338 571 l 349 586 l 361 586 l 350 571 z m 361 525 b 538 644 375 525 456 644 b 571 619 568 644 567 619 l 647 740 b 465 678 594 714 514 686 z m 376 628 l 458 751 l 471 751 l 389 628 z m 413 138 l 418 147 l 514 147 l 510 138 z m 435 346 l 607 346 l 682 615 l 733 788 l 708 788 z m 488 406 l 522 463 l 532 463 l 497 406 z m 493 378 l 597 549 l 669 674 l 579 378 z m 500 61 l 511 97 l 521 97 l 510 61 z m 510 829 l 571 922 l 583 922 l 522 829 z m 511 742 b 913 867 649 806 803 844 l 922 910 b 617 842 836 875 617 808 b 817 917 617 869 747 899 l 626 917 z m 544 1014 l 781 1014 l 810 1079 l 574 1079 z m 549 57 l 726 57 b 651 74 719 68 693 69 b 589 119 604 79 589 90 b 581 169 589 147 593 169 z m 561 11 l 564 21 l 732 21 l 729 11 z m 585 1040 l 590 1053 l 635 1053 l 629 1040 z m 613 439 l 636 522 l 644 522 l 621 439 z m 650 569 l 658 599 l 667 599 l 658 569 z m 656 1040 l 661 1053 l 769 1053 l 764 1040 z m 717 633 b 844 725 722 633 758 725 b 874 683 876 725 871 683 l 904 815 b 753 765 863 792 797 771 z m 836 1014 l 1072 1014 l 1101 1079 l 865 1079 z m 876 1040 l 882 1053 l 1061 1053 l 1056 1040 z m 943 814 l 957 872 l 968 872 l 954 814 z "},"À":{"ha":732,"x_min":0,"x_max":0,"o":"m -54 0 l 265 0 l 340 125 l 507 125 l 468 0 l 774 0 l 1001 972 l 590 972 z m 7 32 l 611 943 l 963 943 l 749 32 l 513 32 l 551 161 l 324 161 l 247 32 z m 54 57 l 219 57 b 122 97 213 79 122 54 b 422 294 122 194 279 294 l 571 294 b 611 265 607 294 617 288 l 604 239 b 743 304 610 239 667 304 b 778 278 776 304 774 278 l 824 476 b 690 332 815 476 769 332 b 649 390 650 332 651 390 l 638 342 b 599 315 632 318 622 315 l 408 315 b 396 342 386 315 385 324 l 457 440 b 283 318 450 440 365 318 b 263 369 240 318 263 367 z m 57 11 l 64 21 l 226 21 l 219 11 z m 158 300 l 268 465 l 282 465 l 171 300 z m 338 571 l 349 586 l 361 586 l 350 571 z m 361 525 b 538 644 375 525 456 644 b 571 619 568 644 567 619 l 647 740 b 465 678 594 714 514 686 z m 376 628 l 458 751 l 471 751 l 389 628 z m 413 138 l 418 147 l 514 147 l 510 138 z m 435 346 l 607 346 l 682 615 l 733 788 l 708 788 z m 488 406 l 522 463 l 532 463 l 497 406 z m 493 378 l 597 549 l 669 674 l 579 378 z m 500 61 l 511 97 l 521 97 l 510 61 z m 510 829 l 571 922 l 583 922 l 522 829 z m 511 742 b 913 867 649 806 803 844 l 922 910 b 617 842 836 875 617 808 b 817 917 617 869 747 899 l 626 917 z m 549 57 l 726 57 b 651 74 719 68 693 69 b 589 119 604 79 589 90 b 581 169 589 147 593 169 z m 561 11 l 564 21 l 732 21 l 729 11 z m 613 439 l 636 522 l 644 522 l 621 439 z m 650 569 l 658 599 l 667 599 l 658 569 z m 711 1113 l 776 996 l 839 996 l 821 1113 z m 717 633 b 844 725 722 633 758 725 b 874 683 876 725 871 683 l 904 815 b 753 765 863 792 797 771 z m 764 1086 l 790 1086 l 801 1025 l 797 1025 z m 943 814 l 957 872 l 968 872 l 954 814 z "},"Å":{"ha":732,"x_min":0,"x_max":0,"o":"m -54 0 l 265 0 l 340 125 l 507 125 l 468 0 l 774 0 l 1001 972 l 590 972 z m 7 32 l 611 943 l 963 943 l 749 32 l 513 32 l 551 161 l 324 161 l 247 32 z m 54 57 l 219 57 b 122 97 213 79 122 54 b 422 294 122 194 279 294 l 571 294 b 611 265 607 294 617 288 l 604 239 b 743 304 610 239 667 304 b 778 278 776 304 774 278 l 824 476 b 690 332 815 476 769 332 b 649 390 650 332 651 390 l 638 342 b 599 315 632 318 622 315 l 408 315 b 396 342 386 315 385 324 l 457 440 b 283 318 450 440 365 318 b 263 369 240 318 263 367 z m 57 11 l 64 21 l 226 21 l 219 11 z m 158 300 l 268 465 l 282 465 l 171 300 z m 338 571 l 349 586 l 361 586 l 350 571 z m 361 525 b 538 644 375 525 456 644 b 571 619 568 644 567 619 l 647 740 b 465 678 594 714 514 686 z m 376 628 l 458 751 l 471 751 l 389 628 z m 413 138 l 418 147 l 514 147 l 510 138 z m 435 346 l 607 346 l 682 615 l 733 788 l 708 788 z m 488 406 l 522 463 l 532 463 l 497 406 z m 493 378 l 597 549 l 669 674 l 579 378 z m 500 61 l 511 97 l 521 97 l 510 61 z m 510 829 l 571 922 l 583 922 l 522 829 z m 511 742 b 913 867 649 806 803 844 l 922 910 b 617 842 836 875 617 808 b 817 917 617 869 747 899 l 626 917 z m 549 57 l 726 57 b 651 74 719 68 693 69 b 589 119 604 79 589 90 b 581 169 589 147 593 169 z m 561 11 l 564 21 l 732 21 l 729 11 z m 613 439 l 636 522 l 644 522 l 621 439 z m 650 569 l 658 599 l 667 599 l 658 569 z m 701 1065 b 819 1007 701 1026 744 1007 b 949 1074 883 1007 947 1022 b 840 1135 950 1115 911 1135 b 701 1065 776 1136 701 1121 z m 717 633 b 844 725 722 633 758 725 b 874 683 876 725 871 683 l 904 815 b 753 765 863 792 797 771 z m 717 1065 b 722 1086 717 1074 718 1079 l 733 1086 b 726 1065 729 1081 726 1074 b 729 1054 726 1061 728 1057 l 718 1054 b 717 1065 717 1057 717 1061 z m 740 1067 b 840 1099 740 1092 779 1099 b 911 1075 894 1099 911 1089 b 819 1043 911 1054 878 1043 b 740 1067 760 1043 740 1051 z m 760 1026 l 764 1035 b 819 1031 778 1032 796 1031 b 881 1036 843 1031 864 1032 l 876 1025 b 819 1021 860 1022 840 1021 b 760 1026 796 1021 776 1022 z m 943 814 l 957 872 l 968 872 l 954 814 z "},"Ã":{"ha":732,"x_min":0,"x_max":0,"o":"m -54 0 l 265 0 l 340 125 l 507 125 l 468 0 l 774 0 l 1001 972 l 590 972 z m 7 32 l 611 943 l 963 943 l 749 32 l 513 32 l 551 161 l 324 161 l 247 32 z m 54 57 l 219 57 b 122 97 213 79 122 54 b 422 294 122 194 279 294 l 571 294 b 611 265 607 294 617 288 l 604 239 b 743 304 610 239 667 304 b 778 278 776 304 774 278 l 824 476 b 690 332 815 476 769 332 b 649 390 650 332 651 390 l 638 342 b 599 315 632 318 622 315 l 408 315 b 396 342 386 315 385 324 l 457 440 b 283 318 450 440 365 318 b 263 369 240 318 263 367 z m 57 11 l 64 21 l 226 21 l 219 11 z m 158 300 l 268 465 l 282 465 l 171 300 z m 338 571 l 349 586 l 361 586 l 350 571 z m 361 525 b 538 644 375 525 456 644 b 571 619 568 644 567 619 l 647 740 b 465 678 594 714 514 686 z m 376 628 l 458 751 l 471 751 l 389 628 z m 413 138 l 418 147 l 514 147 l 510 138 z m 435 346 l 607 346 l 682 615 l 733 788 l 708 788 z m 488 406 l 522 463 l 532 463 l 497 406 z m 493 378 l 597 549 l 669 674 l 579 378 z m 500 61 l 511 97 l 521 97 l 510 61 z m 510 829 l 571 922 l 583 922 l 522 829 z m 511 742 b 913 867 649 806 803 844 l 922 910 b 617 842 836 875 617 808 b 817 917 617 869 747 899 l 626 917 z m 549 57 l 726 57 b 651 74 719 68 693 69 b 589 119 604 79 589 90 b 581 169 589 147 593 169 z m 561 11 l 564 21 l 732 21 l 729 11 z m 613 439 l 636 522 l 644 522 l 621 439 z m 650 569 l 658 599 l 667 599 l 658 569 z m 663 996 l 736 996 l 776 1064 l 800 1024 b 854 996 810 1007 825 996 b 926 1033 888 996 906 1007 l 989 1113 l 915 1113 l 868 1036 l 843 1078 b 794 1113 828 1103 817 1113 b 726 1076 767 1113 749 1106 z m 706 1017 l 731 1049 l 740 1047 l 724 1017 z m 717 633 b 844 725 722 633 758 725 b 874 683 876 725 871 683 l 904 815 b 753 765 863 792 797 771 z m 790 1086 l 808 1086 l 846 1022 l 835 1022 z m 899 1051 l 928 1094 l 947 1094 l 913 1051 z m 943 814 l 957 872 l 968 872 l 954 814 z "},"B":{"ha":663,"x_min":0,"x_max":0,"o":"m 8 0 l 393 0 b 810 329 713 0 810 219 b 729 463 810 393 794 438 b 968 765 883 518 968 656 b 688 972 968 900 881 972 l 451 972 z m 58 33 l 472 942 l 688 942 b 936 767 824 942 936 906 b 874 604 936 713 914 654 b 664 472 825 542 756 496 l 661 464 b 778 331 728 453 778 410 b 760 244 778 306 771 275 b 393 33 703 96 550 33 z m 100 57 l 389 57 b 671 157 497 57 600 86 b 390 74 647 151 563 74 l 197 74 b 146 99 156 74 146 79 b 335 304 146 172 250 304 b 368 278 372 304 364 278 l 458 464 b 285 332 450 464 365 332 b 250 390 242 332 253 390 l 133 129 z m 132 246 l 157 299 l 168 299 l 143 246 z m 138 11 l 143 21 l 390 21 l 385 11 z m 200 392 l 278 565 l 289 565 l 210 392 z m 314 538 b 519 675 321 538 413 675 b 546 664 539 675 543 664 l 585 751 b 386 690 521 731 446 706 z m 331 678 l 350 721 l 361 721 l 342 678 z m 371 218 l 435 218 b 586 385 526 218 586 311 b 485 465 586 429 572 463 z m 407 265 l 422 297 l 433 297 l 418 265 z m 407 846 l 442 922 l 451 922 l 417 846 z m 411 749 b 865 872 528 796 740 857 b 778 908 849 888 814 903 b 486 832 740 879 486 792 b 676 917 486 883 676 911 l 492 917 z m 425 11 l 431 22 b 499 32 454 24 478 28 l 493 19 b 425 11 471 15 449 13 z m 425 251 l 506 426 b 551 383 538 424 551 411 b 435 251 551 321 510 251 z m 507 517 l 576 517 b 722 683 664 517 721 618 b 619 763 724 746 685 760 z m 528 221 b 714 304 550 221 639 304 b 746 285 732 304 742 294 b 746 367 756 310 756 351 b 650 333 732 351 699 333 b 614 381 615 333 619 381 b 528 221 608 310 569 251 z m 542 561 l 560 600 l 571 600 l 553 561 z m 549 315 b 565 385 560 338 565 363 b 564 400 565 390 565 394 l 574 400 b 575 385 575 394 575 390 b 558 315 575 363 569 338 z m 561 550 l 642 726 b 688 685 679 722 688 710 b 576 550 688 633 646 550 z m 674 600 b 700 683 689 625 699 657 l 700 690 l 710 690 l 710 683 b 685 600 708 657 700 626 z m 685 778 b 753 696 718 769 753 746 b 751 679 753 690 751 679 b 871 767 757 679 796 767 b 908 739 906 767 906 739 b 911 768 910 744 911 761 b 889 840 911 796 904 821 b 685 778 854 818 768 792 z m 765 414 l 776 414 b 793 378 785 403 790 392 l 783 378 b 765 414 779 390 774 403 z m 932 844 l 943 844 b 954 807 949 832 953 821 l 943 807 b 932 844 942 821 938 833 z "},"C":{"ha":693,"x_min":0,"x_max":0,"o":"m 431 -17 b 878 443 629 -17 758 138 l 586 443 b 463 231 514 264 479 231 b 450 256 451 231 450 242 b 665 718 454 350 615 651 b 690 736 675 731 683 736 b 704 719 699 736 704 731 b 610 496 704 692 676 632 l 903 496 b 982 746 943 561 979 658 b 740 988 988 897 897 988 b 282 614 518 988 408 857 b 167 264 200 461 169 347 b 431 -17 160 72 271 -17 z m 181 310 b 214 442 186 351 197 394 l 226 442 b 190 310 206 388 197 354 z m 197 269 b 310 600 201 360 238 468 b 499 868 378 732 436 814 b 747 956 568 928 647 956 b 951 746 879 956 957 881 b 886 526 949 667 915 582 l 660 526 b 733 725 715 644 732 688 b 700 768 733 751 722 768 b 629 717 675 768 654 753 b 514 513 600 678 563 611 b 419 256 436 354 421 296 b 456 200 418 218 429 200 b 528 253 489 200 511 229 b 606 413 550 286 575 338 l 832 413 b 660 121 776 276 721 183 b 432 15 590 49 528 17 b 197 269 329 15 190 63 z m 225 267 b 429 40 219 99 317 40 b 639 135 519 40 581 74 b 436 58 617 133 563 58 b 261 186 324 58 258 117 b 360 276 263 244 304 276 b 396 257 389 276 392 257 b 450 435 397 299 414 363 b 285 306 440 435 378 306 b 232 344 229 306 236 344 b 225 267 229 318 226 293 z m 263 553 b 276 576 268 560 271 568 l 285 576 b 272 553 281 568 278 560 z m 300 532 b 511 658 306 532 382 658 b 550 647 528 658 544 653 b 625 760 581 699 610 746 b 368 661 533 719 440 683 b 300 532 351 633 329 586 z m 329 676 b 358 729 339 694 349 713 l 369 729 b 340 676 360 713 350 694 z m 343 6 l 346 15 b 431 4 372 8 400 4 b 522 17 464 4 493 8 l 519 6 b 431 -6 490 -1 463 -6 b 343 6 399 -6 368 -1 z m 415 729 b 881 882 542 797 754 864 b 819 918 860 901 840 913 b 582 851 796 903 582 814 b 749 931 582 899 749 928 b 517 846 656 931 581 900 b 415 729 482 818 449 781 z m 440 838 b 488 885 456 856 471 871 b 514 907 496 893 504 900 l 532 907 b 493 876 519 897 506 888 b 454 838 479 865 467 853 z m 443 318 b 458 361 447 331 451 344 l 469 361 b 454 318 463 344 458 331 z m 538 221 b 714 304 539 219 611 304 b 747 289 736 304 742 296 b 794 383 756 303 786 367 b 653 335 776 372 721 335 b 619 381 606 335 624 381 b 538 221 597 329 561 256 z m 540 317 b 581 404 551 336 572 388 l 592 404 b 553 317 585 388 563 336 z m 553 17 l 556 29 l 585 44 l 582 32 b 553 17 572 26 563 21 z m 649 553 b 679 617 661 578 672 599 l 690 617 b 660 553 683 599 672 578 z m 694 651 b 701 671 697 658 700 665 l 711 671 l 704 651 z m 722 790 b 750 672 774 781 765 717 b 886 785 758 671 801 785 b 924 746 922 785 919 746 b 903 849 929 799 915 833 b 722 790 878 831 788 803 z m 732 506 l 740 517 l 868 517 l 860 506 z m 949 844 l 958 844 b 969 797 964 831 968 814 l 960 797 b 949 844 958 814 954 831 z "},"Ć":{"ha":693,"x_min":0,"x_max":0,"o":"m 431 -17 b 878 443 629 -17 758 138 l 586 443 b 463 231 514 264 479 231 b 450 256 451 231 450 242 b 665 718 454 350 615 651 b 690 736 675 731 683 736 b 704 719 699 736 704 731 b 610 496 704 692 676 632 l 903 496 b 982 746 943 561 979 658 b 740 988 988 897 897 988 b 282 614 518 988 408 857 b 167 264 200 461 169 347 b 431 -17 160 72 271 -17 z m 181 310 b 214 442 186 351 197 394 l 226 442 b 190 310 206 388 197 354 z m 197 269 b 310 600 201 360 238 468 b 499 868 378 732 436 814 b 747 956 568 928 647 956 b 951 746 879 956 957 881 b 886 526 949 667 915 582 l 660 526 b 733 725 715 644 732 688 b 700 768 733 751 722 768 b 629 717 675 768 654 753 b 514 513 600 678 563 611 b 419 256 436 354 421 296 b 456 200 418 218 429 200 b 528 253 489 200 511 229 b 606 413 550 286 575 338 l 832 413 b 660 121 776 276 721 183 b 432 15 590 49 528 17 b 197 269 329 15 190 63 z m 225 267 b 429 40 219 99 317 40 b 639 135 519 40 581 74 b 436 58 617 133 563 58 b 261 186 324 58 258 117 b 360 276 263 244 304 276 b 396 257 389 276 392 257 b 450 435 397 299 414 363 b 285 306 440 435 378 306 b 232 344 229 306 236 344 b 225 267 229 318 226 293 z m 263 553 b 276 576 268 560 271 568 l 285 576 b 272 553 281 568 278 560 z m 300 532 b 511 658 306 532 382 658 b 550 647 528 658 544 653 b 625 760 581 699 610 746 b 368 661 533 719 440 683 b 300 532 351 633 329 586 z m 329 676 b 358 729 339 694 349 713 l 369 729 b 340 676 360 713 350 694 z m 343 6 l 346 15 b 431 4 372 8 400 4 b 522 17 464 4 493 8 l 519 6 b 431 -6 490 -1 463 -6 b 343 6 399 -6 368 -1 z m 415 729 b 881 882 542 797 754 864 b 819 918 860 901 840 913 b 582 851 796 903 582 814 b 749 931 582 899 749 928 b 517 846 656 931 581 900 b 415 729 482 818 449 781 z m 440 838 b 488 885 456 856 471 871 b 514 907 496 893 504 900 l 532 907 b 493 876 519 897 506 888 b 454 838 479 865 467 853 z m 443 318 b 458 361 447 331 451 344 l 469 361 b 454 318 463 344 458 331 z m 538 221 b 714 304 539 219 611 304 b 747 289 736 304 742 296 b 794 383 756 303 786 367 b 653 335 776 372 721 335 b 619 381 606 335 624 381 b 538 221 597 329 561 256 z m 540 317 b 581 404 551 336 572 388 l 592 404 b 553 317 585 388 563 336 z m 553 17 l 556 29 l 585 44 l 582 32 b 553 17 572 26 563 21 z m 649 553 b 679 617 661 578 672 599 l 690 617 b 660 553 683 599 672 578 z m 694 651 b 701 671 697 658 700 665 l 711 671 l 704 651 z m 710 996 l 772 996 l 901 1113 l 792 1113 z m 722 790 b 750 672 774 781 765 717 b 886 785 758 671 801 785 b 924 746 922 785 919 746 b 903 849 929 799 915 833 b 722 790 878 831 788 803 z m 732 506 l 740 517 l 868 517 l 860 506 z m 763 1025 l 807 1086 l 833 1086 l 767 1025 z m 949 844 l 958 844 b 969 797 964 831 968 814 l 960 797 b 949 844 958 814 954 831 z "},"Č":{"ha":693,"x_min":0,"x_max":0,"o":"m 431 -17 b 878 443 629 -17 758 138 l 586 443 b 463 231 514 264 479 231 b 450 256 451 231 450 242 b 665 718 454 350 615 651 b 690 736 675 731 683 736 b 704 719 699 736 704 731 b 610 496 704 692 676 632 l 903 496 b 982 746 943 561 979 658 b 740 988 988 897 897 988 b 282 614 518 988 408 857 b 167 264 200 461 169 347 b 431 -17 160 72 271 -17 z m 181 310 b 214 442 186 351 197 394 l 226 442 b 190 310 206 388 197 354 z m 197 269 b 310 600 201 360 238 468 b 499 868 378 732 436 814 b 747 956 568 928 647 956 b 951 746 879 956 957 881 b 886 526 949 667 915 582 l 660 526 b 733 725 715 644 732 688 b 700 768 733 751 722 768 b 629 717 675 768 654 753 b 514 513 600 678 563 611 b 419 256 436 354 421 296 b 456 200 418 218 429 200 b 528 253 489 200 511 229 b 606 413 550 286 575 338 l 832 413 b 660 121 776 276 721 183 b 432 15 590 49 528 17 b 197 269 329 15 190 63 z m 225 267 b 429 40 219 99 317 40 b 639 135 519 40 581 74 b 436 58 617 133 563 58 b 261 186 324 58 258 117 b 360 276 263 244 304 276 b 396 257 389 276 392 257 b 450 435 397 299 414 363 b 285 306 440 435 378 306 b 232 344 229 306 236 344 b 225 267 229 318 226 293 z m 263 553 b 276 576 268 560 271 568 l 285 576 b 272 553 281 568 278 560 z m 300 532 b 511 658 306 532 382 658 b 550 647 528 658 544 653 b 625 760 581 699 610 746 b 368 661 533 719 440 683 b 300 532 351 633 329 586 z m 329 676 b 358 729 339 694 349 713 l 369 729 b 340 676 360 713 350 694 z m 343 6 l 346 15 b 431 4 372 8 400 4 b 522 17 464 4 493 8 l 519 6 b 431 -6 490 -1 463 -6 b 343 6 399 -6 368 -1 z m 415 729 b 881 882 542 797 754 864 b 819 918 860 901 840 913 b 582 851 796 903 582 814 b 749 931 582 899 749 928 b 517 846 656 931 581 900 b 415 729 482 818 449 781 z m 440 838 b 488 885 456 856 471 871 b 514 907 496 893 504 900 l 532 907 b 493 876 519 897 506 888 b 454 838 479 865 467 853 z m 443 318 b 458 361 447 331 451 344 l 469 361 b 454 318 463 344 458 331 z m 538 221 b 714 304 539 219 611 304 b 747 289 736 304 742 296 b 794 383 756 303 786 367 b 653 335 776 372 721 335 b 619 381 606 335 624 381 b 538 221 597 329 561 256 z m 540 317 b 581 404 551 336 572 388 l 592 404 b 553 317 585 388 563 336 z m 553 17 l 556 29 l 585 44 l 582 32 b 553 17 572 26 563 21 z m 635 1113 l 714 996 l 782 996 l 944 1113 l 832 1113 l 760 1038 l 733 1113 z m 649 553 b 679 617 661 578 672 599 l 690 617 b 660 553 683 599 672 578 z m 686 1089 l 708 1089 l 732 1032 l 726 1032 b 686 1089 715 1042 700 1069 z m 694 651 b 701 671 697 658 700 665 l 711 671 l 704 651 z m 722 790 b 750 672 774 781 765 717 b 886 785 758 671 801 785 b 924 746 922 785 919 746 b 903 849 929 799 915 833 b 722 790 878 831 788 803 z m 732 506 l 740 517 l 868 517 l 860 506 z m 817 1064 l 843 1089 l 865 1089 l 831 1063 z m 949 844 l 958 844 b 969 797 964 831 968 814 l 960 797 b 949 844 958 814 954 831 z "},"Ç":{"ha":693,"x_min":0,"x_max":0,"o":"m 431 -17 b 878 443 629 -17 758 138 l 586 443 b 463 231 514 264 479 231 b 450 256 451 231 450 242 b 665 718 454 350 615 651 b 690 736 675 731 683 736 b 704 719 699 736 704 731 b 610 496 704 692 676 632 l 903 496 b 982 746 943 561 979 658 b 740 988 988 897 897 988 b 282 614 518 988 408 857 b 167 264 200 461 169 347 b 324 -1 161 118 224 32 l 283 -85 l 329 -97 b 385 -85 349 -87 365 -85 b 358 -137 428 -85 418 -137 b 257 -104 317 -137 282 -121 l 229 -168 b 338 -193 275 -189 301 -193 b 469 -99 428 -193 469 -150 b 399 -37 469 -51 432 -37 b 340 -49 376 -37 357 -42 l 361 -10 b 431 -17 383 -14 406 -17 z m 181 310 b 214 442 186 351 197 394 l 226 442 b 190 310 206 388 197 354 z m 197 269 b 310 600 201 360 238 468 b 499 868 378 732 436 814 b 747 956 568 928 647 956 b 951 746 879 956 957 881 b 886 526 949 667 915 582 l 660 526 b 733 725 715 644 732 688 b 700 768 733 751 722 768 b 629 717 675 768 654 753 b 514 513 600 678 563 611 b 419 256 436 354 421 296 b 456 200 418 218 429 200 b 528 253 489 200 511 229 b 606 413 550 286 575 338 l 832 413 b 660 121 776 276 721 183 b 432 15 590 49 528 17 b 197 269 329 15 190 63 z m 225 267 b 429 40 219 99 317 40 b 639 135 519 40 581 74 b 436 58 617 133 563 58 b 261 186 324 58 258 117 b 360 276 263 244 304 276 b 396 257 389 276 392 257 b 450 435 397 299 414 363 b 285 306 440 435 378 306 b 232 344 229 306 236 344 b 225 267 229 318 226 293 z m 260 -162 l 265 -150 b 304 -161 276 -154 289 -158 l 297 -174 b 260 -162 285 -171 272 -168 z m 263 553 b 276 576 268 560 271 568 l 285 576 b 272 553 281 568 278 560 z m 300 532 b 511 658 306 532 382 658 b 550 647 528 658 544 653 b 625 760 581 699 610 746 b 368 661 533 719 440 683 b 300 532 351 633 329 586 z m 328 -176 l 333 -164 l 353 -164 b 449 -125 425 -164 440 -124 b 346 -176 436 -156 403 -176 z m 329 -79 b 389 -58 333 -71 349 -58 b 428 -112 435 -58 447 -97 b 385 -68 433 -87 418 -68 b 329 -79 365 -68 349 -71 z m 329 676 b 358 729 339 694 349 713 l 369 729 b 340 676 360 713 350 694 z m 368 0 l 374 10 b 431 4 392 6 410 4 b 522 17 464 4 493 8 l 519 6 b 431 -6 490 -1 463 -6 b 368 0 408 -6 388 -4 z m 415 729 b 881 882 542 797 754 864 b 819 918 860 901 840 913 b 582 851 796 903 582 814 b 749 931 582 899 749 928 b 517 846 656 931 581 900 b 415 729 482 818 449 781 z m 440 838 b 488 885 456 856 471 871 b 514 907 496 893 504 900 l 532 907 b 493 876 519 897 506 888 b 454 838 479 865 467 853 z m 443 318 b 458 361 447 331 451 344 l 469 361 b 454 318 463 344 458 331 z m 538 221 b 714 304 539 219 611 304 b 747 289 736 304 742 296 b 794 383 756 303 786 367 b 653 335 776 372 721 335 b 619 381 606 335 624 381 b 538 221 597 329 561 256 z m 540 317 b 581 404 551 336 572 388 l 592 404 b 553 317 585 388 563 336 z m 553 17 l 556 29 l 585 44 l 582 32 b 553 17 572 26 563 21 z m 649 553 b 679 617 661 578 672 599 l 690 617 b 660 553 683 599 672 578 z m 694 651 b 701 671 697 658 700 665 l 711 671 l 704 651 z m 722 790 b 750 672 774 781 765 717 b 886 785 758 671 801 785 b 924 746 922 785 919 746 b 903 849 929 799 915 833 b 722 790 878 831 788 803 z m 732 506 l 740 517 l 868 517 l 860 506 z m 949 844 l 958 844 b 969 797 964 831 968 814 l 960 797 b 949 844 958 814 954 831 z "},"D":{"ha":718,"x_min":0,"x_max":0,"o":"m 15 0 l 429 0 b 875 357 646 0 763 121 b 964 707 950 506 964 624 b 699 972 964 888 857 972 l 458 972 z m 65 33 l 479 942 l 699 942 b 797 926 736 942 769 936 b 933 707 889 900 933 814 b 849 371 933 594 906 485 b 764 219 819 310 792 260 b 431 33 679 97 590 33 z m 104 57 l 429 57 b 653 133 510 57 568 60 b 478 74 635 133 569 74 l 243 74 b 147 103 189 74 147 71 b 329 286 147 161 260 286 b 375 258 372 286 372 258 l 456 440 b 281 317 450 443 379 317 b 246 369 240 317 250 369 z m 149 263 l 206 389 l 217 389 l 158 263 z m 211 13 b 214 17 213 14 213 15 l 218 22 l 450 22 l 446 13 z m 228 440 l 325 654 l 336 654 l 238 440 z m 321 538 b 532 675 328 538 425 675 b 558 664 551 675 556 664 l 600 758 b 393 690 533 731 453 706 z m 344 694 l 363 731 l 372 731 l 354 694 z m 382 215 l 463 215 b 533 261 488 215 508 229 b 640 456 563 299 597 363 b 722 689 708 603 722 651 b 667 753 722 719 704 753 l 626 753 z m 397 811 l 438 901 l 449 901 l 407 811 z m 417 749 b 846 868 533 796 721 853 b 781 903 829 883 813 892 b 492 832 742 874 492 796 b 683 917 492 883 683 911 l 497 917 z m 432 246 l 649 722 l 665 722 b 689 689 679 722 689 711 b 610 468 689 661 682 622 b 461 246 517 264 479 246 z m 435 303 l 449 332 l 458 332 l 444 303 z m 539 218 b 726 304 604 264 679 304 b 769 286 749 304 765 299 b 863 481 796 322 849 422 b 671 335 851 479 801 335 b 639 392 617 335 646 392 b 539 218 607 325 564 249 z m 565 351 b 594 410 575 368 585 389 l 606 410 b 576 351 594 388 586 368 z m 656 543 b 699 672 686 613 696 647 l 708 672 b 667 543 707 646 696 611 z m 688 774 b 749 694 725 768 749 736 b 744 653 749 676 747 665 b 861 771 751 651 789 771 b 904 732 893 771 900 732 b 869 835 906 760 888 817 b 688 774 828 817 744 786 z m 900 864 l 913 864 b 931 835 919 854 925 844 l 917 835 b 900 864 913 844 907 856 z "},"Ď":{"ha":718,"x_min":0,"x_max":0,"o":"m 15 0 l 429 0 b 875 357 646 0 763 121 b 964 707 950 506 964 624 b 699 972 964 888 857 972 l 458 972 z m 65 33 l 479 942 l 699 942 b 797 926 736 942 769 936 b 933 707 889 900 933 814 b 849 371 933 594 906 485 b 764 219 819 310 792 260 b 431 33 679 97 590 33 z m 104 57 l 429 57 b 653 133 510 57 568 60 b 478 74 635 133 569 74 l 243 74 b 147 103 189 74 147 71 b 329 286 147 161 260 286 b 375 258 372 286 372 258 l 456 440 b 281 317 450 442 379 317 b 246 369 240 317 250 369 z m 149 263 l 206 389 l 217 389 l 158 263 z m 211 13 b 214 17 213 14 213 15 l 218 22 l 450 22 l 446 13 z m 228 440 l 325 654 l 336 654 l 238 440 z m 321 538 b 532 675 328 538 425 675 b 558 664 551 675 556 664 l 600 758 b 393 690 533 731 453 706 z m 344 694 l 363 731 l 372 731 l 354 694 z m 382 215 l 463 215 b 533 261 488 215 508 229 b 640 456 563 299 597 363 b 722 689 708 603 722 651 b 667 753 722 719 704 753 l 626 753 z m 397 811 l 438 901 l 449 901 l 407 811 z m 417 749 b 846 868 533 796 721 853 b 781 903 829 883 813 892 b 492 832 742 874 492 796 b 683 917 492 883 683 911 l 497 917 z m 432 246 l 649 722 l 665 722 b 689 689 679 722 689 711 b 610 468 689 661 682 622 b 461 246 517 264 479 246 z m 435 303 l 449 332 l 458 332 l 444 303 z m 539 218 b 726 304 604 264 679 304 b 769 286 749 304 765 299 b 863 481 796 322 849 422 b 671 335 857 479 801 335 b 639 392 617 335 646 392 b 539 218 607 325 564 249 z m 565 351 b 594 410 575 368 585 389 l 606 410 b 576 351 594 388 586 368 z m 610 1113 l 689 996 l 757 996 l 919 1113 l 807 1113 l 735 1038 l 708 1113 z m 656 543 b 699 672 686 613 696 647 l 708 672 b 667 543 707 646 696 611 z m 661 1089 l 683 1089 l 707 1032 l 701 1032 b 661 1089 690 1042 675 1069 z m 688 774 b 749 694 725 768 749 736 b 744 653 749 676 747 665 b 861 771 751 651 789 771 b 904 732 893 771 900 732 b 869 835 906 760 888 817 b 688 774 828 817 744 786 z m 792 1064 l 818 1089 l 840 1089 l 806 1063 z m 900 864 l 913 864 b 931 835 919 854 925 844 l 917 835 b 900 864 913 844 907 856 z "},"Đ":{"ha":749,"x_min":0,"x_max":0,"o":"m 46 0 l 460 0 b 906 357 676 0 793 121 b 994 707 981 506 994 624 b 729 972 994 888 888 972 l 489 972 l 290 531 l 258 531 l 226 463 l 257 463 z m 96 33 l 300 483 l 268 483 l 279 507 l 311 507 l 510 942 l 729 942 b 828 926 767 942 800 936 b 964 707 919 900 964 814 b 879 371 964 594 936 485 b 794 219 850 310 822 260 b 461 33 710 97 621 33 z m 135 57 l 460 57 b 683 133 540 57 599 60 b 508 74 665 133 600 74 l 274 74 b 178 103 219 74 178 71 b 360 286 178 161 290 286 b 406 258 403 286 403 258 l 486 440 b 311 317 481 442 410 317 b 276 369 271 317 281 369 z m 179 263 l 236 389 l 247 389 l 189 263 z m 242 13 b 244 17 243 14 243 15 l 249 22 l 481 22 l 476 13 z m 310 553 l 356 654 l 367 654 l 319 553 z m 351 538 b 563 675 358 538 456 675 b 589 664 582 675 586 664 l 631 758 b 424 690 564 731 483 706 z m 375 694 l 388 721 l 397 721 l 385 694 z m 413 215 l 493 215 b 564 261 518 215 539 229 b 671 456 593 299 628 363 b 753 689 739 603 753 651 b 697 753 753 719 735 753 l 657 753 l 546 507 l 593 507 l 581 481 l 533 481 z m 428 811 l 468 901 l 479 901 l 438 811 z m 447 749 b 876 868 564 796 751 853 b 811 903 860 883 843 892 b 522 832 772 874 522 796 b 714 917 522 883 714 911 l 528 917 z m 463 246 l 558 457 l 603 457 l 636 531 l 593 531 l 679 722 l 696 722 b 719 689 710 722 719 711 b 640 468 719 661 713 622 b 492 246 547 264 510 246 z m 465 303 l 479 332 l 489 332 l 475 303 z m 569 218 b 757 304 635 264 710 304 b 800 286 779 304 796 299 b 893 481 826 322 879 422 b 701 335 888 479 832 335 b 669 392 647 335 676 392 b 569 218 638 325 594 249 z m 596 351 b 625 410 606 368 615 389 l 636 410 b 607 351 625 388 617 368 z m 686 543 b 729 672 717 613 726 647 l 739 672 b 697 543 738 646 726 611 z m 718 774 b 779 694 756 768 779 736 b 775 653 779 676 778 665 b 892 771 782 651 819 771 b 935 732 924 771 931 732 b 900 835 936 760 918 817 b 718 774 858 817 775 786 z m 931 864 l 943 864 b 961 835 950 854 956 844 l 947 835 b 931 864 943 844 938 856 z "},"Ð":{"ha":749,"x_min":0,"x_max":0,"o":"m 46 0 l 460 0 b 906 357 676 0 793 121 b 994 707 981 506 994 624 b 729 972 994 888 888 972 l 489 972 l 290 531 l 258 531 l 226 463 l 257 463 z m 96 33 l 300 483 l 268 483 l 279 507 l 311 507 l 510 942 l 729 942 b 828 926 767 942 800 936 b 964 707 919 900 964 814 b 879 371 964 594 936 485 b 794 219 850 310 822 260 b 461 33 710 97 621 33 z m 135 57 l 460 57 b 683 133 540 57 599 60 b 508 74 665 133 600 74 l 274 74 b 178 103 219 74 178 71 b 360 286 178 161 290 286 b 406 258 403 286 403 258 l 486 440 b 311 317 481 442 410 317 b 276 369 271 317 281 369 z m 179 263 l 236 389 l 247 389 l 189 263 z m 242 13 b 244 17 243 14 243 15 l 249 22 l 481 22 l 476 13 z m 310 553 l 356 654 l 367 654 l 319 553 z m 351 538 b 563 675 358 538 456 675 b 589 664 582 675 586 664 l 631 758 b 424 690 564 731 483 706 z m 375 694 l 388 721 l 397 721 l 385 694 z m 413 215 l 493 215 b 564 261 518 215 539 229 b 671 456 593 299 628 363 b 753 689 739 603 753 651 b 697 753 753 719 735 753 l 657 753 l 546 507 l 593 507 l 581 481 l 533 481 z m 428 811 l 468 901 l 479 901 l 438 811 z m 447 749 b 876 868 564 796 751 853 b 811 903 860 883 843 892 b 522 832 772 874 522 796 b 714 917 522 883 714 911 l 528 917 z m 463 246 l 558 457 l 603 457 l 636 531 l 593 531 l 679 722 l 696 722 b 719 689 710 722 719 711 b 640 468 719 661 713 622 b 492 246 547 264 510 246 z m 465 303 l 479 332 l 489 332 l 475 303 z m 569 218 b 757 304 635 264 710 304 b 800 286 779 304 796 299 b 893 481 826 322 879 422 b 701 335 888 479 832 335 b 669 392 647 335 676 392 b 569 218 638 325 594 249 z m 596 351 b 625 410 606 368 615 389 l 636 410 b 607 351 625 388 617 368 z m 686 543 b 729 672 717 613 726 647 l 739 672 b 697 543 738 646 726 611 z m 718 774 b 779 694 756 768 779 736 b 775 653 779 676 778 665 b 892 771 782 651 819 771 b 935 732 924 771 931 732 b 900 835 936 760 918 817 b 718 774 858 817 775 786 z m 931 864 l 943 864 b 961 835 950 854 956 844 l 947 835 b 931 864 943 844 938 856 z "},"E":{"ha":610,"x_min":0,"x_max":0,"o":"m 18 0 l 586 0 l 710 272 l 442 272 l 479 353 l 699 353 l 824 629 l 606 629 l 638 696 l 907 696 l 1032 972 l 461 972 z m 65 31 l 481 942 l 983 942 l 889 731 l 618 731 l 556 599 l 775 599 l 681 388 l 461 388 l 393 242 l 661 242 l 567 31 z m 107 57 l 549 57 b 446 74 549 69 486 74 l 246 74 b 150 103 192 74 150 71 b 332 286 150 161 263 286 b 372 258 369 286 369 258 l 454 438 b 283 317 446 438 376 317 b 249 369 243 317 253 369 z m 119 201 l 192 363 l 203 363 l 133 201 z m 236 453 l 292 576 l 303 576 l 247 453 z m 274 10 l 278 21 l 525 21 l 519 10 z m 317 631 l 339 679 l 350 679 l 328 631 z m 322 538 b 528 675 329 538 421 675 b 554 664 547 675 551 664 l 593 753 b 394 690 526 729 454 706 z m 371 749 l 440 901 l 451 901 l 381 749 z m 419 749 b 929 894 593 815 824 879 l 940 915 l 813 915 b 494 832 744 874 494 796 b 686 917 494 883 686 913 l 497 915 b 419 749 497 915 457 819 z m 435 310 l 457 357 l 468 357 l 446 310 z m 481 411 l 663 411 l 693 482 b 624 440 688 482 669 460 b 481 411 583 424 488 421 z m 522 365 l 528 376 l 674 376 l 668 365 z m 619 757 l 868 757 l 910 847 b 619 757 824 807 701 776 z m 710 708 l 715 719 l 756 719 l 750 708 z m 729 475 l 756 532 l 768 532 l 742 475 z m 785 708 l 789 719 l 883 719 l 879 708 z "},"É":{"ha":610,"x_min":0,"x_max":0,"o":"m 18 0 l 586 0 l 710 272 l 442 272 l 479 353 l 699 353 l 824 629 l 606 629 l 638 696 l 907 696 l 1032 972 l 461 972 z m 65 31 l 481 942 l 983 942 l 889 731 l 618 731 l 556 599 l 775 599 l 681 388 l 461 388 l 393 242 l 661 242 l 567 31 z m 107 57 l 549 57 b 446 74 549 69 486 74 l 246 74 b 150 103 192 74 150 71 b 332 286 150 161 263 286 b 372 258 369 286 369 258 l 454 438 b 283 317 446 438 376 317 b 249 369 243 317 253 369 z m 119 201 l 192 363 l 203 363 l 133 201 z m 236 453 l 292 576 l 303 576 l 247 453 z m 274 10 l 278 21 l 525 21 l 519 10 z m 317 631 l 339 679 l 350 679 l 328 631 z m 322 538 b 528 675 329 538 421 675 b 554 664 547 675 551 664 l 593 753 b 394 690 526 729 454 706 z m 371 749 l 440 901 l 451 901 l 381 749 z m 419 749 b 929 894 593 815 824 879 l 940 915 l 813 915 b 494 832 744 874 494 796 b 686 917 494 883 686 913 l 497 915 b 419 749 497 915 457 819 z m 435 310 l 457 357 l 468 357 l 446 310 z m 481 411 l 663 411 l 693 482 b 624 440 688 482 669 460 b 481 411 583 424 488 421 z m 522 365 l 528 376 l 674 376 l 668 365 z m 619 757 l 868 757 l 910 847 b 619 757 824 807 701 776 z m 710 708 l 715 719 l 756 719 l 750 708 z m 713 996 l 775 996 l 904 1113 l 794 1113 z m 729 475 l 756 532 l 768 532 l 742 475 z m 765 1025 l 810 1086 l 836 1086 l 769 1025 z m 785 708 l 789 719 l 883 719 l 879 708 z "},"Ě":{"ha":610,"x_min":0,"x_max":0,"o":"m 18 0 l 586 0 l 710 272 l 442 272 l 479 353 l 699 353 l 824 629 l 606 629 l 638 696 l 907 696 l 1032 972 l 461 972 z m 65 31 l 481 942 l 983 942 l 889 731 l 618 731 l 556 599 l 775 599 l 681 388 l 461 388 l 393 242 l 661 242 l 567 31 z m 107 57 l 549 57 b 446 74 549 69 486 74 l 246 74 b 150 103 192 74 150 71 b 332 286 150 161 263 286 b 372 258 369 286 369 258 l 454 438 b 283 317 446 438 376 317 b 249 369 243 317 253 369 z m 119 201 l 192 363 l 203 363 l 133 201 z m 236 453 l 292 576 l 303 576 l 247 453 z m 274 10 l 278 21 l 525 21 l 519 10 z m 317 631 l 339 679 l 350 679 l 328 631 z m 322 538 b 528 675 329 538 421 675 b 554 664 547 675 551 664 l 593 753 b 394 690 526 729 454 706 z m 371 749 l 440 901 l 451 901 l 381 749 z m 419 749 b 929 894 593 815 824 879 l 940 915 l 813 915 b 494 832 744 874 494 796 b 686 917 494 883 686 913 l 497 915 b 419 749 497 915 457 819 z m 435 310 l 457 357 l 468 357 l 446 310 z m 481 411 l 663 411 l 693 482 b 624 440 688 482 669 460 b 481 411 583 424 488 421 z m 522 365 l 528 376 l 674 376 l 668 365 z m 619 757 l 868 757 l 910 847 b 619 757 824 807 701 776 z m 628 1113 l 707 996 l 775 996 l 938 1113 l 825 1113 l 753 1038 l 726 1113 z m 679 1089 l 701 1089 l 725 1032 l 719 1032 b 679 1089 708 1042 693 1069 z m 710 708 l 715 719 l 756 719 l 750 708 z m 729 475 l 756 532 l 768 532 l 742 475 z m 785 708 l 789 719 l 883 719 l 879 708 z m 810 1064 l 836 1089 l 858 1089 l 824 1063 z "},"Ê":{"ha":610,"x_min":0,"x_max":0,"o":"m 18 0 l 586 0 l 710 272 l 442 272 l 479 353 l 699 353 l 824 629 l 606 629 l 638 696 l 907 696 l 1032 972 l 461 972 z m 65 31 l 481 942 l 983 942 l 889 731 l 618 731 l 556 599 l 775 599 l 681 388 l 461 388 l 393 242 l 661 242 l 567 31 z m 107 57 l 549 57 b 446 74 549 69 486 74 l 246 74 b 150 103 192 74 150 71 b 332 286 150 161 263 286 b 372 258 369 286 369 258 l 454 438 b 283 317 446 438 376 317 b 249 369 243 317 253 369 z m 119 201 l 192 363 l 203 363 l 133 201 z m 236 453 l 292 576 l 303 576 l 247 453 z m 274 10 l 278 21 l 525 21 l 519 10 z m 317 631 l 339 679 l 350 679 l 328 631 z m 322 538 b 528 675 329 538 421 675 b 554 664 547 675 551 664 l 593 753 b 394 690 526 729 454 706 z m 371 749 l 440 901 l 451 901 l 381 749 z m 419 749 b 929 894 593 815 824 879 l 940 915 l 813 915 b 494 832 744 874 494 796 b 686 917 494 883 686 913 l 497 915 b 419 749 497 915 457 819 z m 435 310 l 457 357 l 468 357 l 446 310 z m 481 411 l 663 411 l 693 482 b 624 440 688 482 669 460 b 481 411 583 424 488 421 z m 522 365 l 528 376 l 674 376 l 668 365 z m 613 996 l 686 996 l 726 1064 l 750 1024 b 804 996 760 1007 775 996 b 876 1033 838 996 856 1007 l 939 1113 l 865 1113 l 818 1036 l 793 1078 b 744 1113 778 1103 767 1113 b 676 1076 717 1113 699 1106 z m 619 757 l 868 757 l 910 847 b 619 757 824 807 701 776 z m 656 1017 l 681 1049 l 690 1047 l 674 1017 z m 710 708 l 715 719 l 756 719 l 750 708 z m 729 475 l 756 532 l 768 532 l 742 475 z m 740 1086 l 758 1086 l 796 1022 l 785 1022 z m 785 708 l 789 719 l 883 719 l 879 708 z m 849 1051 l 878 1094 l 897 1094 l 863 1051 z "},"Ë":{"ha":610,"x_min":0,"x_max":0,"o":"m 18 0 l 586 0 l 710 272 l 442 272 l 479 353 l 699 353 l 824 629 l 606 629 l 638 696 l 907 696 l 1032 972 l 461 972 z m 65 31 l 481 942 l 983 942 l 889 731 l 618 731 l 556 599 l 775 599 l 681 388 l 461 388 l 393 242 l 661 242 l 567 31 z m 107 57 l 549 57 b 446 74 549 69 486 74 l 246 74 b 150 103 192 74 150 71 b 332 286 150 161 263 286 b 372 258 369 286 369 258 l 454 438 b 283 317 446 438 376 317 b 249 369 243 317 253 369 z m 119 201 l 192 363 l 203 363 l 133 201 z m 236 453 l 292 576 l 303 576 l 247 453 z m 274 10 l 278 21 l 525 21 l 519 10 z m 317 631 l 339 679 l 350 679 l 328 631 z m 322 538 b 528 675 329 538 421 675 b 554 664 547 675 551 664 l 593 753 b 394 690 526 729 454 706 z m 371 749 l 440 901 l 451 901 l 381 749 z m 419 749 b 929 894 593 815 824 879 l 940 915 l 813 915 b 494 832 744 874 494 796 b 686 917 494 883 686 913 l 497 915 b 419 749 497 915 457 819 z m 435 310 l 457 357 l 468 357 l 446 310 z m 481 411 l 663 411 l 693 482 b 624 440 688 482 669 460 b 481 411 583 424 488 421 z m 490 1014 l 726 1014 l 756 1079 l 519 1079 z m 522 365 l 528 376 l 674 376 l 668 365 z m 531 1040 l 536 1053 l 715 1053 l 710 1040 z m 619 757 l 868 757 l 910 847 b 619 757 824 807 701 776 z m 710 708 l 715 719 l 756 719 l 750 708 z m 729 475 l 756 532 l 768 532 l 742 475 z m 782 1014 l 1018 1014 l 1047 1079 l 811 1079 z m 785 708 l 789 719 l 883 719 l 879 708 z m 822 1040 l 828 1053 l 872 1053 l 867 1040 z m 893 1040 l 899 1053 l 1007 1053 l 1001 1040 z "},"È":{"ha":610,"x_min":0,"x_max":0,"o":"m 18 0 l 586 0 l 710 272 l 442 272 l 479 353 l 699 353 l 824 629 l 606 629 l 638 696 l 907 696 l 1032 972 l 461 972 z m 65 31 l 481 942 l 983 942 l 889 731 l 618 731 l 556 599 l 775 599 l 681 388 l 461 388 l 393 242 l 661 242 l 567 31 z m 107 57 l 549 57 b 446 74 549 69 486 74 l 246 74 b 150 103 192 74 150 71 b 332 286 150 161 263 286 b 372 258 369 286 369 258 l 454 438 b 283 317 446 438 376 317 b 249 369 243 317 253 369 z m 119 201 l 192 363 l 203 363 l 133 201 z m 236 453 l 292 576 l 303 576 l 247 453 z m 274 10 l 278 21 l 525 21 l 519 10 z m 317 631 l 339 679 l 350 679 l 328 631 z m 322 538 b 528 675 329 538 421 675 b 554 664 547 675 551 664 l 593 753 b 394 690 526 729 454 706 z m 371 749 l 440 901 l 451 901 l 381 749 z m 419 749 b 929 894 593 815 824 879 l 940 915 l 813 915 b 494 832 744 874 494 796 b 686 917 494 883 686 913 l 497 915 b 419 749 497 915 457 819 z m 435 310 l 457 357 l 468 357 l 446 310 z m 481 411 l 663 411 l 693 482 b 624 440 688 482 669 460 b 481 411 583 424 488 421 z m 522 365 l 528 376 l 674 376 l 668 365 z m 619 757 l 868 757 l 910 847 b 619 757 824 807 701 776 z m 664 1113 l 729 996 l 792 996 l 774 1113 z m 710 708 l 715 719 l 756 719 l 750 708 z m 717 1086 l 743 1086 l 754 1025 l 750 1025 z m 729 475 l 756 532 l 768 532 l 742 475 z m 785 708 l 789 719 l 883 719 l 879 708 z "},"F":{"ha":607,"x_min":0,"x_max":0,"o":"m 21 0 l 321 0 l 471 329 l 703 329 l 826 601 l 594 601 l 640 700 l 911 700 l 1035 972 l 464 972 z m 68 31 l 483 942 l 986 942 l 892 735 l 621 735 l 547 574 l 779 574 l 683 364 l 451 364 l 300 31 z m 110 57 l 275 57 b 193 74 275 68 235 74 b 153 103 163 74 153 81 b 335 286 153 161 265 286 b 375 258 372 286 372 258 l 457 438 b 286 317 449 438 379 317 b 251 369 246 317 256 369 z m 110 169 l 176 315 l 188 315 l 121 169 z m 161 10 l 164 21 l 293 21 l 289 10 z m 210 392 l 242 460 l 253 460 l 222 392 z m 275 535 l 372 744 l 383 744 l 288 535 z m 325 538 b 531 675 332 538 424 675 b 557 664 550 675 554 664 l 596 753 b 397 690 529 729 457 706 z m 375 169 l 389 199 l 400 199 l 388 169 z m 422 749 b 932 894 596 815 826 879 l 943 915 l 815 915 b 497 832 747 874 497 796 b 689 917 497 883 689 913 l 500 915 b 422 749 500 915 460 819 z m 424 861 l 450 917 l 461 917 l 436 861 z m 475 392 l 665 392 l 703 479 b 626 421 697 479 672 440 b 475 392 586 404 482 401 z m 533 342 l 539 353 l 658 353 l 656 342 z m 590 643 l 607 681 l 618 681 l 601 643 z m 622 757 l 871 757 l 913 847 b 622 757 836 807 704 775 z m 675 713 l 679 724 l 778 724 l 774 713 z m 750 486 l 771 531 l 782 531 l 761 486 z m 808 713 l 813 724 l 864 724 l 860 713 z "},"G":{"ha":753,"x_min":0,"x_max":0,"o":"m 457 -17 b 963 529 706 -17 836 171 l 599 529 l 500 315 l 585 315 b 506 232 551 249 528 232 b 469 274 488 232 469 242 b 546 506 469 292 475 349 b 699 736 642 717 672 736 b 719 714 711 736 719 728 b 658 567 719 688 696 642 l 976 567 b 1024 747 1001 613 1024 682 b 735 986 1024 893 917 986 b 286 615 519 986 404 857 b 179 260 208 458 179 346 b 457 -17 179 74 292 -17 z m 204 374 b 214 408 207 385 210 396 l 224 408 b 214 374 219 396 217 385 z m 211 261 b 315 603 211 350 244 463 b 733 957 410 797 511 957 b 992 749 890 957 992 878 b 956 597 992 693 974 636 l 708 597 b 714 607 710 601 713 604 b 751 715 738 658 751 689 b 700 768 751 749 732 768 b 517 519 651 768 613 731 b 438 275 464 406 438 321 b 458 219 438 246 449 229 b 504 203 469 208 486 203 b 561 228 525 203 543 211 b 611 303 578 244 593 268 l 633 347 l 547 347 l 618 500 l 917 500 b 836 308 889 425 863 363 b 456 18 757 154 658 18 b 276 76 378 18 318 38 b 211 261 233 118 211 181 z m 235 267 b 454 40 229 99 342 40 b 690 135 544 40 632 74 b 460 58 674 133 586 58 b 268 193 344 58 268 115 b 369 276 268 251 314 276 b 408 257 401 276 404 257 b 453 435 408 297 417 363 b 294 306 443 435 388 306 b 243 344 239 306 247 344 b 235 267 238 318 236 293 z m 286 590 b 338 692 297 614 326 669 l 351 692 b 299 590 339 671 308 613 z m 299 532 b 503 658 308 532 375 658 b 542 647 519 658 536 653 b 617 758 572 699 601 742 b 367 661 525 717 439 683 b 299 532 350 633 328 586 z m 343 11 l 349 21 b 457 6 381 11 417 6 b 532 13 483 6 508 8 l 526 0 b 457 -6 504 -4 482 -6 b 343 11 415 -6 378 0 z m 411 808 b 467 872 429 832 447 854 l 483 872 b 424 808 463 854 443 832 z m 414 729 b 896 886 540 797 749 864 b 839 922 875 906 856 917 b 581 851 794 903 581 814 b 747 931 581 899 747 928 b 515 846 654 931 579 900 b 414 729 481 818 447 781 z m 456 321 b 461 344 457 328 458 336 l 472 344 b 467 321 469 336 468 328 z m 550 4 l 556 18 b 592 29 568 21 581 25 l 585 14 b 550 4 574 10 561 7 z m 556 413 l 597 500 l 607 500 l 565 413 z m 574 275 b 594 313 581 285 588 297 l 604 313 b 585 275 597 299 592 286 z m 589 221 b 761 304 599 219 660 304 b 793 289 783 304 788 297 b 876 471 801 303 854 410 b 704 335 865 471 807 335 b 664 363 664 335 668 363 b 589 221 643 303 614 246 z m 708 644 b 731 710 721 672 729 694 l 740 710 b 719 644 739 693 732 671 z m 721 788 b 769 672 783 779 786 724 b 915 785 775 672 828 785 b 963 746 953 785 958 746 b 932 853 968 799 944 838 b 721 788 906 832 788 800 z m 758 576 l 764 588 l 811 588 l 806 576 z m 840 576 l 846 588 l 944 588 l 940 576 z m 982 842 l 993 842 b 1011 783 1001 824 1008 804 l 1000 783 b 982 842 996 804 990 824 z "},"H":{"ha":715,"x_min":0,"x_max":0,"o":"m 22 0 l 324 0 l 482 347 l 546 347 l 388 0 l 689 0 l 1132 972 l 831 972 l 660 597 l 596 597 l 767 972 l 465 972 z m 74 31 l 489 942 l 721 942 l 550 567 l 682 567 l 853 942 l 1085 942 l 669 31 l 438 31 l 596 378 l 464 378 l 306 31 z m 113 57 l 283 57 b 161 108 283 86 161 53 b 354 304 161 172 264 304 b 388 278 392 304 383 278 l 447 403 b 300 332 442 403 381 332 b 265 390 257 332 268 390 z m 129 10 l 133 21 l 151 21 l 146 10 z m 133 213 l 182 319 l 194 319 l 146 213 z m 188 10 l 193 21 l 300 21 l 293 10 z m 229 426 l 357 707 l 369 707 l 242 426 z m 335 549 b 538 686 340 550 432 686 b 568 675 565 686 565 675 l 613 769 b 407 701 546 742 467 717 z m 367 142 l 383 179 l 396 179 l 379 142 z m 419 843 l 456 922 l 468 922 l 432 843 z m 425 57 l 444 99 l 457 99 l 438 57 z m 435 758 b 635 829 488 785 586 819 l 671 903 b 503 846 622 861 503 804 b 614 915 503 886 614 911 l 506 915 z m 474 163 l 539 306 l 551 306 l 486 163 z m 481 57 l 647 57 b 529 107 647 90 529 49 b 718 304 529 172 631 306 b 751 278 756 304 747 278 l 842 476 b 668 332 833 476 749 332 b 633 390 625 332 636 390 z m 494 10 l 500 21 l 660 21 l 653 10 z m 496 356 l 500 367 l 547 367 l 542 356 z m 611 676 l 619 696 l 631 696 l 622 676 z m 715 688 l 776 825 l 788 825 l 726 688 z m 753 656 b 921 765 761 657 828 765 b 953 724 960 765 949 724 l 1013 851 b 810 781 949 825 878 797 z m 800 879 l 819 921 l 831 921 l 811 879 z m 835 840 b 1033 908 903 871 981 894 l 1036 915 l 868 915 z "},"I":{"ha":354,"x_min":0,"x_max":0,"o":"m 24 0 l 324 0 l 767 972 l 467 972 z m 72 33 l 486 944 l 719 944 l 304 33 z m 111 57 l 278 57 b 160 107 278 90 160 49 b 349 304 160 171 261 304 b 382 278 386 304 378 278 l 472 476 b 299 332 464 476 379 332 b 264 390 256 332 267 390 z m 129 208 l 188 338 l 199 338 l 140 208 z m 153 10 l 157 21 l 297 21 l 293 10 z m 217 403 l 236 443 l 247 443 l 228 403 z m 288 557 l 349 690 l 360 690 l 299 557 z m 333 549 b 536 686 339 547 428 686 b 567 675 564 686 564 675 l 611 769 b 406 701 544 742 465 717 z m 428 864 l 454 922 l 465 922 l 439 864 z m 433 758 b 636 829 488 785 589 819 l 671 903 b 501 846 622 861 501 804 b 614 915 501 886 614 911 l 504 915 z "},"Í":{"ha":354,"x_min":0,"x_max":0,"o":"m 24 0 l 324 0 l 767 972 l 467 972 z m 72 33 l 486 944 l 719 944 l 304 33 z m 111 57 l 278 57 b 160 107 278 90 160 49 b 349 304 160 171 261 304 b 382 278 386 304 378 278 l 472 476 b 299 332 464 476 379 332 b 264 390 256 332 267 390 z m 129 208 l 188 338 l 199 338 l 140 208 z m 153 10 l 157 21 l 297 21 l 293 10 z m 217 403 l 236 443 l 247 443 l 228 403 z m 288 557 l 349 690 l 360 690 l 299 557 z m 333 549 b 536 686 340 549 429 686 b 567 675 564 686 564 675 l 611 769 b 406 701 544 742 465 717 z m 428 864 l 454 922 l 465 922 l 439 864 z m 433 758 b 636 829 488 785 589 819 l 671 903 b 501 846 622 861 501 804 b 614 915 501 886 614 911 l 504 915 z m 590 996 l 653 996 l 782 1113 l 672 1113 z m 643 1025 l 688 1086 l 714 1086 l 647 1025 z "},"Î":{"ha":368,"x_min":0,"x_max":0,"o":"m 38 0 l 338 0 l 781 972 l 481 972 z m 86 33 l 500 944 l 733 944 l 318 33 z m 125 57 l 292 57 b 174 107 292 90 174 49 b 363 304 174 171 275 304 b 396 278 400 304 392 278 l 486 476 b 313 332 478 476 393 332 b 278 390 269 332 281 390 z m 143 208 l 201 338 l 213 338 l 154 208 z m 167 10 l 171 21 l 311 21 l 307 10 z m 231 403 l 250 443 l 261 443 l 242 403 z m 301 557 l 363 690 l 374 690 l 313 557 z m 347 549 b 550 686 353 547 442 686 b 581 675 578 686 578 675 l 625 769 b 419 701 558 742 479 717 z m 442 864 l 468 922 l 479 922 l 453 864 z m 447 758 b 650 829 501 785 603 819 l 685 903 b 515 846 636 861 515 804 b 628 915 515 886 628 911 l 518 915 z m 486 1014 l 607 1014 l 676 1094 l 706 1014 l 796 1014 l 717 1131 l 649 1131 z m 565 1038 b 639 1094 589 1057 619 1085 l 644 1094 l 588 1038 z m 714 1063 l 729 1064 b 749 1038 736 1054 743 1046 l 726 1038 z "},"Ï":{"ha":342,"x_min":0,"x_max":0,"o":"m 22 0 l 322 0 l 765 972 l 465 972 z m 71 33 l 485 944 l 718 944 l 303 33 z m 110 57 l 276 57 b 158 107 276 90 158 49 b 347 304 158 171 260 304 b 381 278 385 304 376 278 l 471 476 b 297 332 463 476 378 332 b 263 390 254 332 265 390 z m 128 208 l 186 338 l 197 338 l 139 208 z m 151 10 l 156 21 l 296 21 l 292 10 z m 215 403 l 235 443 l 246 443 l 226 403 z m 286 557 l 347 690 l 358 690 l 297 557 z m 332 549 b 535 686 339 549 428 686 b 565 675 563 686 563 675 l 610 769 b 404 701 543 742 464 717 z m 372 1014 l 608 1014 l 638 1079 l 401 1079 z m 413 1040 l 418 1053 l 597 1053 l 592 1040 z m 426 864 l 453 922 l 464 922 l 438 864 z m 432 758 b 635 829 486 785 588 819 l 669 903 b 500 846 621 861 500 804 b 613 915 500 886 613 911 l 503 915 z m 664 1014 l 900 1014 l 929 1079 l 693 1079 z m 704 1040 l 710 1053 l 754 1053 l 749 1040 z m 775 1040 l 781 1053 l 889 1053 l 883 1040 z "},"Ì":{"ha":358,"x_min":0,"x_max":0,"o":"m 28 0 l 328 0 l 771 972 l 471 972 z m 76 33 l 490 944 l 724 944 l 308 33 z m 115 57 l 282 57 b 164 107 282 90 164 49 b 353 304 164 171 265 304 b 386 278 390 304 382 278 l 476 476 b 303 332 468 476 383 332 b 268 390 260 332 271 390 z m 133 208 l 192 338 l 203 338 l 144 208 z m 157 10 l 161 21 l 301 21 l 297 10 z m 221 403 l 240 443 l 251 443 l 232 403 z m 292 557 l 353 690 l 364 690 l 303 557 z m 338 549 b 540 686 343 547 432 686 b 571 675 568 686 568 675 l 615 769 b 410 701 549 742 469 717 z m 432 864 l 458 922 l 469 922 l 443 864 z m 438 758 b 640 829 492 785 593 819 l 675 903 b 506 846 626 861 506 804 b 618 915 506 886 618 911 l 508 915 z m 531 1113 l 596 996 l 658 996 l 640 1113 z m 583 1086 l 610 1086 l 621 1025 l 617 1025 z "},"J":{"ha":467,"x_min":0,"x_max":0,"o":"m 104 268 l 89 0 l 119 0 b 544 224 397 0 488 100 l 889 972 l 589 972 l 294 332 b 104 268 267 269 200 268 z m 122 31 l 132 239 b 322 319 218 243 292 250 l 608 942 l 842 942 l 517 238 b 122 31 458 106 365 32 z m 151 58 b 429 153 289 63 372 94 b 225 83 419 153 338 83 b 157 188 157 83 164 188 z m 168 213 b 190 207 172 210 183 207 b 475 311 318 207 374 311 b 508 285 513 311 504 285 l 599 483 b 426 339 590 483 504 339 b 385 397 376 339 388 397 l 346 308 b 168 213 321 246 257 218 z m 189 14 l 190 22 b 358 60 286 28 325 46 l 357 50 b 189 14 328 38 279 18 z m 306 333 l 399 531 l 411 531 l 317 333 z m 422 581 l 439 617 l 450 617 l 433 581 z m 457 549 b 660 686 464 549 553 686 b 690 675 688 686 688 675 l 735 769 b 529 701 668 742 589 717 z m 535 829 l 578 922 l 589 922 l 547 829 z m 557 758 b 758 829 611 785 711 819 l 794 903 b 625 846 746 861 625 804 b 738 915 625 886 738 911 l 628 915 z "},"K":{"ha":701,"x_min":0,"x_max":0,"o":"m 21 0 l 321 0 l 490 364 l 428 0 l 726 0 l 751 399 l 1174 972 l 875 972 l 579 568 l 764 972 l 464 972 z m 69 31 l 483 942 l 717 942 l 522 490 l 556 490 l 896 942 l 1113 942 l 721 410 l 697 31 l 464 31 l 535 451 l 504 451 l 301 31 z m 110 57 l 285 57 b 196 74 272 65 247 74 b 150 93 168 74 149 74 b 335 286 154 129 250 286 b 378 257 371 286 375 257 l 467 436 b 297 317 457 436 397 317 b 251 369 253 317 256 369 z m 135 226 l 214 397 l 225 397 l 146 226 z m 142 10 l 147 21 l 297 21 l 293 10 z m 274 531 l 349 696 l 361 696 l 285 531 z m 331 549 b 539 686 338 549 432 686 b 574 675 567 686 571 675 l 614 769 b 403 701 547 742 463 717 z m 367 146 l 383 179 l 396 179 l 378 146 z m 376 754 l 399 803 l 410 803 l 388 754 z m 419 851 l 453 922 l 464 922 l 431 851 z m 432 758 b 638 829 486 785 590 819 l 672 903 b 500 846 624 861 500 804 b 613 915 500 886 613 911 l 503 915 z m 447 50 l 463 143 l 471 143 l 457 50 z m 490 299 l 499 347 l 507 347 l 499 300 z m 496 57 l 674 57 b 583 74 664 64 632 74 b 522 107 524 74 522 78 b 657 299 522 153 535 299 b 686 289 669 299 681 294 b 704 461 689 367 693 410 b 575 318 699 461 649 318 b 547 351 547 318 551 351 z m 536 10 l 538 21 l 618 21 l 618 10 z m 653 10 l 653 21 l 686 21 l 686 10 z m 653 650 l 739 765 l 750 765 l 663 650 z m 656 776 l 678 826 l 688 826 l 665 776 z m 703 649 b 896 758 717 649 810 758 b 931 742 922 758 928 742 l 1017 856 b 810 782 968 829 858 790 z m 721 246 l 722 272 l 733 272 l 732 246 z m 790 838 l 853 919 l 864 919 l 801 838 z m 849 842 b 1053 910 919 874 996 896 l 1058 917 l 906 917 z "},"L":{"ha":492,"x_min":0,"x_max":0,"o":"m 22 0 l 479 0 l 603 272 l 446 272 l 765 972 l 465 972 z m 71 31 l 485 942 l 718 942 l 399 242 l 556 242 l 460 31 z m 110 57 l 428 57 b 225 74 428 68 400 74 b 158 110 179 74 158 85 b 351 304 158 175 263 308 b 385 278 389 304 381 278 l 475 476 b 297 332 467 478 378 332 b 263 390 254 332 265 390 z m 133 218 l 150 253 l 161 253 l 146 218 z m 178 317 l 238 446 l 249 446 l 189 317 z m 217 10 l 221 21 l 260 21 l 254 10 z m 285 10 l 290 21 l 442 21 l 438 10 z m 294 572 l 321 629 l 332 629 l 306 572 z m 335 549 b 536 686 340 550 429 686 b 567 675 564 686 564 675 l 610 769 b 407 701 543 742 467 717 z m 386 774 l 454 921 l 465 921 l 397 774 z m 435 758 b 635 829 489 785 588 819 l 671 903 b 513 828 635 871 560 828 b 497 838 503 828 497 832 b 615 915 497 876 615 914 l 506 915 z m 679 831 l 701 881 l 711 881 l 689 831 z "},"Ĺ":{"ha":482,"x_min":0,"x_max":0,"o":"m 26 0 l 483 0 l 607 272 l 450 272 l 769 972 l 469 972 z m 75 31 l 489 942 l 722 942 l 403 242 l 560 242 l 464 31 z m 114 57 l 432 57 b 229 74 432 68 404 74 b 163 110 183 74 163 85 b 356 304 163 174 265 304 b 389 278 393 304 385 278 l 479 476 b 301 332 471 478 382 332 b 267 390 258 332 269 390 z m 138 218 l 154 253 l 165 253 l 150 218 z m 182 317 l 242 446 l 253 446 l 193 317 z m 221 10 l 225 21 l 264 21 l 258 10 z m 289 10 l 294 21 l 446 21 l 442 10 z m 299 572 l 325 629 l 336 629 l 310 572 z m 339 549 b 540 686 346 550 435 686 b 571 675 568 686 568 675 l 614 769 b 411 701 547 742 471 717 z m 390 774 l 458 921 l 469 921 l 401 774 z m 439 758 b 639 829 493 785 592 819 l 675 903 b 517 828 639 871 564 828 b 501 838 507 828 501 832 b 619 915 501 876 619 914 l 510 915 z m 581 996 l 643 996 l 772 1113 l 663 1113 z m 633 1025 l 678 1086 l 704 1086 l 638 1025 z m 683 831 l 706 881 l 715 881 l 693 831 z "},"M":{"ha":989,"x_min":0,"x_max":0,"o":"m 26 0 l 308 0 l 535 550 l 410 0 l 601 0 l 968 578 l 689 0 l 976 0 l 1399 972 l 969 972 l 744 564 l 858 972 l 469 972 z m 75 31 l 490 942 l 818 942 l 679 424 l 696 425 l 989 942 l 1351 942 l 956 31 l 746 31 l 1054 700 l 1021 700 l 585 31 l 450 31 l 592 700 l 569 700 l 288 31 z m 117 57 l 272 57 b 189 74 271 65 235 74 b 153 97 164 74 153 78 b 326 285 151 129 238 285 b 357 263 356 285 356 263 l 433 436 b 282 325 426 436 374 325 b 260 369 251 325 263 369 z m 172 296 l 225 408 l 236 408 l 183 296 z m 181 10 l 186 21 l 275 21 l 271 10 z m 278 526 l 340 664 l 353 664 l 290 526 z m 333 538 b 500 668 338 538 424 668 b 528 653 522 668 525 653 b 589 719 546 711 563 719 b 604 647 608 719 619 713 b 713 740 610 647 644 740 b 736 731 729 740 733 731 l 754 797 b 410 693 668 764 517 715 z m 356 168 l 374 213 l 386 217 l 368 172 z m 356 697 l 367 721 l 379 721 l 368 697 z m 390 774 l 458 921 l 469 921 l 401 774 z m 429 749 b 765 853 546 796 692 838 l 779 903 b 542 831 740 875 600 831 b 515 844 524 831 515 835 b 668 915 515 892 668 908 l 510 915 z m 433 51 l 465 197 l 474 197 l 442 51 z m 476 10 l 478 21 l 571 21 l 564 10 z m 483 57 l 569 57 b 507 104 569 78 507 58 b 654 281 507 215 565 281 b 696 253 692 281 692 253 l 819 440 b 611 318 804 440 750 318 b 543 357 547 318 550 357 z m 486 289 l 497 336 l 506 336 l 494 289 z m 513 410 l 533 506 l 542 506 l 522 410 z m 703 194 l 739 249 l 747 249 l 713 194 z m 729 50 l 775 149 l 786 149 l 740 50 z m 760 10 l 765 21 l 869 21 l 864 10 z m 785 57 l 932 57 b 833 108 932 85 833 50 b 1001 304 833 172 911 304 b 1035 278 1039 304 1031 278 l 1121 476 b 972 332 1113 476 1053 332 b 938 390 929 332 940 390 z m 793 631 l 872 774 l 883 774 l 801 631 z m 794 814 l 807 858 l 817 858 l 804 814 z m 818 581 b 1082 751 825 581 965 751 b 1100 736 1093 751 1099 747 b 1064 643 1100 726 1090 699 b 1190 749 1071 643 1125 749 b 1213 714 1221 749 1208 714 l 1278 851 b 904 729 1157 801 1032 763 z m 867 339 l 883 376 l 892 376 l 875 339 z m 900 10 l 906 21 l 939 21 l 933 10 z m 911 844 l 943 901 l 956 901 l 924 844 z m 935 786 b 1294 907 1013 822 1221 889 l 1299 915 l 1258 915 b 1024 867 1210 915 1024 840 b 1108 915 1024 892 1108 911 l 1008 915 z "},"N":{"ha":750,"x_min":0,"x_max":0,"o":"m 18 0 l 306 0 l 493 429 l 438 0 l 724 0 l 1167 972 l 869 972 l 692 564 l 742 972 l 461 972 z m 67 31 l 481 942 l 707 942 l 647 446 l 671 446 l 890 942 l 1119 942 l 704 31 l 472 31 l 540 553 l 514 553 l 286 31 z m 110 176 l 206 382 l 217 382 l 121 176 z m 113 57 l 268 57 b 196 74 267 65 233 74 b 150 96 158 74 150 78 b 322 285 149 128 233 285 b 353 263 351 285 351 263 l 429 436 b 278 325 422 436 369 325 b 256 369 247 325 258 369 z m 158 10 l 163 21 l 269 21 l 264 10 z m 244 471 l 274 536 l 285 536 l 256 471 z m 322 538 b 601 701 326 538 476 701 b 647 678 646 701 642 678 l 660 768 b 399 693 578 740 476 710 z m 326 651 l 339 678 l 350 678 l 338 651 z m 356 165 l 376 213 l 386 213 l 365 165 z m 381 774 l 449 921 l 460 921 l 392 774 z m 418 749 b 668 832 500 782 593 813 l 671 861 b 531 831 619 844 564 831 b 504 844 513 831 504 835 b 656 915 504 886 656 910 l 499 915 z m 456 56 l 460 89 l 469 89 l 465 56 z m 474 203 l 479 247 l 489 247 l 483 203 z m 489 317 l 501 425 l 513 425 l 500 317 z m 503 57 l 685 57 b 588 74 685 65 639 74 b 524 104 535 74 524 76 b 742 297 524 236 592 297 b 785 269 786 297 781 269 l 869 449 b 613 318 854 450 800 318 b 542 357 549 318 547 357 z m 531 10 l 533 21 l 565 21 l 563 10 z m 593 10 l 596 21 l 693 21 l 689 10 z m 700 808 l 703 831 l 713 831 l 710 808 z m 772 724 l 790 763 l 800 763 l 782 724 z m 790 656 b 954 758 800 656 868 758 b 986 717 993 758 982 717 l 1049 851 b 846 781 985 825 914 797 z m 821 838 l 858 921 l 869 921 l 832 838 z m 875 840 b 1074 908 942 871 1021 894 l 1076 915 l 908 915 z "},"Ń":{"ha":754,"x_min":0,"x_max":0,"o":"m 22 0 l 310 0 l 497 429 l 442 0 l 728 0 l 1171 972 l 874 972 l 696 564 l 746 972 l 465 972 z m 71 31 l 485 942 l 711 942 l 651 446 l 675 446 l 894 942 l 1124 942 l 708 31 l 476 31 l 544 553 l 518 553 l 290 31 z m 114 176 l 210 382 l 221 382 l 125 176 z m 117 57 l 272 57 b 200 74 271 65 238 74 b 154 96 163 74 154 78 b 326 285 153 128 238 285 b 357 263 356 285 356 263 l 433 436 b 282 325 426 436 374 325 b 260 369 251 325 263 369 z m 163 10 l 167 21 l 274 21 l 268 10 z m 249 471 l 278 536 l 289 536 l 260 471 z m 326 538 b 606 701 331 538 481 701 b 651 678 650 701 646 678 l 664 768 b 403 693 582 740 481 710 z m 331 651 l 343 678 l 354 678 l 342 651 z m 360 165 l 381 213 l 390 213 l 369 165 z m 385 774 l 453 921 l 464 921 l 396 774 z m 422 749 b 672 832 504 782 597 813 l 675 861 b 535 831 624 844 568 831 b 508 844 517 831 508 835 b 660 915 508 886 660 910 l 503 915 z m 460 56 l 464 89 l 474 89 l 469 56 z m 478 203 l 483 247 l 493 247 l 488 203 z m 493 317 l 506 425 l 517 425 l 504 317 z m 507 57 l 689 57 b 592 74 689 65 643 74 b 528 104 539 74 528 76 b 746 297 528 236 596 297 b 789 269 790 297 785 269 l 874 449 b 617 318 858 450 804 318 b 546 357 553 318 551 357 z m 535 10 l 538 21 l 569 21 l 567 10 z m 597 10 l 600 21 l 697 21 l 693 10 z m 704 808 l 707 831 l 717 831 l 714 808 z m 747 996 l 810 996 l 939 1113 l 829 1113 z m 776 724 l 794 763 l 804 763 l 786 724 z m 794 656 b 958 758 804 656 872 758 b 990 717 997 758 986 717 l 1053 851 b 850 781 989 825 918 797 z m 800 1025 l 844 1086 l 871 1086 l 804 1025 z m 825 838 l 863 921 l 874 921 l 836 838 z m 879 840 b 1078 908 946 871 1025 894 l 1081 915 l 913 915 z "},"Ň":{"ha":754,"x_min":0,"x_max":0,"o":"m 22 0 l 310 0 l 497 429 l 442 0 l 728 0 l 1171 972 l 874 972 l 696 564 l 746 972 l 465 972 z m 71 31 l 485 942 l 711 942 l 651 446 l 675 446 l 894 942 l 1124 942 l 708 31 l 476 31 l 544 553 l 518 553 l 290 31 z m 114 176 l 210 382 l 221 382 l 125 176 z m 117 57 l 272 57 b 200 74 271 65 238 74 b 154 96 163 74 154 78 b 326 285 153 128 238 285 b 357 263 356 285 356 263 l 433 436 b 282 325 426 436 374 325 b 260 369 251 325 263 369 z m 163 10 l 167 21 l 274 21 l 268 10 z m 249 471 l 278 536 l 289 536 l 260 471 z m 326 538 b 606 701 331 538 481 701 b 651 678 650 701 646 678 l 664 768 b 403 693 582 740 481 710 z m 331 651 l 343 678 l 354 678 l 342 651 z m 360 165 l 381 213 l 390 213 l 369 165 z m 385 774 l 453 921 l 464 921 l 396 774 z m 422 749 b 672 832 504 782 597 813 l 675 861 b 535 831 624 844 568 831 b 508 844 517 831 508 835 b 660 915 508 886 660 910 l 503 915 z m 460 56 l 464 89 l 474 89 l 469 56 z m 478 203 l 483 247 l 493 247 l 488 203 z m 493 317 l 506 425 l 517 425 l 504 317 z m 507 57 l 689 57 b 592 74 689 65 643 74 b 528 104 539 74 528 76 b 746 297 528 236 596 297 b 789 269 790 297 785 269 l 874 449 b 617 318 858 450 804 318 b 546 357 553 318 551 357 z m 535 10 l 538 21 l 569 21 l 567 10 z m 597 10 l 600 21 l 697 21 l 693 10 z m 685 1113 l 764 996 l 832 996 l 994 1113 l 882 1113 l 810 1038 l 783 1113 z m 704 808 l 707 831 l 717 831 l 714 808 z m 736 1089 l 758 1089 l 782 1032 l 776 1032 b 736 1089 765 1042 750 1069 z m 776 724 l 794 763 l 804 763 l 786 724 z m 794 656 b 958 758 804 656 872 758 b 990 717 997 758 986 717 l 1053 851 b 850 781 989 825 918 797 z m 825 838 l 863 921 l 874 921 l 836 838 z m 867 1064 l 893 1089 l 915 1089 l 881 1063 z m 879 840 b 1078 908 946 871 1025 894 l 1081 915 l 913 915 z "},"Ñ":{"ha":747,"x_min":0,"x_max":0,"o":"m 21 0 l 308 0 l 496 429 l 440 0 l 726 0 l 1169 972 l 872 972 l 694 564 l 744 972 l 464 972 z m 69 31 l 483 942 l 710 942 l 650 446 l 674 446 l 893 942 l 1122 942 l 707 31 l 475 31 l 543 553 l 517 553 l 289 31 z m 113 176 l 208 382 l 219 382 l 124 176 z m 115 57 l 271 57 b 199 74 269 65 236 74 b 153 96 161 74 153 78 b 325 285 151 128 236 285 b 356 263 354 285 354 263 l 432 436 b 281 325 425 436 372 325 b 258 369 250 325 261 369 z m 161 10 l 165 21 l 272 21 l 267 10 z m 247 471 l 276 536 l 288 536 l 258 471 z m 325 538 b 604 701 329 538 479 701 b 650 678 649 701 644 678 l 663 768 b 401 693 581 740 479 710 z m 329 651 l 342 678 l 353 678 l 340 651 z m 358 165 l 379 213 l 389 213 l 368 165 z m 383 774 l 451 921 l 463 921 l 394 774 z m 421 749 b 671 832 503 782 596 813 l 674 861 b 533 831 622 844 567 831 b 507 844 515 831 507 835 b 658 915 507 886 658 910 l 501 915 z m 458 56 l 463 89 l 472 89 l 468 56 z m 476 203 l 482 247 l 492 247 l 486 203 z m 492 317 l 504 425 l 515 425 l 503 317 z m 506 57 l 688 57 b 590 74 688 65 642 74 b 526 104 538 74 526 76 b 744 297 526 236 594 297 b 788 269 789 297 783 269 l 872 449 b 615 318 857 450 803 318 b 544 357 551 318 550 357 z m 533 10 l 536 21 l 568 21 l 565 10 z m 596 10 l 599 21 l 696 21 l 692 10 z m 672 996 l 746 996 l 786 1064 l 810 1024 b 864 996 819 1007 835 996 b 936 1033 897 996 915 1007 l 999 1113 l 925 1113 l 878 1036 l 853 1078 b 804 1113 838 1103 826 1113 b 736 1076 776 1113 758 1106 z m 703 808 l 706 831 l 715 831 l 713 808 z m 715 1017 l 740 1049 l 750 1047 l 733 1017 z m 775 724 l 793 763 l 803 763 l 785 724 z m 793 656 b 957 758 803 656 871 758 b 989 717 996 758 985 717 l 1051 851 b 849 781 988 825 917 797 z m 800 1086 l 818 1086 l 856 1022 l 844 1022 z m 824 838 l 861 921 l 872 921 l 835 838 z m 878 840 b 1076 908 944 871 1024 894 l 1079 915 l 911 915 z m 908 1051 l 938 1094 l 957 1094 l 922 1051 z "},"O":{"ha":758,"x_min":0,"x_max":0,"o":"m 421 -17 b 904 356 635 -25 775 113 b 1028 744 989 513 1022 628 b 786 986 1035 900 958 986 b 286 599 540 986 417 839 b 165 249 203 446 171 333 b 421 -17 156 56 254 -11 z m 185 310 b 194 356 188 324 190 339 l 207 356 b 197 310 203 339 200 324 z m 201 247 b 318 583 206 328 238 433 b 786 954 447 818 558 954 b 992 746 938 954 999 885 b 872 374 986 633 954 526 b 422 18 744 135 622 11 b 201 247 265 24 193 76 z m 231 244 b 432 42 228 90 301 42 b 667 135 528 42 608 74 b 436 60 644 133 576 60 b 261 186 321 60 260 101 b 361 276 263 244 306 276 b 397 257 390 276 393 257 b 454 435 400 299 417 363 b 296 306 442 435 382 306 b 246 344 240 306 251 344 b 231 244 239 318 231 293 z m 246 492 b 296 593 267 536 293 586 b 364 708 313 621 344 679 l 378 708 b 306 588 353 672 331 631 b 257 492 303 583 279 538 z m 304 14 l 310 22 b 472 7 369 6 426 3 l 468 -3 b 304 14 413 -6 357 -3 z m 319 532 b 524 658 332 532 397 658 b 563 647 540 658 557 653 b 638 750 594 699 624 742 b 393 661 556 718 465 683 b 319 532 376 633 350 586 z m 426 256 b 475 197 425 218 447 197 b 671 451 510 196 550 214 b 771 718 756 618 771 678 b 728 771 771 749 754 771 b 526 518 686 771 644 756 b 426 256 444 351 428 290 z m 429 799 b 531 900 463 840 488 865 l 549 900 b 442 799 506 868 476 840 z m 436 729 b 922 886 563 797 796 868 b 857 918 901 906 874 913 b 613 850 833 903 613 813 b 781 929 614 897 781 926 b 547 844 688 929 613 899 b 436 729 513 817 475 781 z m 454 318 b 469 361 458 331 463 344 l 481 361 b 465 318 474 344 469 331 z m 463 254 b 558 503 464 285 476 342 b 719 736 668 714 701 736 b 736 714 729 735 736 731 b 639 468 733 685 721 629 b 478 233 531 254 496 233 b 463 254 469 235 461 239 z m 519 3 l 524 14 b 561 25 536 17 549 19 l 557 13 b 519 3 546 8 533 6 z m 564 221 b 753 296 578 221 657 296 b 781 281 775 296 778 289 b 892 471 793 294 863 410 b 696 335 879 471 808 335 b 656 363 656 335 660 363 b 564 221 629 303 592 246 z m 569 315 b 610 385 592 353 599 367 l 624 385 b 585 315 614 368 607 353 z m 657 478 b 719 613 697 561 708 589 l 733 613 b 671 478 722 589 713 563 z m 744 688 b 749 718 747 696 749 707 l 760 718 b 756 688 761 711 760 696 z m 753 786 b 792 672 811 779 801 714 b 924 765 796 672 836 765 b 963 736 957 765 958 736 b 944 849 969 789 957 833 b 753 786 918 831 811 797 z m 985 868 l 996 868 b 1011 822 1003 854 1007 839 l 1000 822 b 985 868 996 839 992 854 z "},"Ó":{"ha":758,"x_min":0,"x_max":0,"o":"m 421 -17 b 904 356 635 -25 775 113 b 1028 744 989 513 1022 628 b 786 986 1035 900 951 981 b 286 599 540 994 417 839 b 165 249 203 446 171 333 b 421 -17 156 56 254 -11 z m 185 310 b 194 356 188 324 190 339 l 207 356 b 197 310 203 339 200 324 z m 201 247 b 318 583 206 328 238 433 b 786 954 447 818 558 963 b 992 746 938 949 999 885 b 872 374 986 633 954 526 b 422 18 744 135 622 11 b 201 247 265 24 193 76 z m 231 244 b 432 42 228 90 301 42 b 667 135 528 42 608 74 b 436 60 644 133 576 60 b 261 186 321 60 260 101 b 361 276 263 244 306 276 b 397 257 390 276 393 257 b 454 435 400 299 417 363 b 296 306 442 435 382 306 b 246 344 240 306 251 344 b 231 244 239 318 231 293 z m 246 492 b 296 593 267 536 293 586 b 364 708 313 621 344 679 l 378 708 b 306 588 353 672 331 631 b 257 492 303 583 279 538 z m 304 14 l 310 22 b 472 7 369 6 426 3 l 468 -3 b 304 14 413 -6 357 -3 z m 319 532 b 524 658 332 532 397 658 b 563 647 540 658 557 653 b 638 750 594 699 624 742 b 393 661 556 718 465 683 b 319 532 376 633 350 586 z m 426 256 b 475 197 425 218 447 197 b 671 451 510 196 550 214 b 772 710 756 618 769 676 b 721 769 772 746 750 768 b 526 518 686 769 644 756 b 426 256 444 351 428 290 z m 429 799 b 531 900 463 840 488 865 l 549 900 b 442 799 506 868 476 840 z m 436 729 b 922 886 563 797 796 868 b 857 918 901 906 874 913 b 604 851 833 903 604 814 b 772 931 606 899 772 928 b 539 846 679 931 604 900 b 436 729 504 818 471 781 z m 454 318 b 469 361 458 331 463 344 l 481 361 b 465 318 474 344 469 331 z m 463 254 b 558 503 464 285 476 342 b 719 736 668 714 701 736 b 736 714 729 735 736 731 b 639 468 733 685 721 629 b 478 233 531 254 496 233 b 463 254 469 235 461 239 z m 519 3 l 524 14 b 561 25 536 17 549 19 l 557 13 b 519 3 546 8 533 6 z m 564 221 b 757 304 578 221 661 304 b 785 289 779 304 782 297 b 892 471 797 303 863 410 b 696 335 885 471 808 335 b 656 363 656 335 660 363 b 564 221 629 303 592 246 z m 569 315 b 610 385 592 353 599 367 l 624 385 b 585 315 614 368 607 353 z m 657 478 b 719 613 697 561 708 589 l 733 613 b 671 478 722 589 713 563 z m 744 688 b 749 718 747 696 749 707 l 760 718 b 756 688 761 711 760 696 z m 753 786 b 792 672 811 779 801 714 b 924 765 796 672 836 765 b 963 736 957 765 958 736 b 944 849 969 789 957 833 b 753 786 918 831 811 797 z m 754 996 l 817 996 l 946 1113 l 836 1113 z m 807 1025 l 851 1086 l 878 1086 l 811 1025 z m 985 868 l 996 868 b 1011 822 1003 854 1007 839 l 1000 822 b 985 868 996 839 992 854 z "},"Ô":{"ha":689,"x_min":0,"x_max":0,"o":"m 394 -17 b 878 356 608 -25 749 113 b 1001 744 963 513 996 628 b 760 986 1008 900 932 986 b 260 599 514 986 390 839 b 139 249 176 446 144 333 b 394 -17 129 56 228 -11 z m 158 310 b 168 356 161 324 164 339 l 181 356 b 171 310 176 339 174 324 z m 175 247 b 292 583 179 328 211 433 b 760 954 421 818 532 954 b 965 746 911 954 972 885 b 846 374 960 633 928 526 b 396 18 718 135 596 11 b 175 247 239 24 167 76 z m 204 244 b 406 42 201 90 275 42 b 640 135 501 42 582 74 b 410 60 618 133 550 60 b 235 186 294 60 233 101 b 335 276 236 244 279 276 b 371 257 364 276 367 257 b 428 435 374 299 390 363 b 269 306 415 435 356 306 b 219 344 214 306 225 344 b 204 244 213 318 204 293 z m 219 492 b 269 593 240 536 267 586 b 338 708 286 621 318 679 l 351 708 b 279 588 326 672 304 631 b 231 492 276 583 253 538 z m 278 14 l 283 22 b 446 7 343 6 400 3 l 442 -3 b 278 14 386 -6 331 -3 z m 293 532 b 497 658 306 532 371 658 b 536 647 514 658 531 653 b 611 750 568 699 597 742 b 367 661 529 718 439 683 b 293 532 350 633 324 586 z m 400 256 b 449 197 399 218 421 197 b 644 451 483 196 524 214 b 744 718 729 618 744 678 b 701 771 744 749 728 771 b 500 518 660 771 618 756 b 400 256 418 351 401 290 z m 403 799 b 504 900 436 840 461 865 l 522 900 b 415 799 479 868 450 840 z m 410 729 b 896 886 536 797 769 868 b 831 918 875 906 847 913 b 586 850 807 903 586 813 b 754 929 588 897 754 926 b 521 844 661 929 586 899 b 410 729 486 817 449 781 z m 428 318 b 443 361 432 331 436 344 l 454 361 b 439 318 447 344 443 331 z m 436 254 b 532 503 438 285 450 342 b 693 736 642 714 675 736 b 710 714 703 735 710 731 b 613 468 707 685 694 629 b 451 233 504 254 469 233 b 436 254 443 235 435 239 z m 493 3 l 497 14 b 535 25 510 17 522 19 l 531 13 b 493 3 519 8 507 6 z m 538 221 b 731 304 551 221 635 304 b 758 289 753 304 756 297 b 865 471 771 303 836 410 b 669 335 858 471 782 335 b 629 363 629 335 633 363 b 538 221 603 303 565 246 z m 543 315 b 583 385 565 353 572 367 l 597 385 b 558 315 588 368 581 353 z m 631 478 b 693 613 671 561 682 589 l 707 613 b 644 478 696 589 686 563 z m 638 1014 l 758 1014 l 828 1094 l 857 1014 l 947 1014 l 868 1131 l 800 1131 z m 717 1038 b 790 1094 740 1057 771 1085 l 796 1094 l 739 1038 z m 718 688 b 722 718 721 696 722 707 l 733 718 b 729 688 735 711 733 696 z m 726 786 b 765 672 785 779 775 714 b 897 765 769 672 810 765 b 936 736 931 765 932 736 b 918 849 943 789 931 833 b 726 786 892 831 785 797 z m 865 1063 l 881 1064 b 900 1038 888 1054 894 1046 l 878 1038 z m 958 868 l 969 868 b 985 822 976 854 981 839 l 974 822 b 958 868 969 839 965 854 z "},"Ö":{"ha":700,"x_min":0,"x_max":0,"o":"m 394 -17 b 878 356 608 -25 749 113 b 1001 744 963 513 996 628 b 751 986 1008 901 921 986 b 260 599 514 986 390 839 b 139 249 176 446 144 333 b 394 -17 129 56 228 -11 z m 158 310 b 168 356 161 324 164 339 l 181 356 b 171 310 176 339 174 324 z m 175 247 b 292 583 179 328 211 433 b 760 954 421 818 532 963 b 965 746 911 949 972 885 b 846 374 960 633 928 526 b 396 18 718 135 596 11 b 175 247 239 24 167 76 z m 204 244 b 406 42 201 90 275 42 b 640 135 501 42 582 74 b 410 60 618 133 550 60 b 235 186 294 60 233 101 b 335 276 236 244 279 276 b 371 257 364 276 367 257 b 428 435 374 299 390 363 b 269 306 415 435 356 306 b 219 344 214 306 225 344 b 204 244 213 318 204 293 z m 219 492 b 269 593 240 536 267 586 b 338 708 286 621 318 679 l 351 708 b 279 588 326 672 304 631 b 231 492 276 583 253 538 z m 278 14 l 283 22 b 446 7 343 6 400 3 l 442 -3 b 278 14 386 -6 331 -3 z m 293 532 b 497 658 306 532 371 658 b 536 647 514 658 531 653 b 611 750 568 699 597 742 b 367 661 529 718 439 683 b 293 532 350 633 324 586 z m 400 256 b 449 197 399 218 421 197 b 644 451 483 196 524 214 b 746 710 729 618 743 676 b 694 769 746 746 724 768 b 500 518 660 769 618 756 b 400 256 418 351 401 290 z m 403 799 b 504 900 436 840 461 865 l 522 900 b 415 799 479 868 450 840 z m 410 729 b 896 886 536 797 769 868 b 831 918 875 906 847 913 b 578 851 807 903 578 814 b 746 931 579 899 746 928 b 513 846 653 931 578 900 b 410 729 478 818 444 781 z m 428 318 b 443 361 432 331 436 344 l 454 361 b 439 318 447 344 443 331 z m 436 254 b 532 503 438 285 450 342 b 693 736 642 714 675 736 b 710 714 703 735 710 731 b 613 468 707 685 694 629 b 451 233 504 254 469 233 b 436 254 443 235 435 239 z m 493 3 l 497 14 b 535 25 510 17 522 19 l 531 13 b 493 3 519 8 507 6 z m 519 1014 l 756 1014 l 785 1079 l 549 1079 z m 538 221 b 731 304 551 221 635 304 b 758 289 753 304 756 297 b 865 471 771 303 836 410 b 669 335 858 471 782 335 b 629 363 629 335 633 363 b 538 221 603 303 565 246 z m 543 315 b 583 385 565 353 572 367 l 597 385 b 558 315 588 368 581 353 z m 560 1040 l 565 1053 l 610 1053 l 604 1040 z m 631 478 b 693 613 671 561 682 589 l 707 613 b 644 478 696 589 686 563 z m 631 1040 l 636 1053 l 744 1053 l 739 1040 z m 718 688 b 722 718 721 696 722 707 l 733 718 b 729 688 735 711 733 696 z m 726 786 b 765 672 785 779 775 714 b 897 765 769 672 810 765 b 936 736 931 765 932 736 b 918 849 943 789 931 833 b 726 786 892 831 785 797 z m 811 1014 l 1047 1014 l 1076 1079 l 840 1079 z m 851 1040 l 857 1053 l 1036 1053 l 1031 1040 z m 958 868 l 969 868 b 985 822 976 854 981 839 l 974 822 b 958 868 969 839 965 854 z "},"Ò":{"ha":689,"x_min":0,"x_max":0,"o":"m 394 -17 b 878 356 608 -25 749 113 b 1001 744 963 513 996 628 b 760 986 1008 900 932 986 b 260 599 514 986 390 839 b 139 249 176 446 144 333 b 394 -17 129 56 228 -11 z m 158 310 b 168 356 161 324 164 339 l 181 356 b 171 310 176 339 174 324 z m 175 247 b 292 583 179 328 211 433 b 760 954 421 818 532 954 b 965 746 911 954 972 885 b 846 374 960 633 928 526 b 396 18 718 135 596 11 b 175 247 239 24 167 76 z m 204 244 b 406 42 201 90 275 42 b 640 135 501 42 582 74 b 410 60 618 133 550 60 b 235 186 294 60 233 101 b 335 276 236 244 279 276 b 371 257 364 276 367 257 b 428 435 374 299 390 363 b 269 306 415 435 356 306 b 219 344 214 306 225 344 b 204 244 213 318 204 293 z m 219 492 b 269 593 240 536 267 586 b 338 708 286 621 318 679 l 351 708 b 279 588 326 672 304 631 b 231 492 276 583 253 538 z m 278 14 l 283 22 b 446 7 343 6 400 3 l 442 -3 b 278 14 386 -6 331 -3 z m 293 532 b 497 658 306 532 371 658 b 536 647 514 658 531 653 b 611 750 568 699 597 742 b 367 661 529 718 439 683 b 293 532 350 633 324 586 z m 400 256 b 449 197 399 218 421 197 b 644 451 483 196 524 214 b 744 718 729 618 744 678 b 701 771 744 749 728 771 b 500 518 660 771 618 756 b 400 256 418 351 401 290 z m 403 799 b 504 900 436 840 461 865 l 522 900 b 415 799 479 868 450 840 z m 410 729 b 896 886 536 797 769 868 b 831 918 875 906 847 913 b 586 850 807 903 586 813 b 754 929 588 897 754 926 b 521 844 661 929 586 899 b 410 729 486 817 449 781 z m 428 318 b 443 361 432 331 436 344 l 454 361 b 439 318 447 344 443 331 z m 436 254 b 532 503 438 285 450 342 b 693 736 642 714 675 736 b 710 714 703 735 710 731 b 613 468 707 685 694 629 b 451 233 504 254 469 233 b 436 254 443 235 435 239 z m 493 3 l 497 14 b 535 25 510 17 522 19 l 531 13 b 493 3 519 8 507 6 z m 538 221 b 731 304 551 221 635 304 b 758 289 753 304 756 297 b 865 471 771 303 836 410 b 669 335 858 471 782 335 b 629 363 629 335 633 363 b 538 221 603 303 565 246 z m 543 315 b 583 385 565 353 572 367 l 597 385 b 558 315 588 368 581 353 z m 631 478 b 693 613 671 561 682 589 l 707 613 b 644 478 696 589 686 563 z m 682 1113 l 747 996 l 810 996 l 792 1113 z m 718 688 b 722 718 721 696 722 707 l 733 718 b 729 688 735 711 733 696 z m 726 786 b 765 672 785 779 775 714 b 897 765 769 672 810 765 b 936 736 931 765 932 736 b 918 849 943 789 931 833 b 726 786 892 831 785 797 z m 735 1086 l 761 1086 l 772 1025 l 768 1025 z m 958 868 l 969 868 b 985 822 976 854 981 839 l 974 822 b 958 868 969 839 965 854 z "},"Ø":{"ha":767,"x_min":0,"x_max":0,"o":"m 74 -18 l 200 92 b 429 -17 240 17 319 -12 b 913 356 643 -25 783 113 b 1036 744 997 513 1031 628 b 1033 810 1038 769 1036 792 l 1178 935 l 1128 990 l 1010 889 b 794 986 979 949 907 986 b 294 599 549 986 425 839 b 174 249 211 446 179 333 b 176 168 172 219 174 192 l 25 36 z m 61 38 l 213 169 b 210 247 210 189 208 217 b 326 583 214 328 246 433 b 794 954 456 818 567 954 b 992 842 907 954 969 917 l 1122 953 l 1139 933 l 997 813 b 1000 746 1000 792 1001 769 b 881 374 994 633 963 526 b 431 18 753 135 631 11 b 219 139 313 22 243 53 l 79 17 z m 193 310 b 203 356 196 324 199 339 l 215 356 b 206 310 211 339 208 324 z m 239 244 b 242 193 239 225 239 210 b 428 357 301 247 360 301 l 463 435 b 304 306 450 435 390 306 b 254 344 249 306 260 344 b 239 244 247 318 239 293 z m 247 163 b 440 42 269 72 338 42 b 675 135 536 42 617 74 b 444 60 653 133 585 60 b 282 147 340 60 282 103 b 406 257 282 192 388 257 b 413 307 407 271 410 288 z m 254 492 b 304 593 275 536 301 586 b 372 708 321 621 353 679 l 386 708 b 314 588 361 672 339 631 b 265 492 311 583 288 538 z m 313 14 l 318 22 b 481 7 378 6 435 3 l 476 -3 b 313 14 421 -6 365 -3 z m 328 532 b 532 658 340 532 406 658 b 571 647 549 658 565 653 b 646 750 603 699 632 742 b 401 661 564 718 474 683 b 328 532 385 633 358 586 z m 435 256 b 483 197 433 218 456 197 b 679 451 518 196 558 214 b 749 601 714 519 736 569 l 456 342 b 435 256 442 301 436 274 z m 438 799 b 539 900 471 840 496 865 l 557 900 b 450 799 514 868 485 840 z m 444 729 b 931 886 571 797 804 868 b 865 918 910 906 882 913 b 621 850 842 903 621 813 b 789 929 622 897 789 926 b 556 844 696 929 621 899 b 444 729 521 817 483 781 z m 471 254 b 494 344 472 271 476 297 l 656 485 l 647 468 b 486 233 539 254 504 233 b 471 254 478 235 469 239 z m 479 397 l 765 647 b 779 718 775 678 779 700 b 736 771 779 749 763 771 b 535 518 694 771 653 756 b 479 397 510 467 493 431 z m 528 3 l 532 14 b 569 25 544 17 557 19 l 565 13 b 528 3 554 8 542 6 z m 569 507 b 728 736 676 714 710 736 b 744 714 738 735 744 731 b 726 643 743 700 739 679 z m 572 221 b 765 304 586 221 669 304 b 793 289 788 304 790 297 b 900 471 806 303 871 410 b 704 335 893 471 817 335 b 664 363 664 335 668 363 b 572 221 638 303 600 246 z m 578 315 b 618 385 600 353 607 367 l 632 385 b 593 315 622 368 615 353 z m 753 688 b 757 718 756 696 757 707 l 768 718 b 764 688 769 711 768 696 z m 761 786 b 801 678 817 779 811 719 l 967 821 b 953 849 963 833 957 843 b 761 786 926 831 819 797 z m 874 706 b 950 742 879 700 928 742 b 971 736 958 742 964 739 b 972 790 974 756 974 774 z "},"Õ":{"ha":689,"x_min":0,"x_max":0,"o":"m 394 -17 b 878 356 608 -25 749 113 b 1001 744 963 513 996 628 b 760 986 1008 900 932 986 b 260 599 514 986 390 839 b 139 249 176 446 144 333 b 394 -17 129 56 228 -11 z m 158 310 b 168 356 161 324 164 339 l 181 356 b 171 310 176 339 174 324 z m 175 247 b 292 583 179 328 211 433 b 760 954 421 818 532 954 b 965 746 911 954 972 885 b 846 374 960 633 928 526 b 396 18 718 135 596 11 b 175 247 239 24 167 76 z m 204 244 b 406 42 201 90 275 42 b 640 135 501 42 582 74 b 410 60 618 133 550 60 b 235 186 294 60 233 101 b 335 276 236 244 279 276 b 371 257 364 276 367 257 b 428 435 374 299 390 363 b 269 306 415 435 356 306 b 219 344 214 306 225 344 b 204 244 213 318 204 293 z m 219 492 b 269 593 240 536 267 586 b 338 708 286 621 318 679 l 351 708 b 279 588 326 672 304 631 b 231 492 276 583 253 538 z m 278 14 l 283 22 b 446 7 343 6 400 3 l 442 -3 b 278 14 386 -6 331 -3 z m 293 532 b 497 658 306 532 371 658 b 536 647 514 658 531 653 b 611 750 568 699 597 742 b 367 661 529 718 439 683 b 293 532 350 633 324 586 z m 400 256 b 449 197 399 218 421 197 b 644 451 483 196 524 214 b 744 718 729 618 744 678 b 701 771 744 749 728 771 b 500 518 660 771 618 756 b 400 256 418 351 401 290 z m 403 799 b 504 900 436 840 461 865 l 522 900 b 415 799 479 868 450 840 z m 410 729 b 896 886 536 797 769 868 b 831 918 875 906 847 913 b 586 850 807 903 586 813 b 754 929 588 897 754 926 b 521 844 661 929 586 899 b 410 729 486 817 449 781 z m 428 318 b 443 361 432 331 436 344 l 454 361 b 439 318 447 344 443 331 z m 436 254 b 532 503 438 285 450 342 b 693 736 642 714 675 736 b 710 714 703 735 710 731 b 613 468 707 685 694 629 b 451 233 504 254 469 233 b 436 254 443 235 435 239 z m 493 3 l 497 14 b 535 25 510 17 522 19 l 531 13 b 493 3 519 8 507 6 z m 538 221 b 731 304 551 221 635 304 b 758 289 753 304 756 297 b 865 471 771 303 836 410 b 669 335 858 471 782 335 b 629 363 629 335 633 363 b 538 221 603 303 565 246 z m 543 315 b 583 385 565 353 572 367 l 597 385 b 558 315 588 368 581 353 z m 631 478 b 693 613 671 561 682 589 l 707 613 b 644 478 696 589 686 563 z m 642 996 l 715 996 l 756 1064 l 779 1024 b 833 996 789 1007 804 996 b 906 1033 867 996 885 1007 l 968 1113 l 894 1113 l 847 1036 l 822 1078 b 774 1113 807 1103 796 1113 b 706 1076 746 1113 728 1106 z m 685 1017 l 710 1049 l 719 1047 l 703 1017 z m 718 688 b 722 718 721 696 722 707 l 733 718 b 729 688 735 711 733 696 z m 726 786 b 765 672 785 779 775 714 b 897 765 769 672 810 765 b 936 736 931 765 932 736 b 918 849 943 789 931 833 b 726 786 892 831 785 797 z m 769 1086 l 788 1086 l 825 1022 l 814 1022 z m 878 1051 l 907 1094 l 926 1094 l 892 1051 z m 958 868 l 969 868 b 985 822 976 854 981 839 l 974 822 b 958 868 969 839 965 854 z "},"P":{"ha":692,"x_min":0,"x_max":0,"o":"m 21 0 l 321 0 l 410 196 b 464 194 428 194 446 193 b 972 706 803 196 972 479 b 679 972 972 872 900 972 l 464 972 z m 69 31 l 483 940 l 679 940 b 888 879 778 940 846 921 b 942 706 924 842 942 785 b 460 224 942 481 774 224 b 390 228 444 224 417 224 l 301 31 z m 113 57 l 268 57 b 175 74 267 65 231 74 b 147 86 154 74 147 76 b 171 147 147 97 156 114 b 503 272 213 240 274 272 b 567 264 532 272 557 268 b 831 436 672 293 768 358 b 329 296 706 336 638 296 b 251 358 239 296 256 358 z m 121 197 l 151 261 l 164 261 l 133 197 z m 142 10 l 147 21 l 283 21 l 278 10 z m 190 347 l 251 481 l 263 481 l 201 347 z m 285 556 l 386 778 l 399 778 l 296 556 z m 326 532 b 536 669 333 532 429 669 b 563 658 556 669 560 658 l 604 753 b 399 685 538 725 458 700 z m 342 96 l 354 121 l 365 121 l 353 96 z m 422 856 l 443 901 l 454 901 l 433 856 z m 424 749 b 854 868 597 815 700 839 b 789 901 826 892 822 889 b 499 832 649 840 499 804 b 692 915 499 878 692 913 l 503 915 z m 443 204 l 447 214 b 563 224 489 213 526 217 l 558 213 b 443 204 522 206 485 203 z m 478 406 b 531 410 478 406 506 406 b 718 651 621 421 707 528 b 643 731 724 708 700 731 l 624 731 z m 514 463 l 533 506 l 544 506 l 526 463 z m 526 440 l 643 700 b 688 651 679 700 693 690 b 526 440 676 581 626 451 z m 622 228 l 625 240 b 653 251 633 243 647 249 l 650 239 b 622 228 642 235 631 231 z m 624 482 b 671 560 643 503 664 539 l 682 560 b 636 482 674 535 654 504 z m 626 758 b 743 654 739 758 754 701 b 867 771 750 654 803 771 b 914 731 900 771 910 731 b 885 836 917 753 903 819 b 626 758 853 824 731 781 z m 913 864 l 925 864 b 946 819 933 850 940 836 l 935 819 b 913 864 929 836 921 851 z "},"Q":{"ha":743,"x_min":0,"x_max":0,"o":"m 421 17 l 411 -67 l 731 -67 l 700 96 b 890 357 781 172 833 257 b 1025 715 982 514 1017 631 b 771 988 1040 900 936 988 b 292 615 553 988 431 857 b 157 265 201 463 164 349 b 360 11 143 99 225 11 b 421 17 383 11 403 13 z m 167 229 b 179 328 165 258 172 306 l 189 328 b 176 229 182 306 176 258 z m 189 265 b 319 603 196 346 231 453 b 769 956 456 838 564 956 b 993 715 925 956 1008 886 b 863 369 985 633 954 524 b 665 104 801 265 750 181 l 692 -35 l 446 -35 l 457 51 b 361 40 414 42 378 40 b 189 265 238 40 175 110 z m 218 282 b 368 65 197 114 256 65 b 454 76 396 65 429 71 b 481 53 476 82 482 75 l 476 -8 l 657 -8 b 563 8 657 -8 636 8 b 497 51 501 8 494 15 b 503 108 500 71 501 96 b 372 83 478 99 428 83 b 238 203 264 83 236 126 b 353 292 239 261 300 292 b 388 272 382 292 383 272 b 457 450 393 314 415 378 b 281 321 447 450 376 321 b 235 360 231 321 239 360 b 218 282 226 335 222 308 z m 226 467 b 249 518 233 483 242 500 l 260 518 b 235 467 251 500 242 483 z m 261 42 l 267 49 b 403 32 307 29 350 26 l 400 24 b 261 42 349 18 307 21 z m 288 588 b 329 658 296 603 318 642 l 339 658 b 297 588 329 640 306 603 z m 310 532 b 528 658 315 532 399 658 b 567 647 544 658 561 653 b 643 754 599 699 628 738 b 385 661 554 717 457 683 b 310 532 367 633 339 586 z m 383 743 b 529 901 424 800 464 849 l 547 901 b 394 743 482 854 433 796 z m 411 251 b 460 193 404 210 432 193 b 667 451 496 193 546 211 b 778 717 753 621 775 683 b 728 775 779 749 760 775 b 521 517 692 775 650 757 b 411 251 429 347 417 286 z m 435 729 b 918 888 563 797 792 869 b 850 921 907 900 879 917 b 603 851 831 908 603 814 b 771 931 604 899 771 928 b 538 846 678 931 603 900 b 435 729 503 818 469 781 z m 443 314 b 458 357 447 326 451 340 l 469 357 b 454 314 463 340 458 326 z m 450 251 b 554 500 451 281 467 338 b 724 736 671 714 706 736 b 739 717 733 736 740 729 b 633 468 736 688 722 629 b 464 232 518 254 482 232 b 450 251 456 232 447 236 z m 475 -56 l 476 -44 l 599 -44 l 599 -56 z m 540 278 b 621 414 563 307 588 350 l 635 414 b 554 278 603 353 576 308 z m 549 215 b 744 301 561 215 646 301 b 769 275 774 301 765 275 b 888 471 781 289 857 410 b 697 335 876 471 814 335 b 668 393 647 335 672 393 b 549 215 625 306 579 240 z m 626 -56 l 626 -44 l 682 -44 l 685 -56 z m 656 483 b 715 607 682 533 701 574 l 728 607 b 669 483 715 575 696 535 z m 731 642 b 750 696 740 665 746 683 l 763 696 b 743 642 758 682 753 665 z m 738 786 b 783 671 800 778 801 722 b 929 783 792 671 842 783 b 975 744 969 783 971 744 b 946 851 982 797 958 836 b 738 786 919 831 804 799 z m 978 872 l 989 872 b 1006 826 997 858 1001 843 l 994 826 b 978 872 990 843 986 858 z "},"R":{"ha":696,"x_min":0,"x_max":0,"o":"m 15 0 l 315 0 l 429 250 b 482 253 447 250 464 251 l 475 0 l 781 0 l 735 332 l 738 335 b 971 728 892 424 971 575 b 683 972 971 911 867 972 l 458 972 z m 64 31 l 478 942 l 683 942 b 940 728 849 942 940 893 b 724 361 940 574 857 436 l 701 349 l 744 31 l 507 31 l 514 289 b 410 282 489 285 464 282 l 296 31 z m 104 57 l 276 57 b 203 74 268 67 228 74 b 146 106 160 74 146 82 b 311 276 146 164 243 276 b 364 240 343 276 361 264 l 442 411 b 268 303 431 411 381 303 b 240 363 238 303 236 326 z m 121 207 l 164 301 l 175 301 l 132 207 z m 175 10 l 182 21 l 286 21 l 281 10 z m 188 354 l 207 394 l 217 394 l 199 354 z m 239 467 l 344 697 l 356 697 l 249 467 z m 322 538 b 528 675 329 538 421 675 b 554 664 547 675 551 664 l 594 756 b 394 690 528 728 454 706 z m 332 85 l 347 118 l 357 118 l 342 85 z m 378 772 l 436 899 l 447 899 l 389 772 z m 418 749 b 856 868 535 796 731 853 b 785 903 839 883 822 892 b 493 832 746 874 493 796 b 685 917 493 883 685 911 l 499 917 z m 478 431 b 683 539 563 431 626 443 b 726 674 704 574 726 631 b 650 744 726 721 701 744 l 618 744 z m 489 129 l 492 235 l 503 235 l 500 129 z m 511 481 l 528 518 l 540 518 l 524 481 z m 518 10 l 518 21 l 618 21 l 619 10 z m 526 464 l 639 714 l 650 714 b 696 674 683 714 696 703 b 656 554 696 639 675 588 b 538 465 633 518 596 472 z m 536 57 l 714 57 b 639 74 714 57 704 74 b 554 144 575 74 553 90 b 678 306 556 249 607 264 l 674 340 b 542 294 636 319 582 301 z m 650 21 l 692 21 l 693 10 l 651 10 z m 660 767 b 751 654 749 767 764 708 b 865 771 758 653 788 771 b 914 732 904 771 910 732 b 883 838 915 760 901 819 b 660 767 846 819 731 781 z m 674 568 l 686 596 l 697 596 l 686 568 z m 694 618 b 706 674 701 638 706 657 b 703 696 706 682 704 689 l 713 696 b 715 674 714 689 715 682 b 706 618 715 657 711 638 z m 715 318 l 726 322 l 733 269 l 722 269 z m 915 868 l 928 868 b 950 814 938 853 944 835 l 939 814 b 915 868 933 835 925 853 z "},"Ŕ":{"ha":696,"x_min":0,"x_max":0,"o":"m 15 0 l 315 0 l 429 250 b 482 253 447 250 464 251 l 475 0 l 781 0 l 735 332 l 738 335 b 971 728 892 424 971 575 b 683 972 971 911 867 972 l 458 972 z m 64 31 l 478 942 l 683 942 b 940 728 849 942 940 893 b 724 361 940 574 857 436 l 701 349 l 744 31 l 507 31 l 514 289 b 410 282 489 285 464 282 l 296 31 z m 104 57 l 276 57 b 203 74 268 67 228 74 b 146 106 160 74 146 82 b 311 276 146 164 243 276 b 364 240 343 276 361 264 l 442 411 b 268 303 431 411 381 303 b 240 363 238 303 236 326 z m 121 207 l 164 301 l 175 301 l 132 207 z m 175 10 l 182 21 l 286 21 l 281 10 z m 188 354 l 207 394 l 217 394 l 199 354 z m 239 467 l 344 697 l 356 697 l 249 467 z m 322 538 b 528 675 329 538 421 675 b 554 664 547 675 551 664 l 594 756 b 394 690 528 728 454 706 z m 332 85 l 347 118 l 357 118 l 342 85 z m 378 772 l 436 899 l 447 899 l 389 772 z m 418 749 b 856 868 535 796 731 853 b 785 903 839 883 822 892 b 493 832 746 874 493 796 b 685 917 493 883 685 911 l 499 917 z m 478 431 b 683 539 563 431 626 443 b 726 674 704 574 726 631 b 650 744 726 721 701 744 l 618 744 z m 489 129 l 492 235 l 503 235 l 500 129 z m 511 481 l 528 518 l 540 518 l 524 481 z m 518 10 l 518 21 l 618 21 l 619 10 z m 526 464 l 639 714 l 650 714 b 696 674 683 714 696 703 b 656 554 696 639 675 588 b 538 465 633 518 596 472 z m 536 57 l 714 57 b 639 74 714 57 704 74 b 554 144 575 74 553 90 b 678 306 556 249 607 264 l 674 340 b 542 294 636 319 582 301 z m 650 21 l 692 21 l 693 10 l 651 10 z m 660 767 b 751 654 749 767 764 708 b 865 771 758 653 788 771 b 914 732 904 771 910 732 b 883 838 915 760 901 819 b 660 767 846 819 731 781 z m 671 996 l 733 996 l 863 1113 l 753 1113 z m 674 568 l 686 596 l 697 596 l 686 568 z m 694 618 b 706 674 701 638 706 657 b 703 696 706 682 704 689 l 713 696 b 715 674 714 689 715 682 b 706 618 715 657 711 638 z m 715 318 l 726 322 l 733 269 l 722 269 z m 724 1025 l 768 1086 l 794 1086 l 728 1025 z m 915 868 l 928 868 b 950 814 938 853 944 835 l 939 814 b 915 868 933 835 925 853 z "},"Ř":{"ha":696,"x_min":0,"x_max":0,"o":"m 15 0 l 315 0 l 429 250 b 482 253 447 250 464 251 l 475 0 l 781 0 l 735 332 l 738 335 b 971 728 892 424 971 575 b 683 972 971 911 867 972 l 458 972 z m 64 31 l 478 942 l 683 942 b 940 728 849 942 940 893 b 724 361 940 574 857 436 l 701 349 l 744 31 l 507 31 l 514 289 b 410 282 489 285 464 282 l 296 31 z m 104 57 l 276 57 b 203 74 268 67 228 74 b 146 106 160 74 146 82 b 311 276 146 164 243 276 b 364 240 343 276 361 264 l 442 411 b 268 303 431 411 381 303 b 240 363 238 303 236 326 z m 121 207 l 164 301 l 175 301 l 132 207 z m 175 10 l 182 21 l 286 21 l 281 10 z m 188 354 l 207 394 l 217 394 l 199 354 z m 239 467 l 344 697 l 356 697 l 249 467 z m 322 538 b 528 675 329 538 421 675 b 554 664 547 675 551 664 l 594 756 b 394 690 528 728 454 706 z m 332 85 l 347 118 l 357 118 l 342 85 z m 378 772 l 436 899 l 447 899 l 389 772 z m 418 749 b 856 868 535 796 731 853 b 785 903 839 883 822 892 b 493 832 746 874 493 796 b 685 917 493 883 685 911 l 499 917 z m 478 431 b 683 539 563 431 626 443 b 726 674 704 574 726 631 b 650 744 726 721 701 744 l 618 744 z m 489 129 l 492 235 l 503 235 l 500 129 z m 511 481 l 528 518 l 540 518 l 524 481 z m 518 10 l 518 21 l 618 21 l 619 10 z m 526 464 l 639 714 l 650 714 b 696 674 683 714 696 703 b 656 554 696 639 675 588 b 538 465 633 518 596 472 z m 536 57 l 714 57 b 639 74 714 57 704 74 b 554 144 575 74 553 90 b 678 306 556 249 607 264 l 674 340 b 542 294 636 319 582 301 z m 582 1113 l 661 996 l 729 996 l 892 1113 l 779 1113 l 707 1038 l 681 1113 z m 633 1089 l 656 1089 l 679 1032 l 674 1032 b 633 1089 663 1042 647 1069 z m 650 21 l 692 21 l 693 10 l 651 10 z m 660 767 b 751 654 749 767 764 708 b 865 771 758 653 788 771 b 914 732 904 771 910 732 b 883 838 915 760 901 819 b 660 767 846 819 731 781 z m 674 568 l 686 596 l 697 596 l 686 568 z m 694 618 b 706 674 701 638 706 657 b 703 696 706 682 704 689 l 713 696 b 715 674 714 689 715 682 b 706 618 715 657 711 638 z m 715 318 l 726 322 l 733 269 l 722 269 z m 764 1064 l 790 1089 l 813 1089 l 778 1063 z m 915 868 l 928 868 b 950 814 938 853 944 835 l 939 814 b 915 868 933 835 925 853 z "},"S":{"ha":621,"x_min":0,"x_max":0,"o":"m 364 -12 b 769 342 599 -12 769 135 b 668 544 769 408 739 469 b 592 658 604 607 592 635 b 665 718 592 697 618 718 b 878 642 764 718 836 672 l 1000 908 b 699 986 947 947 833 986 b 304 626 471 986 304 836 b 399 422 304 531 353 476 b 478 317 440 372 478 350 b 396 264 478 288 458 264 b 182 329 331 264 244 293 l 58 57 b 364 -12 142 13 238 -12 z m 99 71 l 196 288 b 396 233 258 257 335 233 b 508 317 478 233 508 272 b 458 403 508 349 489 371 b 422 442 447 414 435 426 b 335 626 376 496 335 542 b 699 956 335 822 483 956 b 961 897 811 956 907 928 l 865 688 b 665 749 819 717 751 749 b 561 658 603 749 561 717 b 646 524 561 625 576 590 b 739 342 714 451 739 401 b 364 18 739 149 588 18 b 99 71 254 18 172 36 z m 133 85 b 363 42 201 57 268 42 b 629 135 476 42 564 74 b 364 57 606 135 525 57 b 181 144 261 57 181 81 b 251 236 176 210 247 233 b 208 253 235 242 225 246 z m 139 207 l 176 289 l 185 286 l 147 204 z m 233 8 l 236 18 b 364 8 275 11 317 8 b 411 10 381 8 396 8 l 408 0 b 364 -1 394 -1 379 -1 b 233 8 315 -1 272 3 z m 281 226 b 407 196 282 217 340 196 b 654 304 539 196 578 304 b 706 276 697 304 703 276 b 713 342 711 303 713 315 b 649 482 713 396 685 442 b 671 418 644 482 671 451 b 588 332 671 367 639 332 b 511 383 542 332 529 383 b 535 317 524 361 535 349 b 396 207 535 249 494 207 b 281 226 353 207 317 215 z m 315 643 b 326 715 317 668 321 692 l 336 715 b 325 643 331 693 326 668 z m 326 554 l 336 554 b 354 515 342 540 347 528 l 343 515 b 326 554 336 528 331 540 z m 339 757 b 449 899 363 814 400 863 l 464 899 b 350 757 413 863 374 815 z m 363 663 b 385 535 357 638 360 572 b 490 658 385 576 400 658 b 536 643 528 658 529 643 b 535 658 535 649 535 654 b 557 729 535 689 553 721 b 363 663 500 710 407 676 z m 372 715 b 915 890 497 779 729 853 b 821 918 858 910 840 914 b 501 828 774 899 501 782 b 732 928 501 903 732 925 b 707 929 725 929 717 929 b 372 715 519 929 406 835 z m 444 4 l 449 14 b 504 26 468 17 486 21 l 501 17 b 444 4 483 11 464 7 z m 483 290 b 489 317 488 299 489 307 b 488 325 489 319 489 322 l 499 325 l 499 317 b 494 290 499 307 497 299 z m 571 650 l 571 658 b 575 686 571 668 572 678 l 585 686 b 581 658 582 678 581 669 l 581 650 z m 675 774 b 796 751 722 775 761 764 b 878 786 811 768 849 786 l 907 842 b 675 774 793 804 758 794 z m 710 460 l 719 463 b 743 419 729 447 736 433 l 733 415 b 710 460 728 431 719 444 z m 710 726 l 714 735 b 853 683 771 728 817 706 l 849 675 b 710 726 813 696 767 718 z "},"Ś":{"ha":615,"x_min":0,"x_max":0,"o":"m 353 -12 b 758 342 588 -12 758 135 b 657 544 758 408 728 469 b 581 658 593 607 581 635 b 654 718 581 697 607 718 b 867 642 753 718 825 672 l 989 908 b 688 986 936 947 822 986 b 293 626 460 986 293 836 b 388 422 293 531 342 476 b 467 317 429 372 467 350 b 385 264 467 288 447 264 b 171 329 319 264 233 293 l 47 57 b 353 -12 131 13 226 -12 z m 88 71 l 185 288 b 385 233 247 257 324 233 b 497 317 467 233 497 272 b 447 403 497 349 478 371 b 411 442 436 414 424 426 b 324 626 365 496 324 542 b 688 956 324 822 472 956 b 950 897 800 956 896 928 l 854 688 b 654 749 808 717 740 749 b 550 658 592 749 550 717 b 635 524 550 625 565 590 b 728 342 703 451 728 401 b 353 18 728 149 576 18 b 88 71 243 18 161 36 z m 122 85 b 351 42 190 57 257 42 b 618 135 465 42 553 74 b 353 57 594 135 514 57 b 169 144 250 57 169 81 b 240 236 165 210 236 233 b 197 253 224 242 214 246 z m 128 207 l 165 289 l 174 286 l 136 204 z m 222 8 l 225 18 b 353 8 264 11 306 8 b 400 10 369 8 385 8 l 397 0 b 353 -1 383 -1 368 -1 b 222 8 304 -1 261 3 z m 269 226 b 396 196 271 217 329 196 b 643 304 528 196 567 304 b 694 276 686 304 692 276 b 701 342 700 303 701 315 b 638 482 701 396 674 442 b 660 418 633 482 660 451 b 576 332 660 367 628 332 b 500 383 531 332 518 383 b 524 317 513 361 524 349 b 385 207 524 249 483 207 b 269 226 342 207 306 215 z m 304 643 b 315 715 306 668 310 692 l 325 715 b 314 643 319 693 315 668 z m 315 554 l 325 554 b 343 515 331 540 336 528 l 332 515 b 315 554 325 528 319 540 z m 328 757 b 438 899 351 814 389 863 l 453 899 b 339 757 401 863 363 815 z m 351 663 b 374 535 346 638 349 572 b 479 658 374 576 389 658 b 525 643 517 658 518 643 b 524 658 524 649 524 654 b 546 729 524 689 542 721 b 351 663 489 710 396 676 z m 361 715 b 904 890 486 779 718 853 b 810 918 847 910 829 914 b 490 828 763 899 490 782 b 721 928 490 903 721 925 b 696 929 714 929 706 929 b 361 715 508 929 394 835 z m 433 4 l 438 14 b 493 26 457 17 475 21 l 490 17 b 433 4 472 11 453 7 z m 472 290 b 478 317 476 299 478 307 b 476 325 478 319 478 322 l 488 325 l 488 317 b 483 290 488 307 486 299 z m 560 650 l 560 658 b 564 686 560 668 561 678 l 574 686 b 569 658 571 678 569 669 l 569 650 z m 658 996 l 721 996 l 850 1113 l 740 1113 z m 664 774 b 785 751 711 775 750 764 b 867 786 800 768 838 786 l 896 842 b 664 774 782 804 747 794 z m 699 460 l 708 463 b 732 419 718 447 725 433 l 722 415 b 699 460 717 431 708 444 z m 699 726 l 703 735 b 842 683 760 728 806 706 l 838 675 b 699 726 801 696 756 718 z m 711 1025 l 756 1086 l 782 1086 l 715 1025 z "},"Š":{"ha":615,"x_min":0,"x_max":0,"o":"m 353 -12 b 758 342 588 -12 758 135 b 657 544 758 408 728 469 b 581 658 593 607 581 635 b 654 718 581 697 607 718 b 867 642 753 718 825 672 l 989 908 b 688 986 936 947 822 986 b 293 626 460 986 293 836 b 388 422 293 531 342 476 b 467 317 429 372 467 350 b 385 264 467 288 447 264 b 171 329 319 264 233 293 l 47 57 b 353 -12 131 13 226 -12 z m 88 71 l 185 288 b 385 233 247 257 324 233 b 497 317 467 233 497 272 b 447 403 497 349 478 371 b 411 442 436 414 424 426 b 324 626 365 496 324 542 b 688 956 324 822 472 956 b 950 897 800 956 896 928 l 854 688 b 654 749 808 717 740 749 b 550 658 592 749 550 717 b 635 524 550 625 565 590 b 728 342 703 451 728 401 b 353 18 728 149 576 18 b 88 71 243 18 161 36 z m 122 85 b 351 42 190 57 257 42 b 618 135 465 42 553 74 b 353 57 594 135 514 57 b 169 144 250 57 169 81 b 240 236 165 210 236 233 b 197 253 224 242 214 246 z m 128 207 l 165 289 l 174 286 l 136 204 z m 222 8 l 225 18 b 353 8 264 11 306 8 b 400 10 369 8 385 8 l 397 0 b 353 -1 383 -1 368 -1 b 222 8 304 -1 261 3 z m 269 226 b 396 196 271 217 329 196 b 643 304 528 196 567 304 b 694 276 686 304 692 276 b 701 342 700 303 701 315 b 638 482 701 396 674 442 b 660 418 633 482 660 451 b 576 332 660 367 628 332 b 500 383 531 332 518 383 b 524 317 513 361 524 349 b 385 207 524 249 483 207 b 269 226 342 207 306 215 z m 304 643 b 315 715 306 668 310 692 l 325 715 b 314 643 319 693 315 668 z m 315 554 l 325 554 b 343 515 331 540 336 528 l 332 515 b 315 554 325 528 319 540 z m 328 757 b 438 899 351 814 389 863 l 453 899 b 339 757 401 863 363 815 z m 351 663 b 374 535 346 638 349 572 b 479 658 374 576 389 658 b 525 643 517 658 518 643 b 524 658 524 649 524 654 b 546 729 524 689 542 721 b 351 663 489 710 396 676 z m 361 715 b 904 890 486 779 718 853 b 810 918 847 910 829 914 b 490 828 763 899 490 782 b 721 928 490 903 721 925 b 696 929 714 929 706 929 b 361 715 508 929 394 835 z m 433 4 l 438 14 b 493 26 457 17 475 21 l 490 17 b 433 4 472 11 453 7 z m 472 290 b 478 317 476 299 478 307 b 476 325 478 319 478 322 l 488 325 l 488 317 b 483 290 488 307 486 299 z m 560 650 l 560 658 b 564 686 560 668 561 678 l 574 686 b 569 658 571 678 569 669 l 569 650 z m 586 1113 l 665 996 l 733 996 l 896 1113 l 783 1113 l 711 1038 l 685 1113 z m 638 1089 l 660 1089 l 683 1032 l 678 1032 b 638 1089 667 1042 651 1069 z m 664 774 b 785 751 711 775 750 764 b 867 786 800 768 838 786 l 896 842 b 664 774 782 804 747 794 z m 699 726 l 703 735 b 842 683 760 728 806 706 l 838 675 b 699 726 801 696 756 718 z m 768 1064 l 794 1089 l 817 1089 l 782 1063 z "},"T":{"ha":574,"x_min":0,"x_max":0,"o":"m 133 0 l 436 0 l 754 699 l 878 699 l 1003 972 l 451 972 l 326 699 l 451 699 z m 185 31 l 503 731 l 378 731 l 474 942 l 954 942 l 858 731 l 735 731 l 417 31 z m 219 160 l 258 244 l 269 244 l 231 160 z m 226 57 l 396 57 b 310 74 396 68 358 74 b 269 101 279 74 269 79 b 447 286 269 160 381 286 b 488 258 485 286 485 258 l 569 438 b 403 317 561 438 494 317 b 368 369 363 317 372 369 z m 229 10 l 236 21 l 272 21 l 265 10 z m 292 10 l 297 21 l 404 21 l 399 10 z m 318 376 l 338 419 l 349 419 l 329 376 z m 367 757 l 376 779 l 388 779 l 378 757 z m 374 497 l 451 669 l 463 669 l 385 497 z m 392 814 l 431 899 l 442 899 l 403 814 z m 406 710 l 411 721 l 447 721 l 442 710 z m 413 749 b 903 892 576 811 792 872 l 914 915 l 806 915 b 488 832 738 874 488 796 b 679 917 488 883 679 913 l 490 915 b 413 749 490 915 450 819 z m 461 572 b 654 710 468 574 547 710 b 688 699 681 710 685 699 l 700 726 b 739 757 710 749 717 757 l 843 757 l 879 836 b 536 735 801 801 610 751 z m 611 435 l 646 511 l 657 511 l 622 435 z m 772 710 l 778 721 l 808 721 l 803 710 z "},"Ť":{"ha":569,"x_min":0,"x_max":0,"o":"m 133 0 l 436 0 l 754 699 l 878 699 l 1003 972 l 451 972 l 326 699 l 451 699 z m 185 31 l 503 731 l 378 731 l 474 942 l 954 942 l 858 731 l 735 731 l 417 31 z m 219 160 l 258 244 l 269 244 l 231 160 z m 226 57 l 396 57 b 310 74 396 68 358 74 b 269 101 279 74 269 79 b 447 286 269 160 381 286 b 488 258 485 286 485 258 l 569 438 b 403 317 561 438 494 317 b 368 369 363 317 372 369 z m 229 10 l 236 21 l 272 21 l 265 10 z m 292 10 l 297 21 l 404 21 l 399 10 z m 318 376 l 338 419 l 349 419 l 329 376 z m 367 757 l 376 779 l 388 779 l 378 757 z m 374 497 l 451 669 l 463 669 l 385 497 z m 392 814 l 431 899 l 442 899 l 403 814 z m 406 710 l 411 721 l 447 721 l 442 710 z m 413 749 b 903 892 576 811 792 872 l 914 915 l 806 915 b 488 832 738 874 488 796 b 679 917 488 883 679 913 l 490 915 b 413 749 490 915 450 819 z m 461 572 b 654 710 468 574 547 710 b 688 699 681 710 685 699 l 700 726 b 739 757 710 749 717 757 l 843 757 l 879 836 b 536 735 801 801 610 751 z m 611 435 l 646 511 l 657 511 l 622 435 z m 621 1113 l 700 996 l 768 996 l 931 1113 l 818 1113 l 746 1038 l 719 1113 z m 672 1089 l 694 1089 l 718 1032 l 713 1032 b 672 1089 701 1042 686 1069 z m 772 710 l 778 721 l 808 721 l 803 710 z m 803 1064 l 829 1089 l 851 1089 l 817 1063 z "},"U":{"ha":706,"x_min":0,"x_max":0,"o":"m 436 -18 b 785 217 601 -18 706 42 l 1128 971 l 826 971 l 519 296 b 472 233 499 249 486 233 b 449 256 458 233 449 242 b 468 322 449 269 454 292 l 764 971 l 465 971 l 224 442 b 161 222 178 340 161 274 b 436 -18 161 85 253 -18 z m 171 224 b 200 357 172 258 178 299 l 211 357 b 182 224 189 299 183 258 z m 192 222 b 251 429 192 274 210 339 l 485 940 l 717 940 l 440 335 b 418 253 426 303 418 276 b 472 203 418 222 440 203 b 547 283 508 203 528 239 l 846 940 l 1081 940 l 757 229 b 626 61 719 147 678 94 b 436 17 578 31 517 17 b 192 222 296 17 192 82 z m 219 226 b 286 86 219 160 249 111 b 247 178 286 100 247 129 b 354 274 247 236 292 278 b 389 253 385 274 386 253 b 457 433 389 272 406 339 b 281 303 447 435 371 303 b 243 343 242 303 249 343 b 219 226 236 322 219 269 z m 232 435 b 233 438 232 436 233 436 l 254 482 l 265 482 l 243 435 z m 288 558 l 342 678 l 354 678 l 299 558 z m 331 64 b 444 47 364 50 411 47 b 688 158 568 46 647 110 b 483 67 663 147 608 85 b 331 64 389 53 346 65 z m 332 547 b 535 685 339 547 428 685 b 565 674 563 685 563 674 l 610 768 b 404 700 543 740 464 715 z m 343 4 l 347 14 b 436 4 374 7 404 4 b 497 7 457 4 478 6 l 493 -4 b 436 -7 475 -6 457 -7 b 343 4 401 -7 371 -3 z m 369 733 l 446 900 l 457 900 l 381 733 z m 432 757 b 635 828 486 783 588 818 l 669 901 b 518 831 632 869 554 829 b 500 844 507 831 500 835 b 613 914 500 885 613 910 l 503 914 z m 444 317 b 464 360 450 329 454 343 l 475 360 b 456 317 465 343 461 329 z m 529 1 l 535 13 b 582 26 551 17 567 21 l 575 13 b 529 1 561 8 546 4 z m 538 214 b 711 303 551 214 621 303 b 751 276 747 303 747 276 l 842 474 b 668 331 832 474 765 331 b 628 390 625 331 632 390 l 572 272 b 538 214 564 254 553 232 z m 613 476 l 656 569 l 667 569 l 624 476 z m 689 643 l 700 668 l 713 668 l 700 643 z m 721 715 l 807 903 l 818 903 l 732 715 z m 731 626 b 915 767 740 626 829 767 b 947 725 947 767 943 725 l 1010 857 b 801 779 944 825 872 799 z m 829 839 b 1031 907 894 867 978 893 l 1035 914 l 864 914 z "},"Ú":{"ha":704,"x_min":0,"x_max":0,"o":"m 436 -17 b 785 218 601 -17 706 43 l 1128 972 l 826 972 l 519 297 b 472 235 499 250 486 235 b 449 257 458 235 449 243 b 468 324 449 271 454 293 l 764 972 l 465 972 l 224 443 b 161 224 178 342 161 275 b 436 -17 161 86 253 -17 z m 171 225 b 200 358 172 260 178 300 l 211 358 b 182 225 189 300 183 260 z m 192 224 b 251 431 192 275 210 340 l 485 942 l 717 942 l 440 336 b 418 254 426 304 418 278 b 472 204 418 224 440 204 b 547 285 508 204 528 240 l 846 942 l 1081 942 l 757 231 b 626 63 719 149 678 96 b 436 18 578 32 517 18 b 192 224 296 18 192 83 z m 219 228 b 286 88 219 161 249 113 b 247 179 286 101 247 131 b 354 275 247 238 292 279 b 389 254 385 275 386 254 b 457 435 389 274 406 340 b 281 304 447 436 371 304 b 243 344 242 304 249 344 b 219 228 236 324 219 271 z m 232 436 b 233 439 232 438 233 438 l 254 483 l 265 483 l 243 436 z m 288 560 l 342 679 l 354 679 l 299 560 z m 331 65 b 444 49 364 51 411 49 b 688 160 568 47 647 111 b 483 68 663 149 608 86 b 331 65 389 54 346 67 z m 332 549 b 535 686 339 549 428 686 b 565 675 563 686 563 675 l 610 769 b 404 701 543 742 464 717 z m 343 6 l 347 15 b 436 6 374 8 404 6 b 497 8 457 6 478 7 l 493 -3 b 436 -6 475 -4 457 -6 b 343 6 401 -6 371 -1 z m 369 735 l 446 901 l 457 901 l 381 735 z m 432 758 b 635 829 486 785 588 819 l 669 903 b 518 832 632 871 554 831 b 500 846 507 832 500 836 b 613 915 500 886 613 911 l 503 915 z m 444 318 b 464 361 450 331 454 344 l 475 361 b 456 318 465 344 461 331 z m 529 3 l 535 14 b 582 28 551 18 567 22 l 575 14 b 529 3 561 10 546 6 z m 538 215 b 711 304 551 215 621 304 b 751 278 747 304 747 278 l 842 475 b 668 332 832 475 765 332 b 628 392 625 332 632 392 l 572 274 b 538 215 564 256 553 233 z m 613 478 l 656 571 l 667 571 l 624 478 z m 689 644 l 700 669 l 713 669 l 700 644 z m 721 717 l 807 904 l 818 904 l 732 717 z m 731 628 b 915 768 740 628 829 768 b 947 726 947 768 943 726 l 1010 858 b 801 781 944 826 872 800 z m 765 996 l 828 996 l 957 1113 l 847 1113 z m 818 1025 l 863 1086 l 889 1086 l 822 1025 z m 829 840 b 1031 908 894 868 978 894 l 1035 915 l 864 915 z "},"Û":{"ha":714,"x_min":0,"x_max":0,"o":"m 439 -18 b 788 217 604 -18 708 42 l 1131 971 l 829 971 l 522 296 b 475 233 501 249 489 233 b 451 256 461 233 451 242 b 471 322 451 269 457 292 l 767 971 l 468 971 l 226 442 b 164 222 181 340 164 274 b 439 -18 164 85 256 -18 z m 174 224 b 203 357 175 258 181 299 l 214 357 b 185 224 192 299 186 258 z m 194 222 b 254 429 194 274 213 339 l 488 940 l 719 940 l 443 335 b 421 253 429 303 421 276 b 475 203 421 222 443 203 b 550 283 511 203 531 239 l 849 940 l 1083 940 l 760 229 b 629 61 722 147 681 94 b 439 17 581 31 519 17 b 194 222 299 17 194 82 z m 222 226 b 289 86 222 160 251 111 b 250 178 289 100 250 129 b 357 274 250 236 294 278 b 392 253 388 274 389 253 b 460 433 392 272 408 339 b 283 303 450 435 374 303 b 246 343 244 303 251 343 b 222 226 239 322 222 269 z m 235 435 b 236 438 235 436 236 436 l 257 482 l 268 482 l 246 435 z m 290 558 l 344 678 l 357 678 l 301 558 z m 333 64 b 447 47 367 50 414 47 b 690 158 571 46 650 110 b 486 67 665 147 611 85 b 333 64 392 53 349 65 z m 335 547 b 538 685 342 547 431 685 b 568 674 565 685 565 674 l 613 768 b 407 700 546 740 467 715 z m 346 4 l 350 14 b 439 4 376 7 407 4 b 500 7 460 4 481 6 l 496 -4 b 439 -7 478 -6 460 -7 b 346 4 404 -7 374 -3 z m 372 733 l 449 900 l 460 900 l 383 733 z m 435 757 b 638 828 489 783 590 818 l 672 901 b 521 831 635 869 557 829 b 503 844 510 831 503 835 b 615 914 503 885 615 910 l 506 914 z m 447 317 b 467 360 453 329 457 343 l 478 360 b 458 317 468 343 464 329 z m 532 1 l 538 13 b 585 26 554 17 569 21 l 578 13 b 532 1 564 8 549 4 z m 540 214 b 714 303 554 214 624 303 b 754 276 750 303 750 276 l 844 474 b 671 331 835 474 768 331 b 631 390 628 331 635 390 l 575 272 b 540 214 567 254 556 232 z m 615 476 l 658 569 l 669 569 l 626 476 z m 656 1014 l 776 1014 l 846 1094 l 875 1014 l 965 1014 l 886 1131 l 818 1131 z m 692 643 l 703 668 l 715 668 l 703 643 z m 724 715 l 810 903 l 821 903 l 735 715 z m 733 626 b 918 767 743 626 832 767 b 950 725 950 767 946 725 l 1013 857 b 804 779 947 825 875 799 z m 735 1038 b 808 1094 758 1057 789 1085 l 814 1094 l 757 1038 z m 832 839 b 1033 907 897 867 981 893 l 1038 914 l 867 914 z m 883 1063 l 899 1064 b 918 1038 906 1054 913 1046 l 896 1038 z "},"Ü":{"ha":714,"x_min":0,"x_max":0,"o":"m 436 -17 b 785 218 601 -17 706 43 l 1128 972 l 826 972 l 519 297 b 472 235 499 250 486 235 b 449 257 458 235 449 243 b 468 324 449 271 454 293 l 764 972 l 465 972 l 224 443 b 161 224 178 342 161 275 b 436 -17 161 86 253 -17 z m 171 225 b 200 358 172 260 178 300 l 211 358 b 182 225 189 300 183 260 z m 192 224 b 251 431 192 275 210 340 l 485 942 l 717 942 l 440 336 b 418 254 426 304 418 278 b 472 204 418 224 440 204 b 547 285 508 204 528 240 l 846 942 l 1081 942 l 757 231 b 626 63 719 149 678 96 b 436 18 578 32 517 18 b 192 224 296 18 192 83 z m 219 228 b 286 88 219 161 249 113 b 247 179 286 101 247 131 b 354 275 247 238 292 279 b 389 254 385 275 386 254 b 457 435 389 274 406 340 b 281 304 447 436 371 304 b 243 344 242 304 249 344 b 219 228 236 324 219 271 z m 232 436 b 233 439 232 438 233 438 l 254 483 l 265 483 l 243 436 z m 288 560 l 342 679 l 354 679 l 299 560 z m 331 65 b 444 49 364 51 411 49 b 688 160 568 47 647 111 b 483 68 663 149 608 86 b 331 65 389 54 346 67 z m 332 549 b 535 686 339 549 428 686 b 565 675 563 686 563 675 l 610 769 b 404 701 543 742 464 717 z m 343 6 l 347 15 b 436 6 374 8 404 6 b 497 8 457 6 478 7 l 493 -3 b 436 -6 475 -4 457 -6 b 343 6 401 -6 371 -1 z m 369 735 l 446 901 l 457 901 l 381 735 z m 432 758 b 635 829 486 785 588 819 l 669 903 b 518 832 632 871 554 831 b 500 846 507 832 500 836 b 613 915 500 886 613 911 l 503 915 z m 444 318 b 464 361 450 331 454 344 l 475 361 b 456 318 465 344 461 331 z m 529 3 l 535 14 b 582 28 551 18 567 22 l 575 14 b 529 3 561 10 546 6 z m 538 215 b 711 304 551 215 621 304 b 751 278 747 304 747 278 l 842 475 b 668 332 832 475 765 332 b 628 392 625 332 632 392 l 572 274 b 538 215 564 256 553 233 z m 540 1014 l 776 1014 l 806 1079 l 569 1079 z m 581 1040 l 586 1053 l 631 1053 l 625 1040 z m 613 478 l 656 571 l 667 571 l 624 478 z m 651 1040 l 657 1053 l 765 1053 l 760 1040 z m 689 644 l 700 669 l 713 669 l 700 644 z m 721 717 l 807 904 l 818 904 l 732 717 z m 731 628 b 915 768 740 628 829 768 b 947 726 947 768 943 726 l 1010 858 b 801 781 944 826 872 800 z m 829 840 b 1031 908 894 868 978 894 l 1035 915 l 864 915 z m 832 1014 l 1068 1014 l 1097 1079 l 861 1079 z m 872 1040 l 878 1053 l 1057 1053 l 1051 1040 z "},"Ù":{"ha":658,"x_min":0,"x_max":0,"o":"m 439 -18 b 788 217 604 -18 708 42 l 1131 971 l 829 971 l 522 296 b 475 233 501 249 489 233 b 451 256 461 233 451 242 b 471 322 451 269 457 292 l 767 971 l 468 971 l 226 442 b 164 222 181 340 164 274 b 439 -18 164 85 256 -18 z m 174 224 b 203 357 175 258 181 299 l 214 357 b 185 224 192 299 186 258 z m 194 222 b 254 429 194 274 213 339 l 488 940 l 719 940 l 443 335 b 421 253 429 303 421 276 b 475 203 421 222 443 203 b 550 283 511 203 531 239 l 849 940 l 1083 940 l 760 229 b 629 61 722 147 681 94 b 439 17 581 31 519 17 b 194 222 299 17 194 82 z m 222 226 b 289 86 222 160 251 111 b 250 178 289 100 250 129 b 357 274 250 236 294 278 b 392 253 388 274 389 253 b 460 433 392 272 408 339 b 283 303 450 435 374 303 b 246 343 244 303 251 343 b 222 226 239 322 222 269 z m 235 435 b 236 438 235 436 236 436 l 257 482 l 268 482 l 246 435 z m 290 558 l 344 678 l 357 678 l 301 558 z m 333 64 b 447 47 367 50 414 47 b 690 158 571 46 650 110 b 486 67 665 147 611 85 b 333 64 392 53 349 65 z m 335 547 b 538 685 342 547 431 685 b 568 674 565 685 565 674 l 613 768 b 407 700 546 740 467 715 z m 346 4 l 350 14 b 439 4 376 7 407 4 b 500 7 460 4 481 6 l 496 -4 b 439 -7 478 -6 460 -7 b 346 4 404 -7 374 -3 z m 372 733 l 449 900 l 460 900 l 383 733 z m 435 757 b 638 828 489 783 590 818 l 672 901 b 521 831 635 869 557 829 b 503 844 510 831 503 835 b 615 914 503 885 615 910 l 506 914 z m 447 317 b 467 360 453 329 457 343 l 478 360 b 458 317 468 343 464 329 z m 532 1 l 538 13 b 585 26 554 17 569 21 l 578 13 b 532 1 564 8 549 4 z m 540 214 b 714 303 554 214 624 303 b 754 276 750 303 750 276 l 844 474 b 671 331 835 474 768 331 b 631 390 628 331 635 390 l 575 272 b 540 214 567 254 556 232 z m 615 476 l 658 569 l 669 569 l 626 476 z m 692 643 l 703 668 l 715 668 l 703 643 z m 703 1113 l 768 996 l 831 996 l 813 1113 z m 724 715 l 810 903 l 821 903 l 735 715 z m 733 626 b 918 767 743 626 832 767 b 950 725 950 767 946 725 l 1013 857 b 804 779 947 825 875 799 z m 756 1086 l 782 1086 l 793 1025 l 789 1025 z m 832 839 b 1033 907 897 867 981 893 l 1038 914 l 867 914 z "},"V":{"ha":714,"x_min":0,"x_max":0,"o":"m 160 0 l 542 0 l 1186 972 l 867 972 l 508 361 l 697 972 l 388 972 z m 199 31 l 413 942 l 656 942 l 478 336 l 518 336 l 889 942 l 1128 942 l 525 31 z m 213 172 l 232 258 l 243 258 l 224 172 z m 232 57 l 506 57 b 428 74 501 65 469 72 l 301 74 b 261 119 271 74 260 89 b 614 297 264 265 461 297 b 653 269 658 297 649 269 l 794 476 b 606 332 778 476 681 332 b 578 392 557 332 581 392 l 549 339 b 513 310 535 315 525 310 l 475 310 b 453 339 451 310 446 315 l 479 436 b 331 300 472 436 422 300 b 297 344 300 300 300 344 z m 249 339 l 257 376 l 268 376 l 260 339 z m 267 411 l 303 561 l 314 561 l 279 411 z m 307 10 l 314 21 l 419 21 l 413 10 z m 335 704 l 388 922 l 399 922 l 346 704 z m 349 549 b 519 686 356 549 413 686 b 551 675 547 686 549 675 l 578 771 b 385 701 517 743 440 717 z m 399 758 b 596 832 450 786 550 822 l 618 906 b 471 832 588 874 511 832 b 447 849 458 832 447 836 b 543 915 444 888 546 911 l 433 915 z m 443 10 l 451 21 l 506 21 l 499 10 z m 550 550 l 563 593 l 571 593 l 558 550 z m 558 432 l 588 482 l 599 482 l 568 432 z m 654 207 l 681 247 l 693 247 l 667 207 z m 669 618 l 769 785 l 781 785 l 681 618 z m 726 628 b 926 768 736 628 843 768 b 953 726 958 768 949 726 l 1035 850 b 822 781 963 818 896 796 z m 811 857 l 851 925 l 864 925 l 824 857 z m 858 840 b 1068 908 929 871 1013 894 l 1072 915 l 904 915 z "},"W":{"ha":1013,"x_min":0,"x_max":0,"o":"m 72 0 l 450 0 l 735 506 l 576 0 l 956 0 l 1464 972 l 1175 972 l 894 378 l 1053 972 l 849 972 l 449 381 l 725 972 l 435 972 z m 117 31 l 460 942 l 678 942 l 365 258 l 394 260 l 865 942 l 1014 942 l 838 260 l 864 260 l 1194 942 l 1414 942 l 938 31 l 618 31 l 796 610 l 764 610 l 432 31 z m 154 57 l 428 57 b 351 74 425 65 393 72 l 260 74 b 197 117 213 74 197 85 b 343 268 197 182 253 238 l 378 344 b 286 300 351 319 321 300 b 260 344 256 300 263 344 z m 163 210 l 249 439 l 260 439 l 174 210 z m 224 10 l 228 21 l 272 21 l 267 10 z m 293 560 l 343 694 l 354 694 l 304 560 z m 300 10 l 306 21 l 415 21 l 411 10 z m 340 549 b 504 688 347 549 403 688 b 528 676 524 688 525 676 l 571 769 b 399 701 515 742 457 717 z m 364 744 l 378 781 l 388 781 l 375 744 z m 407 863 l 429 922 l 439 922 l 417 863 z m 421 758 b 593 826 472 785 547 817 l 633 903 b 501 832 599 871 538 831 b 482 846 490 832 483 836 b 589 915 478 886 589 911 l 479 915 z m 428 264 b 500 285 450 275 471 285 b 532 261 535 285 529 261 l 621 413 b 472 328 610 413 564 336 z m 529 183 l 547 214 l 561 214 l 543 183 z m 556 524 l 667 688 l 679 688 l 565 524 z m 604 51 l 615 88 l 625 88 l 614 51 z m 629 135 l 676 283 l 686 283 l 639 135 z m 654 57 l 921 57 b 813 74 921 57 890 74 b 701 126 721 74 701 83 b 794 296 701 179 735 296 b 814 278 813 296 810 278 l 840 381 b 739 331 814 347 768 333 z m 661 10 l 669 21 l 838 21 l 831 10 z m 688 639 b 897 765 700 639 786 765 b 938 743 933 765 935 743 l 963 838 b 786 778 904 810 849 793 z m 701 367 l 729 454 l 739 454 l 711 367 z m 731 778 l 750 806 l 761 806 l 742 778 z m 779 850 l 819 910 l 831 910 l 790 850 z m 824 835 b 972 889 871 860 931 878 l 981 915 l 879 915 z m 858 10 l 865 21 l 921 21 l 913 10 z m 881 239 b 1010 300 885 239 940 300 b 1042 286 1035 300 1039 286 l 1151 496 b 969 332 1135 496 1065 332 b 940 361 938 332 946 361 z m 943 638 l 950 663 l 961 663 l 954 638 z m 1028 638 l 1113 818 l 1124 818 l 1038 638 z m 1088 657 b 1244 775 1097 657 1158 775 b 1283 746 1281 775 1279 746 l 1343 858 b 1151 788 1292 832 1218 804 z m 1129 850 l 1157 910 l 1167 910 l 1139 850 z m 1178 843 b 1360 915 1233 871 1322 903 l 1210 915 z "},"Ẃ":{"ha":1011,"x_min":0,"x_max":0,"o":"m 75 0 l 453 0 l 738 506 l 579 0 l 958 0 l 1467 972 l 1178 972 l 897 378 l 1056 972 l 851 972 l 451 381 l 728 972 l 438 972 z m 119 31 l 463 942 l 681 942 l 368 258 l 397 260 l 868 942 l 1017 942 l 840 260 l 867 260 l 1197 942 l 1417 942 l 940 31 l 621 31 l 799 610 l 767 610 l 435 31 z m 157 57 l 431 57 b 354 74 428 65 396 72 l 263 74 b 200 117 215 74 200 85 b 346 268 200 182 256 238 l 381 344 b 289 300 354 319 324 300 b 263 344 258 300 265 344 z m 165 210 l 251 439 l 263 439 l 176 210 z m 226 10 l 231 21 l 275 21 l 269 10 z m 296 560 l 346 694 l 357 694 l 307 560 z m 303 10 l 308 21 l 418 21 l 414 10 z m 343 549 b 507 688 350 549 406 688 b 531 676 526 688 528 676 l 574 769 b 401 701 518 742 460 717 z m 367 744 l 381 781 l 390 781 l 378 744 z m 410 863 l 432 922 l 442 922 l 419 863 z m 424 758 b 596 826 475 785 550 817 l 636 903 b 504 832 601 871 540 831 b 485 846 493 832 486 836 b 592 915 481 886 592 911 l 482 915 z m 431 264 b 503 285 453 275 474 285 b 535 261 538 285 532 261 l 624 413 b 475 328 613 413 567 336 z m 532 183 l 550 214 l 564 214 l 546 183 z m 558 524 l 669 688 l 682 688 l 568 524 z m 607 51 l 618 88 l 628 88 l 617 51 z m 632 135 l 679 283 l 689 283 l 642 135 z m 657 57 l 924 57 b 815 74 924 57 893 74 b 704 126 724 74 704 83 b 797 296 704 179 738 296 b 817 278 815 296 813 278 l 843 381 b 742 331 817 347 771 333 z m 664 10 l 672 21 l 840 21 l 833 10 z m 690 639 b 900 765 703 639 789 765 b 940 743 936 765 938 743 l 965 838 b 789 778 907 810 851 793 z m 704 367 l 732 454 l 742 454 l 714 367 z m 733 778 l 753 806 l 764 806 l 744 778 z m 782 850 l 822 910 l 833 910 l 793 850 z m 826 835 b 975 889 874 860 933 878 l 983 915 l 882 915 z m 861 10 l 868 21 l 924 21 l 915 10 z m 883 239 b 1013 300 888 239 943 300 b 1044 286 1038 300 1042 286 l 1154 496 b 972 332 1138 496 1068 332 b 943 361 940 332 949 361 z m 922 996 l 985 996 l 1114 1113 l 1004 1113 z m 946 638 l 953 663 l 964 663 l 957 638 z m 975 1025 l 1019 1086 l 1046 1086 l 979 1025 z m 1031 638 l 1115 818 l 1126 818 l 1040 638 z m 1090 657 b 1247 775 1100 657 1161 775 b 1286 746 1283 775 1282 746 l 1346 858 b 1154 788 1294 832 1221 804 z m 1132 850 l 1160 910 l 1169 910 l 1142 850 z m 1181 843 b 1363 915 1236 871 1325 903 l 1213 915 z "},"Ŵ":{"ha":981,"x_min":0,"x_max":0,"o":"m 56 0 l 433 0 l 718 506 l 560 0 l 939 0 l 1447 972 l 1158 972 l 878 378 l 1036 972 l 832 972 l 432 381 l 708 972 l 418 972 z m 100 31 l 443 942 l 661 942 l 349 258 l 378 260 l 849 942 l 997 942 l 821 260 l 847 260 l 1178 942 l 1397 942 l 921 31 l 601 31 l 779 610 l 747 610 l 415 31 z m 138 57 l 411 57 b 335 74 408 65 376 72 l 243 74 b 181 117 196 74 181 85 b 326 268 181 182 236 238 l 361 344 b 269 300 335 319 304 300 b 243 344 239 300 246 344 z m 146 210 l 232 439 l 243 439 l 157 210 z m 207 10 l 211 21 l 256 21 l 250 10 z m 276 560 l 326 694 l 338 694 l 288 560 z m 283 10 l 289 21 l 399 21 l 394 10 z m 324 549 b 488 688 331 549 386 688 b 511 676 507 688 508 676 l 554 769 b 382 701 499 742 440 717 z m 347 744 l 361 781 l 371 781 l 358 744 z m 390 863 l 413 922 l 422 922 l 400 863 z m 404 758 b 576 826 456 785 531 817 l 617 903 b 485 832 582 871 521 831 b 465 846 474 832 467 836 b 572 915 461 886 572 911 l 463 915 z m 411 264 b 483 285 433 275 454 285 b 515 261 518 285 513 261 l 604 413 b 456 328 593 413 547 336 z m 513 183 l 531 214 l 544 214 l 526 183 z m 539 524 l 650 688 l 663 688 l 549 524 z m 588 51 l 599 88 l 608 88 l 597 51 z m 613 135 l 660 283 l 669 283 l 622 135 z m 638 57 l 904 57 b 796 74 904 57 874 74 b 685 126 704 74 685 83 b 778 296 685 179 718 296 b 797 278 796 296 793 278 l 824 381 b 722 331 797 347 751 333 z m 644 10 l 653 21 l 821 21 l 814 10 z m 671 639 b 881 765 683 639 769 765 b 921 743 917 765 918 743 l 946 838 b 769 778 888 810 832 793 z m 685 367 l 713 454 l 722 454 l 694 367 z m 714 778 l 733 806 l 744 806 l 725 778 z m 763 850 l 803 910 l 814 910 l 774 850 z m 779 1014 l 900 1014 l 969 1094 l 999 1014 l 1089 1014 l 1010 1131 l 942 1131 z m 807 835 b 956 889 854 860 914 878 l 964 915 l 863 915 z m 842 10 l 849 21 l 904 21 l 896 10 z m 858 1038 b 932 1094 882 1057 913 1085 l 938 1094 l 881 1038 z m 864 239 b 993 300 868 239 924 300 b 1025 286 1018 300 1022 286 l 1135 496 b 953 332 1118 496 1049 332 b 924 361 921 332 929 361 z m 926 638 l 933 663 l 944 663 l 938 638 z m 1007 1063 l 1022 1064 b 1042 1038 1029 1054 1036 1046 l 1019 1038 z m 1011 638 l 1096 818 l 1107 818 l 1021 638 z m 1071 657 b 1228 775 1081 657 1142 775 b 1267 746 1264 775 1263 746 l 1326 858 b 1135 788 1275 832 1201 804 z m 1113 850 l 1140 910 l 1150 910 l 1122 850 z m 1161 843 b 1343 915 1217 871 1306 903 l 1193 915 z "},"Ẅ":{"ha":981,"x_min":0,"x_max":0,"o":"m 56 0 l 433 0 l 718 506 l 560 0 l 939 0 l 1447 972 l 1158 972 l 878 378 l 1036 972 l 832 972 l 432 381 l 708 972 l 418 972 z m 100 31 l 443 942 l 661 942 l 349 258 l 378 260 l 849 942 l 997 942 l 821 260 l 847 260 l 1178 942 l 1397 942 l 921 31 l 601 31 l 779 610 l 747 610 l 415 31 z m 138 57 l 411 57 b 335 74 408 65 376 72 l 243 74 b 181 117 196 74 181 85 b 326 268 181 182 236 238 l 361 344 b 269 300 335 319 304 300 b 243 344 239 300 246 344 z m 146 210 l 232 439 l 243 439 l 157 210 z m 207 10 l 211 21 l 256 21 l 250 10 z m 276 560 l 326 694 l 338 694 l 288 560 z m 283 10 l 289 21 l 399 21 l 394 10 z m 324 549 b 488 688 331 549 386 688 b 511 676 507 688 508 676 l 554 769 b 382 701 499 742 440 717 z m 347 744 l 361 781 l 371 781 l 358 744 z m 390 863 l 413 922 l 422 922 l 400 863 z m 404 758 b 576 826 456 785 531 817 l 617 903 b 485 832 582 871 521 831 b 465 846 474 832 467 836 b 572 915 461 886 572 911 l 463 915 z m 411 264 b 483 285 433 275 454 285 b 515 261 518 285 513 261 l 604 413 b 456 328 593 413 547 336 z m 513 183 l 531 214 l 544 214 l 526 183 z m 539 524 l 650 688 l 663 688 l 549 524 z m 588 51 l 599 88 l 608 88 l 597 51 z m 613 135 l 660 283 l 669 283 l 622 135 z m 638 57 l 904 57 b 796 74 904 57 874 74 b 685 126 704 74 685 83 b 778 296 685 179 718 296 b 797 278 796 296 793 278 l 824 381 b 722 331 797 347 751 333 z m 644 10 l 653 21 l 821 21 l 814 10 z m 671 639 b 881 765 683 639 769 765 b 921 743 917 765 918 743 l 946 838 b 769 778 888 810 832 793 z m 681 1014 l 917 1014 l 946 1079 l 710 1079 z m 685 367 l 713 454 l 722 454 l 694 367 z m 714 778 l 733 806 l 744 806 l 725 778 z m 721 1040 l 726 1053 l 771 1053 l 765 1040 z m 763 850 l 803 910 l 814 910 l 774 850 z m 792 1040 l 797 1053 l 906 1053 l 900 1040 z m 807 835 b 956 889 854 860 914 878 l 964 915 l 863 915 z m 842 10 l 849 21 l 904 21 l 896 10 z m 864 239 b 993 300 868 239 924 300 b 1025 286 1018 300 1022 286 l 1135 496 b 953 332 1118 496 1049 332 b 924 361 921 332 929 361 z m 926 638 l 933 663 l 944 663 l 938 638 z m 972 1014 l 1208 1014 l 1238 1079 l 1001 1079 z m 1011 638 l 1096 818 l 1107 818 l 1021 638 z m 1013 1040 l 1018 1053 l 1197 1053 l 1192 1040 z m 1071 657 b 1228 775 1081 657 1142 775 b 1267 746 1264 775 1263 746 l 1326 858 b 1135 788 1275 832 1201 804 z m 1113 850 l 1140 910 l 1150 910 l 1122 850 z m 1161 843 b 1343 915 1217 871 1306 903 l 1193 915 z "},"Ẁ":{"ha":981,"x_min":0,"x_max":0,"o":"m 56 0 l 433 0 l 718 506 l 560 0 l 939 0 l 1447 972 l 1158 972 l 878 378 l 1036 972 l 832 972 l 432 381 l 708 972 l 418 972 z m 100 31 l 443 942 l 661 942 l 349 258 l 378 260 l 849 942 l 997 942 l 821 260 l 847 260 l 1178 942 l 1397 942 l 921 31 l 601 31 l 779 610 l 747 610 l 415 31 z m 138 57 l 411 57 b 335 74 408 65 376 72 l 243 74 b 181 117 196 74 181 85 b 326 268 181 182 236 238 l 361 344 b 269 300 335 319 304 300 b 243 344 239 300 246 344 z m 146 210 l 232 439 l 243 439 l 157 210 z m 207 10 l 211 21 l 256 21 l 250 10 z m 276 560 l 326 694 l 338 694 l 288 560 z m 283 10 l 289 21 l 399 21 l 394 10 z m 324 549 b 488 688 331 549 386 688 b 511 676 507 688 508 676 l 554 769 b 382 701 499 742 440 717 z m 347 744 l 361 781 l 371 781 l 358 744 z m 390 863 l 413 922 l 422 922 l 400 863 z m 404 758 b 576 826 456 785 531 817 l 617 903 b 485 832 582 871 521 831 b 465 846 474 832 467 836 b 572 915 461 886 572 911 l 463 915 z m 411 264 b 483 285 433 275 454 285 b 515 261 518 285 513 261 l 604 413 b 456 328 593 413 547 336 z m 513 183 l 531 214 l 544 214 l 526 183 z m 539 524 l 650 688 l 663 688 l 549 524 z m 588 51 l 599 88 l 608 88 l 597 51 z m 613 135 l 660 283 l 669 283 l 622 135 z m 638 57 l 904 57 b 796 74 904 57 874 74 b 685 126 704 74 685 83 b 778 296 685 179 718 296 b 797 278 796 296 793 278 l 824 381 b 722 331 797 347 751 333 z m 644 10 l 653 21 l 821 21 l 814 10 z m 671 639 b 881 765 683 639 769 765 b 921 743 917 765 918 743 l 946 838 b 769 778 888 810 832 793 z m 685 367 l 713 454 l 722 454 l 694 367 z m 714 778 l 733 806 l 744 806 l 725 778 z m 763 850 l 803 910 l 814 910 l 774 850 z m 807 835 b 956 889 854 860 914 878 l 964 915 l 863 915 z m 842 10 l 849 21 l 904 21 l 896 10 z m 843 1113 l 908 996 l 971 996 l 953 1113 z m 864 239 b 993 300 868 239 924 300 b 1025 286 1018 300 1022 286 l 1135 496 b 953 332 1118 496 1049 332 b 924 361 921 332 929 361 z m 896 1086 l 922 1086 l 933 1025 l 929 1025 z m 926 638 l 933 663 l 944 663 l 938 638 z m 1011 638 l 1096 818 l 1107 818 l 1021 638 z m 1071 657 b 1228 775 1081 657 1142 775 b 1267 746 1264 775 1263 746 l 1326 858 b 1135 788 1275 832 1201 804 z m 1113 850 l 1140 910 l 1150 910 l 1122 850 z m 1161 843 b 1343 915 1217 871 1306 903 l 1193 915 z "},"X":{"ha":688,"x_min":0,"x_max":0,"o":"m -3 0 l 299 0 l 543 415 l 414 0 l 710 0 l 815 476 l 1150 972 l 849 972 l 604 557 l 733 972 l 438 972 l 332 496 z m 56 31 l 361 483 l 463 942 l 692 942 l 565 507 l 607 508 l 867 942 l 1092 942 l 786 489 l 685 31 l 456 31 l 586 465 l 547 465 l 281 31 z m 110 57 l 265 57 b 201 74 267 65 239 74 b 160 96 164 74 157 78 b 364 285 164 128 275 285 b 390 263 393 285 389 263 l 488 417 b 328 325 478 417 419 325 b 313 369 297 325 315 369 z m 143 10 l 150 21 l 176 21 l 168 10 z m 143 197 l 171 239 l 185 239 l 157 197 z m 190 10 l 197 21 l 267 21 l 258 10 z m 236 338 l 299 429 l 313 429 l 250 338 z m 322 81 l 332 96 l 344 96 l 335 81 z m 344 508 l 363 588 l 374 588 l 356 508 z m 381 674 l 389 708 l 400 708 l 392 674 z m 401 549 b 556 686 408 549 454 686 b 588 675 583 686 585 675 l 615 771 b 436 701 554 743 492 717 z m 406 782 l 431 899 l 442 899 l 417 782 z m 436 35 l 450 81 l 461 81 l 446 35 z m 447 758 b 629 832 499 786 583 822 l 654 906 b 519 832 624 874 560 832 b 496 849 507 832 496 836 b 589 915 493 888 592 911 l 482 915 z m 467 136 l 506 263 l 515 263 l 476 136 z m 494 57 l 658 57 b 592 71 656 69 633 71 b 533 126 547 71 532 85 b 672 304 536 194 596 304 b 710 278 710 304 706 278 l 760 476 b 633 332 750 476 714 332 b 583 371 590 332 586 371 z m 515 10 l 518 21 l 556 21 l 553 10 z m 531 342 l 546 392 l 556 392 l 540 342 z m 578 10 l 581 21 l 674 21 l 671 10 z m 640 600 l 700 700 l 713 700 l 653 600 z m 667 826 l 674 849 l 685 849 l 678 826 z m 706 628 b 889 761 718 628 806 761 b 915 726 921 761 911 726 l 994 843 b 801 781 931 815 876 800 z m 747 783 l 768 815 l 781 815 l 760 783 z m 793 858 l 817 897 l 829 897 l 806 858 z m 839 840 b 1042 908 904 871 985 894 l 1046 915 l 885 915 z "},"Y":{"ha":675,"x_min":0,"x_max":0,"o":"m 179 0 l 479 0 l 574 208 l 1174 972 l 860 972 l 574 531 l 685 972 l 375 972 l 289 240 z m 226 31 l 319 232 l 403 942 l 646 942 l 536 478 l 567 476 l 876 942 l 1110 942 l 547 225 l 460 31 z m 264 160 l 292 217 l 301 217 l 274 160 z m 268 57 l 440 57 b 356 74 440 65 407 74 b 310 99 328 74 310 78 b 343 174 310 113 332 149 b 378 253 361 213 369 242 b 506 297 396 281 429 297 b 549 269 550 297 544 269 l 675 433 b 431 318 660 435 581 318 b 360 357 367 318 365 357 l 350 256 b 335 201 347 226 347 229 z m 294 10 l 300 21 l 401 21 l 396 10 z m 313 351 l 333 542 l 344 542 l 324 351 z m 339 576 l 346 644 l 357 644 l 349 576 z m 363 783 l 376 897 l 388 897 l 374 783 z m 378 549 b 531 686 385 549 428 686 b 558 675 554 686 557 675 l 579 771 b 397 701 521 743 451 717 z m 406 758 b 589 831 454 786 543 821 l 607 906 b 471 832 579 874 511 832 b 444 849 458 832 446 836 b 533 915 438 888 538 911 l 424 915 z m 417 10 l 422 21 l 449 21 l 443 10 z m 493 81 l 508 113 l 519 113 l 504 81 z m 581 625 l 590 664 l 599 664 l 589 625 z m 694 628 b 876 756 715 628 803 756 b 907 726 908 756 903 726 l 1004 850 b 803 781 935 815 878 796 z m 697 704 l 718 735 l 728 735 l 707 704 z m 704 407 l 763 482 l 774 482 l 714 407 z m 749 783 l 825 897 l 836 897 l 760 783 z m 838 840 b 1054 908 913 872 997 897 l 1058 915 l 890 915 z "},"Ý":{"ha":675,"x_min":0,"x_max":0,"o":"m 179 0 l 479 0 l 574 208 l 1174 972 l 860 972 l 574 531 l 685 972 l 375 972 l 289 240 z m 226 31 l 319 232 l 403 942 l 646 942 l 536 478 l 567 476 l 876 942 l 1110 942 l 547 225 l 460 31 z m 264 160 l 292 217 l 301 217 l 274 160 z m 268 57 l 440 57 b 356 74 440 65 407 74 b 310 99 328 74 310 78 b 343 174 310 113 332 149 b 378 253 361 213 369 242 b 506 297 396 281 429 297 b 549 269 550 297 544 269 l 675 433 b 431 318 660 435 581 318 b 360 357 367 318 365 357 l 350 256 b 335 201 347 226 347 229 z m 294 10 l 300 21 l 401 21 l 396 10 z m 313 351 l 333 542 l 344 542 l 324 351 z m 339 576 l 346 644 l 357 644 l 349 576 z m 363 783 l 376 897 l 388 897 l 374 783 z m 378 549 b 531 686 385 549 428 686 b 558 675 554 686 557 675 l 579 771 b 397 701 521 743 451 717 z m 406 758 b 589 831 454 786 543 821 l 607 906 b 471 832 579 874 511 832 b 444 849 458 832 446 836 b 533 915 438 888 538 911 l 424 915 z m 417 10 l 422 21 l 449 21 l 443 10 z m 493 81 l 508 113 l 519 113 l 504 81 z m 581 625 l 590 664 l 599 664 l 589 625 z m 694 628 b 876 756 715 628 803 756 b 907 726 908 756 903 726 l 1004 850 b 803 781 935 815 878 796 z m 697 704 l 718 735 l 728 735 l 707 704 z m 704 407 l 763 482 l 774 482 l 714 407 z m 743 996 l 806 996 l 935 1113 l 825 1113 z m 749 783 l 825 897 l 836 897 l 760 783 z m 796 1025 l 840 1086 l 867 1086 l 800 1025 z m 838 840 b 1054 908 913 872 997 897 l 1058 915 l 890 915 z "},"Ŷ":{"ha":688,"x_min":0,"x_max":0,"o":"m 192 0 l 492 0 l 586 208 l 1186 972 l 872 972 l 586 531 l 697 972 l 388 972 l 301 240 z m 239 31 l 332 232 l 415 942 l 658 942 l 549 478 l 579 476 l 889 942 l 1122 942 l 560 225 l 472 31 z m 276 160 l 304 217 l 314 217 l 286 160 z m 281 57 l 453 57 b 368 74 453 65 419 74 b 322 99 340 74 322 78 b 356 174 322 113 344 149 b 390 253 374 213 382 242 b 518 297 408 281 442 297 b 561 269 563 297 557 269 l 688 433 b 443 318 672 435 593 318 b 372 357 379 318 378 357 l 363 256 b 347 201 360 226 360 229 z m 307 10 l 313 21 l 414 21 l 408 10 z m 325 351 l 346 542 l 357 542 l 336 351 z m 351 576 l 358 644 l 369 644 l 361 576 z m 375 783 l 389 897 l 400 897 l 386 783 z m 390 549 b 543 686 397 549 440 686 b 571 675 567 686 569 675 l 592 771 b 410 701 533 743 464 717 z m 418 758 b 601 831 467 786 556 821 l 619 906 b 483 832 592 874 524 832 b 457 849 471 832 458 836 b 546 915 450 888 550 911 l 436 915 z m 429 10 l 435 21 l 461 21 l 456 10 z m 506 81 l 521 113 l 532 113 l 517 81 z m 593 625 l 603 664 l 611 664 l 601 625 z m 636 1014 l 757 1014 l 826 1094 l 856 1014 l 946 1014 l 867 1131 l 799 1131 z m 707 628 b 889 756 728 628 815 756 b 919 726 921 756 915 726 l 1017 850 b 815 781 947 815 890 796 z m 710 704 l 731 735 l 740 735 l 719 704 z m 715 1038 b 789 1094 739 1057 769 1085 l 794 1094 l 738 1038 z m 717 407 l 775 482 l 786 482 l 726 407 z m 761 783 l 838 897 l 849 897 l 772 783 z m 850 840 b 1067 908 925 872 1010 897 l 1071 915 l 903 915 z m 864 1063 l 879 1064 b 899 1038 886 1054 893 1046 l 876 1038 z "},"Ÿ":{"ha":639,"x_min":0,"x_max":0,"o":"m 124 0 l 424 0 l 518 208 l 1118 972 l 804 972 l 518 531 l 629 972 l 319 972 l 233 240 z m 171 31 l 264 232 l 347 942 l 590 942 l 481 478 l 511 476 l 821 942 l 1054 942 l 492 225 l 404 31 z m 208 160 l 236 217 l 246 217 l 218 160 z m 213 57 l 385 57 b 300 74 385 65 351 74 b 254 99 272 74 254 78 b 288 174 254 113 276 149 b 322 253 306 213 314 242 b 450 297 340 281 374 297 b 493 269 494 297 489 269 l 619 433 b 375 318 604 435 525 318 b 304 357 311 318 310 357 l 294 256 b 279 201 292 226 292 229 z m 239 10 l 244 21 l 346 21 l 340 10 z m 257 351 l 278 542 l 289 542 l 268 351 z m 283 576 l 290 644 l 301 644 l 293 576 z m 307 783 l 321 897 l 332 897 l 318 783 z m 322 549 b 475 686 329 549 372 686 b 503 675 499 686 501 675 l 524 771 b 342 701 465 743 396 717 z m 350 758 b 533 831 399 786 488 821 l 551 906 b 415 832 524 874 456 832 b 389 849 403 832 390 836 b 478 915 382 888 482 911 l 368 915 z m 361 10 l 367 21 l 393 21 l 388 10 z m 438 81 l 453 113 l 464 113 l 449 81 z m 454 1014 l 690 1014 l 719 1079 l 483 1079 z m 494 1040 l 500 1053 l 679 1053 l 674 1040 z m 525 625 l 535 664 l 543 664 l 533 625 z m 639 628 b 821 756 660 628 747 756 b 851 726 853 756 847 726 l 949 850 b 747 781 879 815 822 796 z m 642 704 l 663 735 l 672 735 l 651 704 z m 649 407 l 707 482 l 718 482 l 658 407 z m 693 783 l 769 897 l 781 897 l 704 783 z m 746 1014 l 982 1014 l 1011 1079 l 775 1079 z m 782 840 b 999 908 857 872 942 897 l 1003 915 l 835 915 z m 786 1040 l 792 1053 l 836 1053 l 831 1040 z m 857 1040 l 863 1053 l 971 1053 l 965 1040 z "},"Ỳ":{"ha":688,"x_min":0,"x_max":0,"o":"m 192 0 l 492 0 l 586 208 l 1186 972 l 872 972 l 586 531 l 697 972 l 388 972 l 301 240 z m 239 31 l 332 232 l 415 942 l 658 942 l 549 478 l 579 476 l 889 942 l 1122 942 l 560 225 l 472 31 z m 276 160 l 304 217 l 314 217 l 286 160 z m 281 57 l 453 57 b 368 74 453 65 419 74 b 322 99 340 74 322 78 b 356 174 322 113 344 149 b 390 253 374 213 382 242 b 518 297 408 281 442 297 b 561 269 563 297 557 269 l 688 433 b 443 318 672 435 593 318 b 372 357 379 318 378 357 l 363 256 b 347 201 360 226 360 229 z m 307 10 l 313 21 l 414 21 l 408 10 z m 325 351 l 346 542 l 357 542 l 336 351 z m 351 576 l 358 644 l 369 644 l 361 576 z m 375 783 l 389 897 l 400 897 l 386 783 z m 390 549 b 543 686 397 549 440 686 b 571 675 567 686 569 675 l 592 771 b 410 701 533 743 464 717 z m 418 758 b 601 831 467 786 556 821 l 619 906 b 483 832 592 874 524 832 b 457 849 471 832 458 836 b 546 915 450 888 550 911 l 436 915 z m 429 10 l 435 21 l 461 21 l 456 10 z m 506 81 l 521 113 l 532 113 l 517 81 z m 593 625 l 603 664 l 611 664 l 601 625 z m 696 1113 l 761 996 l 824 996 l 806 1113 z m 707 628 b 889 756 728 628 815 756 b 919 726 921 756 915 726 l 1017 850 b 815 781 947 815 890 796 z m 710 704 l 731 735 l 740 735 l 719 704 z m 717 407 l 775 482 l 786 482 l 726 407 z m 749 1086 l 775 1086 l 786 1025 l 782 1025 z m 761 783 l 838 897 l 849 897 l 772 783 z m 850 840 b 1067 908 925 872 1010 897 l 1071 915 l 903 915 z "},"Z":{"ha":614,"x_min":0,"x_max":0,"o":"m 21 0 l 615 0 l 739 272 l 542 272 l 1039 972 l 444 972 l 321 700 l 518 700 z m 82 32 l 579 732 l 368 732 l 464 942 l 978 942 l 481 242 l 690 242 l 594 32 z m 133 57 l 578 57 b 439 74 568 71 490 74 l 279 74 b 210 115 222 74 210 85 b 440 304 210 174 358 304 b 472 278 478 304 468 278 l 576 425 b 403 332 564 425 490 332 b 372 390 351 332 375 390 z m 190 219 l 265 324 l 276 324 l 201 219 z m 271 10 l 279 21 l 481 21 l 474 10 z m 322 406 l 449 582 l 460 582 l 333 406 z m 372 789 l 422 899 l 435 899 l 385 789 z m 403 753 l 456 753 b 892 878 603 810 793 861 l 919 914 l 822 914 b 506 813 754 872 589 813 b 465 828 486 813 465 815 b 729 914 465 868 729 910 l 476 914 b 403 753 476 914 440 824 z m 404 710 l 411 721 l 511 721 l 504 710 z m 472 615 l 497 651 l 510 651 l 485 615 z m 513 10 l 518 21 l 563 21 l 557 10 z m 524 597 b 724 726 531 597 639 726 b 760 694 764 726 756 694 l 860 824 b 628 746 788 789 710 765 z m 628 433 l 650 465 l 664 465 l 642 433 z "},"Ź":{"ha":614,"x_min":0,"x_max":0,"o":"m 21 0 l 615 0 l 739 272 l 542 272 l 1039 972 l 444 972 l 321 700 l 518 700 z m 82 32 l 579 732 l 368 732 l 464 942 l 978 942 l 481 242 l 690 242 l 594 32 z m 133 57 l 578 57 b 439 74 568 71 490 74 l 279 74 b 210 115 222 74 210 85 b 440 304 210 174 358 304 b 472 278 478 304 468 278 l 576 425 b 403 332 564 425 490 332 b 372 390 351 332 375 390 z m 190 219 l 265 324 l 276 324 l 201 219 z m 271 10 l 279 21 l 481 21 l 474 10 z m 322 406 l 449 582 l 460 582 l 333 406 z m 372 789 l 422 899 l 435 899 l 385 789 z m 403 753 l 456 753 b 892 878 603 810 793 861 l 919 914 l 822 914 b 506 813 754 872 589 813 b 465 828 486 813 465 815 b 729 914 465 868 729 910 l 476 914 b 403 753 476 914 440 824 z m 404 710 l 411 721 l 511 721 l 504 710 z m 472 615 l 497 651 l 510 651 l 485 615 z m 513 10 l 518 21 l 563 21 l 557 10 z m 524 597 b 704 703 531 597 619 703 b 736 654 744 703 732 654 l 860 824 b 628 746 788 789 710 765 z m 628 433 l 650 465 l 664 465 l 642 433 z m 681 996 l 743 996 l 872 1113 l 763 1113 z m 733 1025 l 778 1086 l 804 1086 l 738 1025 z "},"Ž":{"ha":614,"x_min":0,"x_max":0,"o":"m 21 0 l 615 0 l 739 272 l 542 272 l 1039 972 l 444 972 l 321 700 l 518 700 z m 82 32 l 579 732 l 368 732 l 464 942 l 978 942 l 481 242 l 690 242 l 594 32 z m 133 57 l 578 57 b 439 74 568 71 490 74 l 279 74 b 210 115 222 74 210 85 b 440 304 210 174 358 304 b 472 278 478 304 468 278 l 576 425 b 403 332 564 425 490 332 b 372 390 351 332 375 390 z m 190 219 l 265 324 l 276 324 l 201 219 z m 271 10 l 279 21 l 481 21 l 474 10 z m 322 406 l 449 582 l 460 582 l 333 406 z m 372 789 l 422 899 l 435 899 l 385 789 z m 403 753 l 456 753 b 892 878 603 810 793 861 l 919 914 l 822 914 b 506 813 754 872 589 813 b 465 828 486 813 465 815 b 729 914 465 868 729 910 l 476 914 b 403 753 476 914 440 824 z m 404 710 l 411 721 l 511 721 l 504 710 z m 472 615 l 497 651 l 510 651 l 485 615 z m 513 10 l 518 21 l 563 21 l 557 10 z m 524 597 b 704 703 531 597 619 703 b 736 654 744 703 732 654 l 860 824 b 628 746 788 789 710 765 z m 628 433 l 650 465 l 664 465 l 642 433 z m 629 1113 l 708 996 l 776 996 l 939 1113 l 826 1113 l 754 1038 l 728 1113 z m 681 1089 l 703 1089 l 726 1032 l 721 1032 b 681 1089 710 1042 694 1069 z m 811 1064 l 838 1089 l 860 1089 l 825 1063 z "},"Æ":{"ha":1010,"x_min":0,"x_max":0,"o":"m -50 0 l 315 0 l 392 125 l 494 125 l 438 0 l 989 1 l 1113 274 l 844 274 l 882 354 l 1101 354 l 1226 631 l 1008 631 l 1040 697 l 1310 697 l 1435 974 l 588 972 z m 7 32 l 608 943 l 1386 943 l 1292 732 l 1021 732 l 958 600 l 1178 600 l 1083 389 l 864 389 l 796 243 l 1064 243 l 969 32 l 485 32 l 544 161 l 376 161 l 296 32 z m 64 57 l 275 57 b 132 97 268 79 131 54 b 476 294 132 194 306 294 l 599 294 b 628 263 636 294 636 282 l 611 226 b 739 288 649 254 697 288 b 775 260 776 288 772 260 l 857 439 b 717 319 846 439 793 319 b 678 365 669 319 683 365 l 667 344 b 617 315 654 321 649 315 l 438 315 b 425 342 415 315 414 324 l 488 440 b 294 318 481 440 363 318 b 269 369 247 318 275 369 z m 104 11 l 111 21 l 279 21 l 272 11 z m 111 224 l 183 335 l 194 335 l 122 224 z m 233 413 l 256 447 l 268 447 l 246 413 z m 365 525 b 592 644 379 525 478 644 b 629 619 622 644 625 619 l 656 661 l 715 742 b 469 678 653 714 518 686 z m 399 138 l 404 147 l 499 147 l 493 138 z m 426 708 l 551 899 l 564 899 l 439 708 z m 474 346 l 628 346 l 815 756 l 763 756 l 675 639 z m 510 742 b 686 794 551 761 643 779 b 615 817 642 800 615 803 b 847 896 615 844 660 878 b 1032 918 900 901 1029 908 l 628 917 z m 522 393 l 544 425 l 556 425 l 533 393 z m 536 58 l 947 58 b 849 75 947 71 889 75 l 668 75 b 586 104 628 75 586 72 b 582 164 586 143 603 164 z m 539 374 l 757 706 l 596 374 z m 650 447 l 682 518 l 693 518 l 661 447 z m 660 11 l 664 21 l 713 21 l 710 11 z m 697 553 l 765 694 l 772 694 l 708 553 z m 750 11 l 751 21 l 960 22 l 956 13 z m 760 547 b 931 676 796 589 874 676 b 957 665 950 676 954 665 l 996 754 b 814 683 931 731 875 703 z m 799 782 b 844 769 799 776 844 785 b 842 750 844 761 842 753 b 1332 900 1039 822 1236 882 l 1340 917 l 1226 917 b 799 782 1138 882 942 811 z m 833 299 l 856 346 l 865 346 l 843 299 z m 883 413 l 1065 413 l 1096 483 b 1026 442 1090 483 1072 461 b 883 413 986 425 890 422 z m 949 365 l 953 375 l 1072 375 l 1068 365 z m 988 636 l 1015 693 l 1025 693 l 997 636 z m 1022 758 l 1271 758 l 1313 849 b 1022 758 1226 808 1104 778 z m 1096 708 l 1100 718 l 1147 718 l 1143 708 z m 1161 708 l 1167 718 l 1281 718 l 1275 708 z "},"Ĳ":{"ha":821,"x_min":0,"x_max":0,"o":"m 24 0 l 324 0 l 767 972 l 467 972 z m 72 33 l 486 944 l 719 944 l 304 33 z m 111 57 l 278 57 b 160 107 278 90 160 49 b 349 304 160 171 261 304 b 382 278 386 304 378 278 l 472 476 b 299 332 464 476 379 332 b 264 390 256 332 267 390 z m 129 208 l 188 338 l 199 338 l 140 208 z m 153 10 l 157 21 l 297 21 l 293 10 z m 217 403 l 236 443 l 247 443 l 228 403 z m 288 557 l 349 690 l 360 690 l 299 557 z m 333 549 b 536 686 339 547 428 686 b 567 675 564 686 564 675 l 611 769 b 406 701 544 742 465 717 z m 428 864 l 454 922 l 465 922 l 439 864 z m 433 758 b 636 829 488 785 589 819 l 671 903 b 501 846 622 861 501 804 b 614 915 501 886 614 911 l 504 915 z m 443 0 l 474 0 b 899 224 751 0 842 100 l 1243 972 l 943 972 l 649 332 b 458 268 621 269 554 268 z m 476 31 l 486 239 b 676 319 572 243 646 250 l 963 942 l 1196 942 l 871 238 b 476 31 813 106 719 32 z m 506 58 b 783 153 643 63 726 94 b 579 83 774 153 692 83 b 511 188 511 83 518 188 z m 522 213 b 544 207 526 210 538 207 b 829 311 672 207 728 311 b 863 285 867 311 858 285 l 953 483 b 781 339 944 483 858 339 b 739 397 731 339 742 397 l 700 308 b 522 213 675 246 611 218 z m 543 14 l 544 22 b 713 60 640 28 679 46 l 711 50 b 543 14 682 38 633 18 z m 660 333 l 753 531 l 765 531 l 671 333 z m 776 581 l 793 617 l 804 617 l 788 581 z m 811 549 b 1014 686 818 549 907 686 b 1044 675 1042 686 1042 675 l 1089 769 b 883 701 1022 742 943 717 z m 889 829 l 932 922 l 943 922 l 901 829 z m 911 758 b 1113 829 965 785 1065 819 l 1149 903 b 979 846 1100 861 979 804 b 1092 915 979 886 1092 911 l 982 915 z "},"Œ":{"ha":1047,"x_min":0,"x_max":0,"o":"m 403 0 l 1017 0 l 1140 272 l 872 272 l 910 353 l 1129 353 l 1254 629 l 1036 629 l 1068 696 l 1338 696 l 1463 972 l 899 972 b 763 975 885 974 778 975 b 278 588 517 975 399 828 b 171 249 201 439 174 333 b 172 224 171 240 172 232 b 403 0 178 83 256 0 z m 189 310 b 199 356 190 324 193 339 l 211 356 b 201 310 206 339 203 324 z m 207 247 b 310 571 208 328 238 426 b 764 943 429 807 536 943 l 882 942 l 1414 942 l 1319 731 l 1049 731 l 986 599 l 1206 599 l 1111 388 l 892 388 l 824 242 l 1092 242 l 997 31 l 424 31 b 207 247 278 31 206 106 z m 236 244 b 424 57 239 119 289 57 l 979 57 b 876 74 979 69 917 74 l 432 75 b 269 186 328 75 271 124 b 365 276 268 244 310 276 b 403 257 394 276 399 257 b 454 435 404 299 418 363 b 300 306 440 436 386 306 b 249 344 244 306 254 344 b 236 244 242 318 235 293 z m 243 492 b 288 582 263 536 283 575 b 350 697 301 610 332 668 l 364 697 b 296 576 340 661 319 619 b 254 492 293 572 275 538 z m 315 532 b 511 647 328 532 385 647 b 550 636 528 647 544 642 b 622 739 581 688 608 731 b 381 650 542 707 453 672 b 315 532 365 622 340 575 z m 411 785 b 511 886 443 826 467 851 l 526 886 b 424 785 485 854 457 826 z m 421 718 b 593 839 508 767 593 774 b 758 918 593 886 758 915 b 528 833 665 918 592 888 b 421 718 494 806 458 769 z m 432 258 b 506 197 432 215 461 197 l 571 197 l 828 760 l 754 760 b 522 518 661 760 629 744 b 432 258 444 353 432 293 z m 457 328 b 472 371 461 340 465 354 l 483 371 b 468 328 476 354 472 340 z m 468 272 b 556 503 468 285 475 343 b 739 725 647 689 669 725 l 778 725 l 551 229 l 517 229 b 468 272 478 229 468 238 z m 486 10 l 490 21 l 560 21 l 554 10 z m 572 251 l 622 363 l 633 363 l 586 251 z m 600 196 b 763 286 622 196 657 286 b 803 258 800 286 800 258 l 885 438 b 714 317 876 438 807 317 b 679 369 674 317 683 369 z m 607 10 l 611 21 l 649 21 l 644 10 z m 667 453 l 722 576 l 733 576 l 678 453 z m 713 10 l 715 21 l 956 21 l 950 10 z m 738 788 l 818 788 b 853 749 865 788 865 779 b 1360 894 1026 815 1254 879 l 1371 915 l 1243 915 b 925 832 1175 874 925 796 b 1117 917 925 883 1117 913 l 851 915 b 903 876 851 913 903 908 b 738 788 903 836 793 806 z m 747 631 l 769 679 l 781 679 l 758 631 z m 754 538 b 960 675 761 538 853 675 b 986 664 979 675 983 664 l 1025 753 b 826 690 958 729 886 706 z m 865 310 l 888 357 l 899 357 l 876 310 z m 911 411 l 1093 411 l 1124 482 b 1054 440 1118 482 1100 460 b 911 411 1014 424 918 421 z m 953 365 l 958 376 l 1104 376 l 1099 365 z m 1050 757 l 1299 757 l 1340 847 b 1050 757 1254 807 1132 776 z m 1140 708 l 1146 719 l 1186 719 l 1181 708 z m 1160 475 l 1186 532 l 1199 532 l 1172 475 z m 1215 708 l 1219 719 l 1314 719 l 1310 708 z "},"a":{"ha":707,"x_min":0,"x_max":0,"o":"m 219 -14 b 475 203 318 -14 383 65 l 424 0 l 681 0 l 1067 847 l 767 847 l 738 782 b 583 861 686 839 644 861 b 215 456 457 861 363 779 b 219 -14 67 129 93 -14 z m 151 175 b 172 258 156 200 163 228 b 243 443 188 313 213 375 b 429 758 315 600 374 700 b 583 831 478 808 524 831 b 746 726 644 831 682 800 l 786 817 l 1019 817 l 661 31 l 464 31 l 500 175 b 513 222 500 175 506 199 b 531 269 518 244 528 264 b 593 397 546 297 565 339 b 664 624 665 551 683 593 b 625 643 660 631 649 643 b 560 603 601 643 582 631 b 471 431 538 571 508 515 b 408 247 443 369 408 288 b 435 201 408 224 418 208 l 408 161 b 329 65 381 119 354 89 b 219 17 293 32 258 17 b 160 44 192 17 171 26 b 151 175 149 61 138 99 z m 160 286 b 201 397 171 319 185 356 l 211 397 b 168 286 194 356 181 319 z m 171 113 b 225 43 171 58 197 43 b 310 81 250 43 275 53 b 226 61 304 81 271 61 b 188 115 203 61 188 75 b 338 304 188 222 263 304 b 383 281 368 304 378 281 b 431 403 392 321 408 357 b 283 332 426 407 375 332 b 249 390 240 332 251 390 b 176 169 217 324 186 225 b 171 113 172 146 171 128 z m 188 1 l 188 11 b 219 7 197 8 208 7 b 272 17 239 7 256 11 l 272 7 b 219 -3 256 0 239 -3 b 188 1 208 -3 197 -1 z m 233 471 b 261 529 243 492 253 510 l 272 529 b 244 471 263 510 254 492 z m 318 529 b 626 679 422 624 563 679 b 700 656 689 679 696 656 l 724 708 l 693 742 b 383 643 607 708 486 668 b 318 529 372 628 340 575 z m 336 667 b 426 783 368 718 397 756 l 439 783 b 347 667 410 757 381 719 z m 419 704 b 656 779 489 733 599 768 b 586 804 649 788 615 804 b 419 704 510 804 461 757 z m 435 317 b 450 351 440 329 444 340 l 460 351 b 444 317 454 340 450 329 z m 454 76 l 472 151 l 482 151 l 464 76 z m 456 235 b 499 418 422 235 439 285 b 625 613 579 601 606 613 b 565 410 658 613 639 567 b 456 235 499 269 482 235 z m 488 11 l 490 21 l 656 21 l 651 11 z m 496 57 l 649 57 b 593 69 649 74 621 68 b 531 104 563 71 531 74 b 549 206 531 131 542 179 b 713 304 586 258 661 306 b 746 278 750 304 742 278 l 815 425 b 668 331 807 426 747 331 b 622 390 617 331 625 390 l 549 242 b 529 192 539 221 533 208 z m 569 393 b 575 406 571 397 574 401 l 592 440 l 601 440 b 583 401 596 428 590 415 l 579 393 z m 618 500 b 649 583 636 542 646 567 l 660 583 b 629 500 656 565 646 540 z m 703 549 b 875 651 710 549 768 651 b 910 640 903 651 907 640 l 954 735 b 757 672 901 713 829 692 z m 775 725 b 971 785 814 747 918 778 l 974 790 l 804 790 z "},"á":{"ha":707,"x_min":0,"x_max":0,"o":"m 219 -14 b 475 203 318 -14 383 65 l 424 0 l 681 0 l 1067 847 l 767 847 l 738 782 b 583 861 686 839 644 861 b 215 456 457 861 363 779 b 219 -14 67 129 93 -14 z m 151 175 b 172 258 156 200 163 228 b 243 443 188 313 213 375 b 429 758 315 600 374 700 b 583 831 478 808 524 831 b 746 726 644 831 682 800 l 786 817 l 1019 817 l 661 31 l 464 31 l 500 175 b 513 222 500 175 506 199 b 531 269 518 244 528 264 b 593 397 546 297 565 339 b 664 624 665 551 683 593 b 625 643 660 631 649 643 b 560 603 601 643 582 631 b 471 431 538 571 508 515 b 408 247 443 369 408 288 b 435 201 408 224 418 208 l 408 161 b 329 65 381 119 354 89 b 219 17 293 32 258 17 b 160 44 192 17 171 26 b 151 175 149 61 138 99 z m 160 286 b 201 397 171 319 185 356 l 211 397 b 168 286 194 356 181 319 z m 171 113 b 225 43 171 58 197 43 b 310 81 250 43 275 53 b 226 61 304 81 271 61 b 188 115 203 61 188 75 b 338 304 188 222 263 304 b 383 281 368 304 378 281 b 431 403 392 321 408 357 b 283 332 426 407 375 332 b 249 390 240 332 251 390 b 176 169 217 324 186 225 b 171 113 172 146 171 128 z m 188 1 l 188 11 b 219 7 197 8 208 7 b 272 17 239 7 256 11 l 272 7 b 219 -3 256 0 239 -3 b 188 1 208 -3 197 -1 z m 233 471 b 261 529 243 492 253 510 l 272 529 b 244 471 263 510 254 492 z m 318 529 b 626 679 422 624 563 679 b 700 656 689 679 696 656 l 724 708 l 693 742 b 383 643 607 708 486 668 b 318 529 372 628 340 575 z m 336 667 b 426 783 368 718 397 756 l 439 783 b 347 667 410 757 381 719 z m 419 704 b 656 779 489 733 599 768 b 586 804 649 788 615 804 b 419 704 510 804 461 757 z m 435 317 b 450 351 440 329 444 340 l 460 351 b 444 317 454 340 450 329 z m 454 76 l 472 151 l 482 151 l 464 76 z m 456 235 b 499 418 422 235 439 285 b 625 613 579 601 606 613 b 565 410 658 613 639 567 b 456 235 499 269 482 235 z m 488 11 l 490 21 l 656 21 l 651 11 z m 496 57 l 649 57 b 593 69 649 74 621 68 b 531 104 563 71 531 74 b 549 206 531 131 542 179 b 713 304 586 258 661 306 b 746 278 750 304 742 278 l 815 425 b 668 331 807 426 747 331 b 622 390 617 331 625 390 l 549 242 b 529 192 539 221 533 208 z m 569 393 b 575 406 571 397 574 401 l 592 440 l 601 440 b 583 401 596 428 590 415 l 579 393 z m 618 500 b 649 583 636 542 646 567 l 660 583 b 629 500 656 565 646 540 z m 701 882 l 764 882 l 893 999 l 783 999 z m 703 549 b 875 651 710 549 768 651 b 910 640 903 651 907 640 l 954 735 b 757 672 901 713 829 692 z m 754 911 l 799 972 l 825 972 l 758 911 z m 775 725 b 971 785 814 747 918 778 l 974 790 l 804 790 z "},"â":{"ha":692,"x_min":0,"x_max":0,"o":"m 210 -14 b 465 203 308 -14 374 65 l 414 0 l 671 0 l 1057 847 l 757 847 l 728 782 b 574 861 676 839 635 861 b 206 456 447 861 353 779 b 210 -14 57 129 83 -14 z m 142 175 b 163 258 146 200 153 228 b 233 443 178 313 203 375 b 419 758 306 600 364 700 b 574 831 468 808 514 831 b 736 726 635 831 672 800 l 776 817 l 1010 817 l 651 31 l 454 31 l 490 175 b 503 222 490 175 496 199 b 521 269 508 244 518 264 b 583 397 536 297 556 339 b 654 624 656 551 674 593 b 615 643 650 631 639 643 b 550 603 592 643 572 631 b 461 431 528 571 499 515 b 399 247 433 369 399 288 b 425 201 399 224 408 208 l 399 161 b 319 65 371 119 344 89 b 210 17 283 32 249 17 b 150 44 182 17 161 26 b 142 175 139 61 128 99 z m 150 286 b 192 397 161 319 175 356 l 201 397 b 158 286 185 356 171 319 z m 161 113 b 215 43 161 58 188 43 b 300 81 240 43 265 53 b 217 61 294 81 261 61 b 178 115 193 61 178 75 b 328 304 178 222 253 304 b 374 281 358 304 368 281 b 421 403 382 321 399 357 b 274 332 417 407 365 332 b 239 390 231 332 242 390 b 167 169 207 324 176 225 b 161 113 163 146 161 128 z m 178 1 l 178 11 b 210 7 188 8 199 7 b 263 17 229 7 246 11 l 263 7 b 210 -3 246 0 229 -3 b 178 1 199 -3 188 -1 z m 224 471 b 251 529 233 492 243 510 l 263 529 b 235 471 253 510 244 492 z m 308 529 b 617 679 413 624 553 679 b 690 656 679 679 686 656 l 714 708 l 683 742 b 374 643 597 708 476 668 b 308 529 363 628 331 575 z m 326 667 b 417 783 358 718 388 756 l 429 783 b 338 667 400 757 371 719 z m 410 704 b 646 779 479 733 589 768 b 576 804 639 788 606 804 b 410 704 500 804 451 757 z m 425 317 b 440 351 431 329 435 340 l 450 351 b 435 317 444 340 440 329 z m 444 76 l 463 151 l 472 151 l 454 76 z m 446 235 b 489 418 413 235 429 285 b 615 613 569 601 596 613 b 556 410 649 613 629 567 b 446 235 489 269 472 235 z m 478 11 l 481 21 l 646 21 l 642 11 z m 486 57 l 639 57 b 583 69 639 74 611 68 b 521 104 553 71 521 74 b 539 206 521 131 532 179 b 703 304 576 258 651 306 b 736 278 740 304 732 278 l 806 425 b 658 331 797 426 738 331 b 613 390 607 331 615 390 l 539 242 b 519 192 529 221 524 208 z m 560 393 b 565 406 561 397 564 401 l 582 440 l 592 440 b 574 401 586 428 581 415 l 569 393 z m 608 500 b 639 583 626 542 636 567 l 650 583 b 619 500 646 565 636 540 z m 622 889 l 743 889 l 813 969 l 842 889 l 932 889 l 853 1006 l 785 1006 z m 693 549 b 865 651 700 549 758 651 b 900 640 893 651 897 640 l 944 735 b 747 672 892 713 819 692 z m 701 913 b 775 969 725 932 756 960 l 781 969 l 724 913 z m 765 725 b 961 785 804 747 908 778 l 964 790 l 794 790 z m 850 938 l 865 939 b 885 913 872 929 879 921 l 863 913 z "},"ä":{"ha":692,"x_min":0,"x_max":0,"o":"m 210 -14 b 465 203 308 -14 374 65 l 414 0 l 671 0 l 1057 847 l 757 847 l 728 782 b 574 861 676 839 635 861 b 206 456 447 861 353 779 b 210 -14 57 129 83 -14 z m 142 175 b 163 258 146 200 153 228 b 233 443 178 313 203 375 b 419 758 306 600 364 700 b 574 831 468 808 514 831 b 736 726 635 831 672 800 l 776 817 l 1010 817 l 651 31 l 454 31 l 490 175 b 503 222 490 175 496 199 b 521 269 508 244 518 264 b 583 397 536 297 556 339 b 654 624 656 551 674 593 b 615 643 650 631 639 643 b 550 603 592 643 572 631 b 461 431 528 571 499 515 b 399 247 433 369 399 288 b 425 201 399 224 408 208 l 399 161 b 319 65 371 119 344 89 b 210 17 283 32 249 17 b 150 44 182 17 161 26 b 142 175 139 61 128 99 z m 150 286 b 192 397 161 319 175 356 l 201 397 b 158 286 185 356 171 319 z m 161 113 b 215 43 161 58 188 43 b 300 81 240 43 265 53 b 217 61 294 81 261 61 b 178 115 193 61 178 75 b 328 304 178 222 253 304 b 374 281 358 304 368 281 b 421 403 382 321 399 357 b 274 332 417 407 365 332 b 239 390 231 332 242 390 b 167 169 207 324 176 225 b 161 113 163 146 161 128 z m 178 1 l 178 11 b 210 7 188 8 199 7 b 263 17 229 7 246 11 l 263 7 b 210 -3 246 0 229 -3 b 178 1 199 -3 188 -1 z m 224 471 b 251 529 233 492 243 510 l 263 529 b 235 471 253 510 244 492 z m 308 529 b 617 679 413 624 553 679 b 690 656 679 679 686 656 l 714 708 l 683 742 b 374 643 597 708 476 668 b 308 529 363 628 331 575 z m 326 667 b 417 783 358 718 388 756 l 429 783 b 338 667 400 757 371 719 z m 410 704 b 646 779 479 733 589 768 b 576 804 639 788 606 804 b 410 704 500 804 451 757 z m 425 317 b 440 351 431 329 435 340 l 450 351 b 435 317 444 340 440 329 z m 444 76 l 463 151 l 472 151 l 454 76 z m 446 235 b 489 418 413 235 429 285 b 615 613 569 601 596 613 b 556 410 649 613 629 567 b 446 235 489 269 472 235 z m 476 889 l 713 889 l 742 954 l 506 954 z m 478 11 l 481 21 l 646 21 l 642 11 z m 486 57 l 639 57 b 583 69 639 74 611 68 b 521 104 553 71 521 74 b 539 206 521 131 532 179 b 703 304 576 258 651 306 b 736 278 740 304 732 278 l 806 425 b 658 331 797 426 738 331 b 613 390 607 331 615 390 l 539 242 b 519 192 529 221 524 208 z m 517 915 l 522 928 l 567 928 l 561 915 z m 560 393 b 565 406 561 397 564 401 l 582 440 l 592 440 b 574 401 586 428 581 415 l 569 393 z m 588 915 l 593 928 l 701 928 l 696 915 z m 608 500 b 639 583 626 542 636 567 l 650 583 b 619 500 646 565 636 540 z m 693 549 b 865 651 700 549 758 651 b 900 640 893 651 897 640 l 944 735 b 747 672 892 713 819 692 z m 765 725 b 961 785 804 747 908 778 l 964 790 l 794 790 z m 768 889 l 1004 889 l 1033 954 l 797 954 z m 808 915 l 814 928 l 993 928 l 988 915 z "},"à":{"ha":692,"x_min":0,"x_max":0,"o":"m 210 -14 b 465 203 308 -14 374 65 l 414 0 l 671 0 l 1057 847 l 757 847 l 728 782 b 574 861 676 839 635 861 b 206 456 447 861 353 779 b 210 -14 57 129 83 -14 z m 142 175 b 163 258 146 200 153 228 b 233 443 178 313 203 375 b 419 758 306 600 364 700 b 574 831 468 808 514 831 b 736 726 635 831 672 800 l 776 817 l 1010 817 l 651 31 l 454 31 l 490 175 b 503 222 490 175 496 199 b 521 269 508 244 518 264 b 583 397 536 297 556 339 b 654 624 656 551 674 593 b 615 643 650 631 639 643 b 550 603 592 643 572 631 b 461 431 528 571 499 515 b 399 247 433 369 399 288 b 425 201 399 224 408 208 l 399 161 b 319 65 371 119 344 89 b 210 17 283 32 249 17 b 150 44 182 17 161 26 b 142 175 139 61 128 99 z m 150 286 b 192 397 161 319 175 356 l 201 397 b 158 286 185 356 171 319 z m 161 113 b 215 43 161 58 188 43 b 300 81 240 43 265 53 b 217 61 294 81 261 61 b 178 115 193 61 178 75 b 328 304 178 222 253 304 b 374 281 358 304 368 281 b 421 403 382 321 399 357 b 274 332 417 407 365 332 b 239 390 231 332 242 390 b 167 169 207 324 176 225 b 161 113 163 146 161 128 z m 178 1 l 178 11 b 210 7 188 8 199 7 b 263 17 229 7 246 11 l 263 7 b 210 -3 246 0 229 -3 b 178 1 199 -3 188 -1 z m 224 471 b 251 529 233 492 243 510 l 263 529 b 235 471 253 510 244 492 z m 308 529 b 617 679 413 624 553 679 b 690 656 679 679 686 656 l 714 708 l 683 742 b 374 643 597 708 476 668 b 308 529 363 628 331 575 z m 326 667 b 417 783 358 718 388 756 l 429 783 b 338 667 400 757 371 719 z m 410 704 b 646 779 479 733 589 768 b 576 804 639 788 606 804 b 410 704 500 804 451 757 z m 425 317 b 440 351 431 329 435 340 l 450 351 b 435 317 444 340 440 329 z m 444 76 l 463 151 l 472 151 l 454 76 z m 446 235 b 489 418 413 235 429 285 b 615 613 569 601 596 613 b 556 410 649 613 629 567 b 446 235 489 269 472 235 z m 478 11 l 481 21 l 646 21 l 642 11 z m 486 57 l 639 57 b 583 69 639 74 611 68 b 521 104 553 71 521 74 b 539 206 521 131 532 179 b 703 304 576 258 651 306 b 736 278 740 304 732 278 l 806 425 b 658 331 797 426 738 331 b 613 390 607 331 615 390 l 539 242 b 519 192 529 221 524 208 z m 560 393 b 565 406 561 397 564 401 l 582 440 l 592 440 b 574 401 586 428 581 415 l 569 393 z m 608 500 b 639 583 626 542 636 567 l 650 583 b 619 500 646 565 636 540 z m 693 549 b 865 651 700 549 758 651 b 900 640 893 651 897 640 l 944 735 b 747 672 892 713 819 692 z m 700 1006 l 765 889 l 828 889 l 810 1006 z m 753 979 l 779 979 l 790 918 l 786 918 z m 765 725 b 961 785 804 747 908 778 l 964 790 l 794 790 z "},"å":{"ha":692,"x_min":0,"x_max":0,"o":"m 210 -14 b 465 203 308 -14 374 65 l 414 0 l 671 0 l 1057 847 l 757 847 l 728 782 b 574 861 676 839 635 861 b 206 456 447 861 353 779 b 210 -14 57 129 83 -14 z m 142 175 b 163 258 146 200 153 228 b 233 443 178 313 203 375 b 419 758 306 600 364 700 b 574 831 468 808 514 831 b 736 726 635 831 672 800 l 776 817 l 1010 817 l 651 31 l 454 31 l 490 175 b 503 222 490 175 496 199 b 521 269 508 244 518 264 b 583 397 536 297 556 339 b 654 624 656 551 674 593 b 615 643 650 631 639 643 b 550 603 592 643 572 631 b 461 431 528 571 499 515 b 399 247 433 369 399 288 b 425 201 399 224 408 208 l 399 161 b 319 65 371 119 344 89 b 210 17 283 32 249 17 b 150 44 182 17 161 26 b 142 175 139 61 128 99 z m 150 286 b 192 397 161 319 175 356 l 201 397 b 158 286 185 356 171 319 z m 161 113 b 215 43 161 58 188 43 b 300 81 240 43 265 53 b 217 61 294 81 261 61 b 178 115 193 61 178 75 b 328 304 178 222 253 304 b 374 281 358 304 368 281 b 421 403 382 321 399 357 b 274 332 417 407 365 332 b 239 390 231 332 242 390 b 167 169 207 324 176 225 b 161 113 163 146 161 128 z m 178 1 l 178 11 b 210 7 188 8 199 7 b 263 17 229 7 246 11 l 263 7 b 210 -3 246 0 229 -3 b 178 1 199 -3 188 -1 z m 224 471 b 251 529 233 492 243 510 l 263 529 b 235 471 253 510 244 492 z m 308 529 b 617 679 413 624 553 679 b 690 656 679 679 686 656 l 714 708 l 683 742 b 374 643 597 708 476 668 b 308 529 363 628 331 575 z m 326 667 b 417 783 358 718 388 756 l 429 783 b 338 667 400 757 371 719 z m 410 704 b 646 779 479 733 589 768 b 576 804 639 788 606 804 b 410 704 500 804 451 757 z m 425 317 b 440 351 431 329 435 340 l 450 351 b 435 317 444 340 440 329 z m 444 76 l 463 151 l 472 151 l 454 76 z m 446 235 b 489 418 413 235 429 285 b 615 613 569 601 596 613 b 556 410 649 613 629 567 b 446 235 489 269 472 235 z m 478 11 l 481 21 l 646 21 l 642 11 z m 486 57 l 639 57 b 583 69 639 74 611 68 b 521 104 553 71 521 74 b 539 206 521 131 532 179 b 703 304 576 258 651 306 b 736 278 740 304 732 278 l 806 425 b 658 331 797 426 738 331 b 613 390 607 331 615 390 l 539 242 b 519 192 529 221 524 208 z m 560 393 b 565 406 561 397 564 401 l 582 440 l 592 440 b 574 401 586 428 581 415 l 569 393 z m 608 500 b 639 583 626 542 636 567 l 650 583 b 619 500 646 565 636 540 z m 658 943 b 776 885 658 904 701 885 b 906 951 840 885 904 900 b 797 1013 907 993 868 1013 b 658 943 733 1014 658 999 z m 674 943 b 679 964 674 951 675 957 l 690 964 b 683 943 686 958 683 951 b 686 932 683 939 685 935 l 675 932 b 674 943 674 935 674 939 z m 693 549 b 865 651 700 549 758 651 b 900 640 893 651 897 640 l 944 735 b 747 672 892 713 819 692 z m 697 944 b 797 976 697 969 736 976 b 868 953 851 976 868 967 b 776 921 868 932 835 921 b 697 944 717 921 697 929 z m 717 904 l 721 913 b 776 908 735 910 753 908 b 838 914 800 908 821 910 l 833 903 b 776 899 817 900 797 899 b 717 904 753 899 733 900 z m 765 725 b 961 785 804 747 908 778 l 964 790 l 794 790 z "},"ã":{"ha":692,"x_min":0,"x_max":0,"o":"m 210 -14 b 465 203 308 -14 374 65 l 414 0 l 671 0 l 1057 847 l 757 847 l 728 782 b 574 861 676 839 635 861 b 206 456 447 861 353 779 b 210 -14 57 129 83 -14 z m 142 175 b 163 258 146 200 153 228 b 233 443 178 313 203 375 b 419 758 306 600 364 700 b 574 831 468 808 514 831 b 736 726 635 831 672 800 l 776 817 l 1010 817 l 651 31 l 454 31 l 490 175 b 503 222 490 175 496 199 b 521 269 508 244 518 264 b 583 397 536 297 556 339 b 654 624 656 551 674 593 b 615 643 650 631 639 643 b 550 603 592 643 572 631 b 461 431 528 571 499 515 b 399 247 433 369 399 288 b 425 201 399 224 408 208 l 399 161 b 319 65 371 119 344 89 b 210 17 283 32 249 17 b 150 44 182 17 161 26 b 142 175 139 61 128 99 z m 150 286 b 192 397 161 319 175 356 l 201 397 b 158 286 185 356 171 319 z m 161 113 b 215 43 161 58 188 43 b 300 81 240 43 265 53 b 217 61 294 81 261 61 b 178 115 193 61 178 75 b 328 304 178 222 253 304 b 374 281 358 304 368 281 b 421 403 382 321 399 357 b 274 332 417 407 365 332 b 239 390 231 332 242 390 b 167 169 207 324 176 225 b 161 113 163 146 161 128 z m 178 1 l 178 11 b 210 7 188 8 199 7 b 263 17 229 7 246 11 l 263 7 b 210 -3 246 0 229 -3 b 178 1 199 -3 188 -1 z m 224 471 b 251 529 233 492 243 510 l 263 529 b 235 471 253 510 244 492 z m 308 529 b 617 679 413 624 553 679 b 690 656 679 679 686 656 l 714 708 l 683 742 b 374 643 597 708 476 668 b 308 529 363 628 331 575 z m 326 667 b 417 783 358 718 388 756 l 429 783 b 338 667 400 757 371 719 z m 410 704 b 646 779 479 733 589 768 b 576 804 639 788 606 804 b 410 704 500 804 451 757 z m 425 317 b 440 351 431 329 435 340 l 450 351 b 435 317 444 340 440 329 z m 444 76 l 463 151 l 472 151 l 454 76 z m 446 235 b 489 418 413 235 429 285 b 615 613 569 601 596 613 b 556 410 649 613 629 567 b 446 235 489 269 472 235 z m 478 11 l 481 21 l 646 21 l 642 11 z m 486 57 l 639 57 b 583 69 639 74 611 68 b 521 104 553 71 521 74 b 539 206 521 131 532 179 b 703 304 576 258 651 306 b 736 278 740 304 732 278 l 806 425 b 658 331 797 426 738 331 b 613 390 607 331 615 390 l 539 242 b 519 192 529 221 524 208 z m 560 393 b 565 406 561 397 564 401 l 582 440 l 592 440 b 574 401 586 428 581 415 l 569 393 z m 608 500 b 639 583 626 542 636 567 l 650 583 b 619 500 646 565 636 540 z m 625 889 l 699 889 l 739 957 l 763 917 b 817 889 772 900 788 889 b 889 926 850 889 868 900 l 951 1006 l 878 1006 l 831 929 l 806 971 b 757 1006 790 996 779 1006 b 689 969 729 1006 711 999 z m 668 910 l 693 942 l 703 940 l 686 910 z m 693 549 b 865 651 700 549 758 651 b 900 640 893 651 897 640 l 944 735 b 747 672 892 713 819 692 z m 753 979 l 771 979 l 808 915 l 797 915 z m 765 725 b 961 785 804 747 908 778 l 964 790 l 794 790 z m 861 944 l 890 988 l 910 988 l 875 944 z "},"b":{"ha":708,"x_min":0,"x_max":0,"o":"m 513 -14 b 875 392 619 -14 719 50 b 871 861 1024 718 997 861 b 619 650 775 861 710 786 l 767 972 l 467 972 l 24 0 l 324 0 l 374 106 b 513 -14 406 28 444 -14 z m 74 31 l 488 942 l 721 942 l 593 663 l 390 217 b 458 203 390 217 415 203 b 608 385 519 203 543 239 b 679 590 661 500 679 558 b 649 640 679 624 657 636 b 765 783 664 663 736 757 b 872 831 801 815 835 831 b 932 803 901 831 921 821 b 942 672 943 785 954 749 b 849 404 929 601 897 511 b 656 82 776 247 714 142 b 514 17 599 25 551 17 b 404 117 472 17 438 33 l 378 182 l 306 31 z m 111 57 l 278 57 b 160 108 278 86 160 53 b 349 304 160 172 263 304 b 382 278 386 304 378 278 l 442 403 b 306 331 436 403 365 331 b 264 390 254 331 267 390 z m 132 213 l 163 278 l 174 278 l 143 213 z m 185 11 l 190 21 l 301 21 l 296 11 z m 217 399 l 233 435 l 244 435 l 228 399 z m 263 497 l 322 628 l 333 628 l 274 497 z m 335 549 b 536 686 342 550 431 686 b 567 675 564 686 564 675 l 610 769 b 407 701 543 742 467 717 z m 419 843 l 456 921 l 467 921 l 431 843 z m 432 238 l 585 574 b 625 614 597 600 610 614 b 579 397 654 614 665 588 b 457 233 513 251 496 233 b 432 238 453 233 443 235 z m 435 758 b 635 829 489 785 588 819 l 671 903 b 513 828 635 871 560 828 b 497 838 503 828 497 832 b 615 915 497 876 615 914 l 506 915 z m 438 24 l 443 31 b 513 7 463 15 483 7 b 604 29 543 7 574 11 l 599 17 b 513 -3 571 3 542 -3 b 438 24 482 -3 458 6 z m 438 294 l 450 324 l 460 324 l 447 294 z m 456 78 b 517 43 476 46 497 43 b 639 100 550 43 589 50 b 518 58 626 100 576 58 b 456 78 478 58 463 78 z m 558 222 b 722 304 565 221 640 304 b 756 278 760 304 751 278 b 825 425 788 339 797 361 b 688 332 819 426 760 332 b 643 390 636 332 646 390 b 558 222 608 304 594 275 z m 585 383 l 599 413 l 608 413 l 594 383 z m 624 475 b 657 581 644 524 654 558 l 667 581 b 635 475 664 557 654 522 z m 671 703 b 765 810 704 750 735 785 l 781 810 b 682 703 749 788 717 751 z m 679 828 l 696 863 l 707 863 l 690 828 z m 690 649 b 704 581 699 644 710 617 b 847 650 729 610 801 650 b 904 618 899 650 900 618 b 922 721 915 660 922 706 b 690 649 886 701 767 665 z m 736 710 b 915 769 797 735 861 757 b 874 800 913 788 901 800 b 736 710 825 800 778 756 z m 956 767 l 964 767 b 965 717 965 751 967 735 l 957 717 b 956 767 958 736 958 753 z "},"c":{"ha":672,"x_min":0,"x_max":0,"o":"m 396 -14 b 832 386 631 -14 747 161 l 568 386 b 444 201 485 221 463 201 b 429 222 438 201 429 207 b 510 436 431 249 447 310 b 640 631 585 586 619 631 b 654 611 651 631 656 624 b 593 439 654 588 646 550 l 854 439 b 926 661 893 506 924 585 b 678 861 931 789 854 861 b 249 536 474 861 358 750 b 136 192 175 399 139 264 b 396 -14 131 33 242 -14 z m 149 211 b 169 310 151 239 158 272 l 179 310 b 158 211 168 272 161 238 z m 167 192 b 196 332 168 226 179 278 b 276 522 214 394 243 461 b 676 831 367 704 471 831 b 896 661 804 831 903 792 b 836 469 894 603 872 535 l 639 469 b 685 611 675 547 685 583 b 640 661 688 640 669 661 b 482 449 604 661 571 628 b 399 222 428 340 400 263 b 443 171 399 182 425 171 b 586 356 479 171 508 197 l 786 356 b 397 17 710 164 604 17 b 167 192 261 17 164 53 z m 193 192 b 399 40 190 69 276 40 b 624 135 475 40 560 68 b 396 58 601 135 539 58 b 213 182 268 58 213 96 b 336 304 213 281 289 304 b 382 269 381 304 378 269 b 436 407 390 304 419 369 b 296 332 431 407 376 332 b 236 381 239 332 239 381 b 193 192 204 289 194 217 z m 199 397 b 250 514 213 435 229 474 l 260 514 b 207 397 239 474 222 435 z m 283 8 l 288 17 b 396 7 319 10 356 7 b 483 17 428 7 457 10 l 482 6 b 396 -3 456 0 426 -3 b 283 8 354 -3 317 0 z m 288 586 b 307 618 294 597 300 608 l 318 618 l 299 586 z m 322 547 b 490 625 329 547 385 625 b 532 603 526 625 531 603 b 651 692 556 649 585 692 b 713 633 683 692 707 671 b 826 711 717 633 760 711 b 868 682 860 711 865 682 b 825 764 869 711 850 751 b 381 638 738 736 469 665 b 322 547 363 615 339 579 z m 349 679 b 449 782 379 721 413 756 l 465 782 b 360 679 426 756 393 722 z m 418 267 b 429 301 421 278 425 289 l 439 301 b 428 267 435 289 431 278 z m 424 697 b 767 794 551 750 689 779 b 679 804 758 797 732 804 b 424 697 551 804 451 722 z m 510 257 b 558 344 524 278 539 307 l 569 344 b 521 257 550 308 535 279 z m 511 14 l 513 25 b 550 40 525 29 538 35 l 547 28 b 511 14 536 22 524 18 z m 535 207 b 692 304 551 207 603 304 b 728 281 722 304 725 281 l 749 329 l 603 329 l 546 226 b 535 207 543 222 540 215 z m 625 485 b 649 542 638 513 642 524 l 658 542 b 636 485 653 524 649 513 z m 660 574 b 665 607 664 588 665 597 l 675 607 b 671 574 675 599 674 588 z m 674 450 l 679 460 l 825 460 l 821 450 z m 893 746 l 903 746 b 914 704 908 733 911 719 l 904 704 b 893 746 901 719 899 733 z "},"ć":{"ha":672,"x_min":0,"x_max":0,"o":"m 396 -14 b 832 386 631 -14 747 161 l 568 386 b 444 201 485 221 463 201 b 429 222 438 201 429 207 b 510 436 431 249 447 310 b 640 631 585 586 619 631 b 654 611 651 631 656 624 b 593 439 654 588 646 550 l 854 439 b 926 661 893 506 924 585 b 678 861 931 789 854 861 b 249 536 474 861 358 750 b 136 192 175 399 139 264 b 396 -14 131 33 242 -14 z m 149 211 b 169 310 151 239 158 272 l 179 310 b 158 211 168 272 161 238 z m 167 192 b 196 332 168 226 179 278 b 276 522 214 394 243 461 b 676 831 367 704 471 831 b 896 661 804 831 903 792 b 836 469 894 603 872 535 l 639 469 b 685 611 675 547 685 583 b 640 661 688 640 669 661 b 482 449 604 661 571 628 b 399 222 428 340 400 263 b 443 171 399 182 425 171 b 586 356 479 171 508 197 l 786 356 b 397 17 710 164 604 17 b 167 192 261 17 164 53 z m 193 192 b 399 40 190 69 276 40 b 624 135 475 40 560 68 b 396 58 601 135 539 58 b 213 182 268 58 213 96 b 336 304 213 281 289 304 b 382 269 381 304 378 269 b 436 407 390 304 419 369 b 296 332 431 407 376 332 b 236 381 239 332 239 381 b 193 192 204 289 194 217 z m 199 397 b 250 514 213 435 229 474 l 260 514 b 207 397 239 474 222 435 z m 283 8 l 288 17 b 396 7 319 10 356 7 b 483 17 428 7 457 10 l 482 6 b 396 -3 456 0 426 -3 b 283 8 354 -3 317 0 z m 288 586 b 307 618 294 597 300 608 l 318 618 l 299 586 z m 322 547 b 490 625 329 547 385 625 b 532 603 526 625 531 603 b 651 692 556 649 585 692 b 713 633 683 692 707 671 b 826 711 717 633 760 711 b 868 682 860 711 865 682 b 825 764 869 711 850 751 b 381 638 738 736 469 665 b 322 547 363 615 339 579 z m 349 679 b 449 782 379 721 413 756 l 465 782 b 360 679 426 756 393 722 z m 418 267 b 429 301 421 278 425 289 l 439 301 b 428 267 435 289 431 278 z m 424 697 b 767 794 551 750 689 779 b 679 804 758 797 732 804 b 424 697 551 804 451 722 z m 510 257 b 558 344 524 278 539 307 l 569 344 b 521 257 550 308 535 279 z m 511 14 l 513 25 b 550 40 525 29 538 35 l 547 28 b 511 14 536 22 524 18 z m 535 207 b 692 304 551 207 603 304 b 728 281 722 304 725 281 l 749 329 l 603 329 l 546 226 b 535 207 543 222 540 215 z m 625 485 b 649 542 638 513 642 524 l 658 542 b 636 485 653 524 649 513 z m 656 882 l 718 882 l 847 999 l 738 999 z m 660 574 b 665 607 664 588 665 597 l 675 607 b 671 574 675 599 674 588 z m 674 450 l 679 460 l 825 460 l 821 450 z m 708 911 l 753 972 l 779 972 l 713 911 z m 893 746 l 903 746 b 914 704 908 733 911 719 l 904 704 b 893 746 901 719 899 733 z "},"č":{"ha":672,"x_min":0,"x_max":0,"o":"m 396 -14 b 832 386 631 -14 747 161 l 568 386 b 444 201 485 221 463 201 b 429 222 438 201 429 207 b 510 436 431 249 447 310 b 640 631 585 586 619 631 b 654 611 651 631 656 624 b 593 439 654 588 646 550 l 854 439 b 926 661 893 506 924 585 b 678 861 931 789 854 861 b 249 536 474 861 358 750 b 136 192 175 399 139 264 b 396 -14 131 33 242 -14 z m 149 211 b 169 310 151 239 158 272 l 179 310 b 158 211 168 272 161 238 z m 167 192 b 196 332 168 226 179 278 b 276 522 214 394 243 461 b 676 831 367 704 471 831 b 896 661 804 831 903 792 b 836 469 894 603 872 535 l 639 469 b 685 611 675 547 685 583 b 640 661 688 640 669 661 b 482 449 604 661 571 628 b 399 222 428 340 400 263 b 443 171 399 182 425 171 b 586 356 479 171 508 197 l 786 356 b 397 17 710 164 604 17 b 167 192 261 17 164 53 z m 193 192 b 399 40 190 69 276 40 b 624 135 475 40 560 68 b 396 58 601 135 539 58 b 213 182 268 58 213 96 b 336 304 213 281 289 304 b 382 269 381 304 378 269 b 436 407 390 304 419 369 b 296 332 431 407 376 332 b 236 381 239 332 239 381 b 193 192 204 289 194 217 z m 199 397 b 250 514 213 435 229 474 l 260 514 b 207 397 239 474 222 435 z m 283 8 l 288 17 b 396 7 319 10 356 7 b 483 17 428 7 457 10 l 482 6 b 396 -3 456 0 426 -3 b 283 8 354 -3 317 0 z m 288 586 b 307 618 294 597 300 608 l 318 618 l 299 586 z m 322 547 b 490 625 329 547 385 625 b 532 603 526 625 531 603 b 651 692 556 649 585 692 b 713 633 683 692 707 671 b 826 711 717 633 760 711 b 868 682 860 711 865 682 b 825 764 869 711 850 751 b 381 638 738 736 469 665 b 322 547 363 615 339 579 z m 349 679 b 449 782 379 721 413 756 l 465 782 b 360 679 426 756 393 722 z m 418 267 b 429 301 421 278 425 289 l 439 301 b 428 267 435 289 431 278 z m 424 697 b 767 794 551 750 689 779 b 679 804 758 797 732 804 b 424 697 551 804 451 722 z m 510 257 b 558 344 524 278 539 307 l 569 344 b 521 257 550 308 535 279 z m 511 14 l 513 25 b 550 40 525 29 538 35 l 547 28 b 511 14 536 22 524 18 z m 535 207 b 692 304 551 207 603 304 b 728 281 722 304 725 281 l 749 329 l 603 329 l 546 226 b 535 207 543 222 540 215 z m 572 999 l 651 882 l 719 882 l 882 999 l 769 999 l 697 924 l 671 999 z m 624 975 l 646 975 l 669 918 l 664 918 b 624 975 653 928 638 956 z m 625 485 b 649 542 638 513 642 524 l 658 542 b 636 485 653 524 649 513 z m 660 574 b 665 607 664 588 665 597 l 675 607 b 671 574 675 599 674 588 z m 674 450 l 679 460 l 825 460 l 821 450 z m 754 950 l 781 975 l 803 975 l 768 949 z m 893 746 l 903 746 b 914 704 908 733 911 719 l 904 704 b 893 746 901 719 899 733 z "},"ç":{"ha":628,"x_min":0,"x_max":0,"o":"m 371 -14 b 807 386 606 -14 722 161 l 543 386 b 419 201 460 221 438 201 b 404 222 413 201 404 207 b 485 436 406 249 422 310 b 615 631 560 586 594 631 b 629 611 626 631 631 624 b 568 439 629 588 621 550 l 829 439 b 901 661 868 506 899 585 b 653 861 906 789 829 861 b 224 536 449 861 333 750 b 111 192 150 399 114 264 b 272 -6 107 69 172 14 l 232 -85 l 278 -97 b 333 -85 297 -87 314 -85 b 307 -137 376 -85 367 -137 b 206 -104 265 -137 231 -121 l 178 -168 b 286 -193 224 -189 250 -193 b 418 -99 376 -193 418 -150 b 347 -37 418 -51 381 -37 b 289 -49 325 -37 306 -42 l 308 -11 b 371 -14 329 -12 350 -14 z m 124 211 b 144 310 126 239 133 272 l 154 310 b 133 211 143 272 136 238 z m 142 192 b 171 332 143 226 154 278 b 251 522 189 394 218 461 b 651 831 342 704 446 831 b 871 661 779 831 878 792 b 811 469 869 603 847 535 l 614 469 b 660 611 650 547 660 583 b 615 661 663 640 644 661 b 457 449 579 661 546 628 b 374 222 403 340 375 263 b 418 171 374 182 400 171 b 561 356 454 171 483 197 l 761 356 b 372 17 685 164 579 17 b 142 192 236 17 139 53 z m 168 192 b 374 40 165 69 251 40 b 599 135 450 40 535 68 b 371 58 576 135 514 58 b 188 182 243 58 188 96 b 311 304 188 281 264 304 b 357 269 356 304 353 269 b 411 407 365 304 394 369 b 271 332 406 407 351 332 b 211 381 214 332 214 381 b 168 192 179 289 169 217 z m 174 397 b 225 514 188 435 204 474 l 235 514 b 182 397 214 474 197 435 z m 208 -162 l 214 -150 b 253 -161 225 -154 238 -158 l 246 -174 b 208 -162 233 -171 221 -168 z m 258 8 l 263 17 b 371 7 294 10 331 7 b 458 17 403 7 432 10 l 457 6 b 371 -3 431 0 401 -3 b 258 8 329 -3 292 0 z m 263 586 b 282 618 269 597 275 608 l 293 618 l 274 586 z m 276 -176 l 282 -164 l 301 -164 b 397 -125 374 -164 389 -124 b 294 -176 385 -156 351 -176 z m 278 -79 b 338 -58 282 -71 297 -58 b 376 -112 383 -58 396 -97 b 333 -68 382 -87 367 -68 b 278 -79 314 -68 297 -71 z m 297 547 b 465 625 304 547 360 625 b 507 603 501 625 506 603 b 626 692 531 649 560 692 b 688 633 658 692 682 671 b 801 711 692 633 735 711 b 843 682 835 711 840 682 b 800 764 844 711 825 751 b 356 638 713 736 444 665 b 297 547 338 615 314 579 z m 324 679 b 424 782 354 721 388 756 l 440 782 b 335 679 401 756 368 722 z m 393 267 b 404 301 396 278 400 289 l 414 301 b 403 267 410 289 406 278 z m 399 697 b 742 794 526 750 664 779 b 654 804 733 797 707 804 b 399 697 526 804 426 722 z m 485 257 b 533 344 499 278 514 307 l 544 344 b 496 257 525 308 510 279 z m 486 14 l 488 25 b 525 40 500 29 513 35 l 522 28 b 486 14 511 22 499 18 z m 510 207 b 667 304 526 207 578 304 b 703 281 697 304 700 281 l 724 329 l 578 329 l 521 226 b 510 207 518 222 515 215 z m 600 485 b 624 542 613 513 617 524 l 633 542 b 611 485 628 524 624 513 z m 635 574 b 640 607 639 588 640 597 l 650 607 b 646 574 650 599 649 588 z m 649 450 l 654 460 l 800 460 l 796 450 z m 868 746 l 878 746 b 889 704 883 733 886 719 l 879 704 b 868 746 876 719 874 733 z "}}}
